<svg xmlns="http://www.w3.org/2000/svg" xmlns:xlink="http://www.w3.org/1999/xlink" width="1080" zoomAndPan="magnify" viewBox="0 0 810 809.999993" height="1080" preserveAspectRatio="xMidYMid meet" version="1.2"><defs><clipPath id="60cfb17c8d"><path d="M 151 151 L 659 151 L 659 659 L 151 659 Z M 151 151 "/></clipPath><clipPath id="7f6169e031"><path d="M 658.125 405 C 658.125 409.140625 658.023438 413.28125 657.820312 417.421875 C 657.617188 421.558594 657.3125 425.6875 656.90625 429.8125 C 656.5 433.933594 655.992188 438.042969 655.386719 442.140625 C 654.777344 446.238281 654.070312 450.320312 653.261719 454.382812 C 652.453125 458.445312 651.546875 462.484375 650.539062 466.503906 C 649.53125 470.523438 648.429688 474.515625 647.226562 478.476562 C 646.023438 482.441406 644.722656 486.375 643.328125 490.273438 C 641.933594 494.175781 640.441406 498.039062 638.855469 501.867188 C 637.273438 505.695312 635.59375 509.480469 633.820312 513.226562 C 632.050781 516.96875 630.1875 520.667969 628.234375 524.324219 C 626.285156 527.976562 624.242188 531.578125 622.113281 535.132812 C 619.984375 538.683594 617.765625 542.183594 615.464844 545.628906 C 613.164062 549.074219 610.78125 552.457031 608.3125 555.785156 C 605.84375 559.113281 603.296875 562.378906 600.667969 565.582031 C 598.039062 568.78125 595.335938 571.917969 592.554688 574.988281 C 589.769531 578.058594 586.914062 581.058594 583.984375 583.984375 C 581.058594 586.914062 578.058594 589.769531 574.988281 592.554688 C 571.917969 595.335938 568.78125 598.039062 565.582031 600.667969 C 562.378906 603.296875 559.113281 605.84375 555.785156 608.3125 C 552.457031 610.78125 549.074219 613.164062 545.628906 615.464844 C 542.183594 617.765625 538.683594 619.984375 535.132812 622.113281 C 531.578125 624.242188 527.976562 626.285156 524.320312 628.234375 C 520.667969 630.1875 516.96875 632.050781 513.226562 633.820312 C 509.480469 635.59375 505.695312 637.273438 501.867188 638.855469 C 498.039062 640.441406 494.175781 641.933594 490.273438 643.328125 C 486.375 644.722656 482.441406 646.023438 478.476562 647.226562 C 474.515625 648.429688 470.523438 649.53125 466.503906 650.539062 C 462.484375 651.546875 458.445312 652.453125 454.382812 653.261719 C 450.320312 654.070312 446.238281 654.777344 442.140625 655.386719 C 438.042969 655.992188 433.933594 656.5 429.8125 656.90625 C 425.6875 657.3125 421.558594 657.617188 417.421875 657.820312 C 413.28125 658.023438 409.140625 658.125 405 658.125 C 400.855469 658.125 396.71875 658.023438 392.578125 657.820312 C 388.441406 657.617188 384.3125 657.3125 380.1875 656.90625 C 376.066406 656.5 371.957031 655.992188 367.859375 655.386719 C 363.761719 654.777344 359.679688 654.070312 355.617188 653.261719 C 351.554688 652.453125 347.515625 651.546875 343.496094 650.539062 C 339.476562 649.53125 335.484375 648.429688 331.523438 647.226562 C 327.558594 646.023438 323.625 644.722656 319.726562 643.328125 C 315.824219 641.933594 311.960938 640.441406 308.132812 638.855469 C 304.304688 637.273438 300.519531 635.59375 296.773438 633.820312 C 293.03125 632.050781 289.332031 630.1875 285.675781 628.234375 C 282.023438 626.285156 278.421875 624.242188 274.867188 622.113281 C 271.316406 619.984375 267.816406 617.765625 264.371094 615.464844 C 260.925781 613.164062 257.539062 610.78125 254.214844 608.3125 C 250.886719 605.84375 247.621094 603.296875 244.417969 600.667969 C 241.21875 598.039062 238.082031 595.335938 235.011719 592.554688 C 231.941406 589.769531 228.941406 586.914062 226.011719 583.984375 C 223.085938 581.058594 220.230469 578.058594 217.445312 574.988281 C 214.664062 571.917969 211.960938 568.78125 209.332031 565.582031 C 206.703125 562.378906 204.15625 559.113281 201.6875 555.785156 C 199.21875 552.457031 196.835938 549.074219 194.535156 545.628906 C 192.234375 542.183594 190.015625 538.683594 187.886719 535.132812 C 185.757812 531.578125 183.714844 527.976562 181.761719 524.320312 C 179.8125 520.667969 177.949219 516.96875 176.175781 513.226562 C 174.40625 509.480469 172.726562 505.695312 171.144531 501.867188 C 169.558594 498.039062 168.066406 494.175781 166.671875 490.273438 C 165.277344 486.375 163.976562 482.441406 162.773438 478.476562 C 161.570312 474.515625 160.46875 470.523438 159.460938 466.503906 C 158.453125 462.484375 157.546875 458.445312 156.738281 454.382812 C 155.929688 450.320312 155.222656 446.238281 154.613281 442.140625 C 154.007812 438.042969 153.5 433.933594 153.09375 429.8125 C 152.6875 425.6875 152.382812 421.558594 152.179688 417.421875 C 151.976562 413.28125 151.875 409.140625 151.875 405 C 151.875 400.855469 151.976562 396.71875 152.179688 392.578125 C 152.382812 388.441406 152.6875 384.3125 153.09375 380.1875 C 153.5 376.066406 154.007812 371.957031 154.613281 367.859375 C 155.222656 363.761719 155.929688 359.679688 156.738281 355.617188 C 157.546875 351.554688 158.453125 347.515625 159.460938 343.496094 C 160.46875 339.476562 161.570312 335.484375 162.773438 331.523438 C 163.976562 327.558594 165.277344 323.625 166.671875 319.726562 C 168.066406 315.824219 169.558594 311.960938 171.144531 308.132812 C 172.726562 304.304688 174.40625 300.519531 176.175781 296.773438 C 177.949219 293.03125 179.8125 289.332031 181.761719 285.675781 C 183.714844 282.023438 185.757812 278.421875 187.886719 274.867188 C 190.015625 271.316406 192.234375 267.816406 194.535156 264.371094 C 196.835938 260.925781 199.21875 257.539062 201.6875 254.214844 C 204.15625 250.886719 206.703125 247.621094 209.332031 244.417969 C 211.960938 241.21875 214.664062 238.082031 217.445312 235.011719 C 220.230469 231.941406 223.085938 228.941406 226.011719 226.011719 C 228.941406 223.085938 231.941406 220.230469 235.011719 217.445312 C 238.082031 214.664062 241.21875 211.960938 244.417969 209.332031 C 247.621094 206.703125 250.886719 204.15625 254.214844 201.6875 C 257.539062 199.21875 260.925781 196.835938 264.371094 194.535156 C 267.816406 192.234375 271.316406 190.015625 274.867188 187.886719 C 278.421875 185.757812 282.023438 183.714844 285.675781 181.765625 C 289.332031 179.8125 293.03125 177.949219 296.773438 176.175781 C 300.519531 174.40625 304.304688 172.726562 308.132812 171.144531 C 311.960938 169.558594 315.824219 168.066406 319.726562 166.671875 C 323.625 165.277344 327.558594 163.976562 331.523438 162.773438 C 335.484375 161.570312 339.476562 160.46875 343.496094 159.460938 C 347.515625 158.453125 351.554688 157.546875 355.617188 156.738281 C 359.679688 155.929688 363.761719 155.222656 367.859375 154.613281 C 371.957031 154.007812 376.066406 153.5 380.1875 153.09375 C 384.3125 152.6875 388.441406 152.382812 392.578125 152.179688 C 396.71875 151.976562 400.855469 151.875 405 151.875 C 409.140625 151.875 413.28125 151.976562 417.421875 152.179688 C 421.558594 152.382812 425.6875 152.6875 429.8125 153.09375 C 433.933594 153.5 438.042969 154.007812 442.140625 154.613281 C 446.238281 155.222656 450.320312 155.929688 454.382812 156.738281 C 458.445312 157.546875 462.484375 158.453125 466.503906 159.460938 C 470.523438 160.46875 474.515625 161.570312 478.476562 162.773438 C 482.441406 163.976562 486.375 165.277344 490.273438 166.671875 C 494.175781 168.066406 498.039062 169.558594 501.867188 171.144531 C 505.695312 172.726562 509.480469 174.40625 513.226562 176.175781 C 516.96875 177.949219 520.667969 179.8125 524.320312 181.765625 C 527.976562 183.714844 531.578125 185.757812 535.132812 187.886719 C 538.683594 190.015625 542.183594 192.234375 545.628906 194.535156 C 549.074219 196.835938 552.457031 199.21875 555.785156 201.6875 C 559.113281 204.15625 562.378906 206.703125 565.582031 209.332031 C 568.78125 211.960938 571.917969 214.664062 574.988281 217.445312 C 578.058594 220.230469 581.058594 223.085938 583.984375 226.011719 C 586.914062 228.941406 589.769531 231.941406 592.554688 235.011719 C 595.335938 238.082031 598.039062 241.21875 600.667969 244.417969 C 603.296875 247.621094 605.84375 250.886719 608.3125 254.214844 C 610.78125 257.539062 613.164062 260.925781 615.464844 264.371094 C 617.765625 267.816406 619.984375 271.316406 622.113281 274.867188 C 624.242188 278.421875 626.285156 282.023438 628.234375 285.675781 C 630.1875 289.332031 632.050781 293.03125 633.820312 296.773438 C 635.59375 300.519531 637.273438 304.304688 638.855469 308.132812 C 640.441406 311.960938 641.933594 315.824219 643.328125 319.726562 C 644.722656 323.625 646.023438 327.558594 647.226562 331.523438 C 648.429688 335.484375 649.53125 339.476562 650.539062 343.496094 C 651.546875 347.515625 652.453125 351.554688 653.261719 355.617188 C 654.070312 359.679688 654.777344 363.761719 655.386719 367.859375 C 655.992188 371.957031 656.5 376.066406 656.90625 380.1875 C 657.3125 384.3125 657.617188 388.441406 657.820312 392.578125 C 658.023438 396.71875 658.125 400.855469 658.125 405 Z M 658.125 405 "/></clipPath><linearGradient x1="95.999996" gradientTransform="matrix(1.582031,0,0,1.582031,0.0000035,0.00002)" y1="95.999996" x2="415.999984" gradientUnits="userSpaceOnUse" y2="415.999984" id="ef6aea492a"><stop style="stop-color:#4f46e5;stop-opacity:1;" offset="0"/><stop style="stop-color:#4f47e5;stop-opacity:1;" offset="0.0078125"/><stop style="stop-color:#4e47e5;stop-opacity:1;" offset="0.015625"/><stop style="stop-color:#4e48e5;stop-opacity:1;" offset="0.0234375"/><stop style="stop-color:#4d49e5;stop-opacity:1;" offset="0.03125"/><stop style="stop-color:#4c4ae4;stop-opacity:1;" offset="0.0390625"/><stop style="stop-color:#4c4be4;stop-opacity:1;" offset="0.046875"/><stop style="stop-color:#4b4ce4;stop-opacity:1;" offset="0.0546875"/><stop style="stop-color:#4b4de4;stop-opacity:1;" offset="0.0625"/><stop style="stop-color:#4a4ee4;stop-opacity:1;" offset="0.0703125"/><stop style="stop-color:#4a4ee4;stop-opacity:1;" offset="0.078125"/><stop style="stop-color:#494fe4;stop-opacity:1;" offset="0.0859375"/><stop style="stop-color:#4850e3;stop-opacity:1;" offset="0.09375"/><stop style="stop-color:#4851e3;stop-opacity:1;" offset="0.101562"/><stop style="stop-color:#4752e3;stop-opacity:1;" offset="0.109375"/><stop style="stop-color:#4753e3;stop-opacity:1;" offset="0.117188"/><stop style="stop-color:#4654e3;stop-opacity:1;" offset="0.125"/><stop style="stop-color:#4655e3;stop-opacity:1;" offset="0.132812"/><stop style="stop-color:#4555e3;stop-opacity:1;" offset="0.140625"/><stop style="stop-color:#4556e3;stop-opacity:1;" offset="0.148438"/><stop style="stop-color:#4457e2;stop-opacity:1;" offset="0.15625"/><stop style="stop-color:#4358e2;stop-opacity:1;" offset="0.164062"/><stop style="stop-color:#4359e2;stop-opacity:1;" offset="0.171875"/><stop style="stop-color:#425ae2;stop-opacity:1;" offset="0.179688"/><stop style="stop-color:#425be2;stop-opacity:1;" offset="0.1875"/><stop style="stop-color:#415ce2;stop-opacity:1;" offset="0.195312"/><stop style="stop-color:#415ce2;stop-opacity:1;" offset="0.203125"/><stop style="stop-color:#405de1;stop-opacity:1;" offset="0.210938"/><stop style="stop-color:#3f5ee1;stop-opacity:1;" offset="0.21875"/><stop style="stop-color:#3f5fe1;stop-opacity:1;" offset="0.226562"/><stop style="stop-color:#3e60e1;stop-opacity:1;" offset="0.234375"/><stop style="stop-color:#3e61e1;stop-opacity:1;" offset="0.242188"/><stop style="stop-color:#3d62e1;stop-opacity:1;" offset="0.25"/><stop style="stop-color:#3d63e1;stop-opacity:1;" offset="0.257812"/><stop style="stop-color:#3c63e1;stop-opacity:1;" offset="0.265625"/><stop style="stop-color:#3b64e0;stop-opacity:1;" offset="0.273438"/><stop style="stop-color:#3b65e0;stop-opacity:1;" offset="0.28125"/><stop style="stop-color:#3a66e0;stop-opacity:1;" offset="0.289062"/><stop style="stop-color:#3a67e0;stop-opacity:1;" offset="0.296875"/><stop style="stop-color:#3968e0;stop-opacity:1;" offset="0.304688"/><stop style="stop-color:#3969e0;stop-opacity:1;" offset="0.3125"/><stop style="stop-color:#386ae0;stop-opacity:1;" offset="0.320312"/><stop style="stop-color:#376adf;stop-opacity:1;" offset="0.328125"/><stop style="stop-color:#376bdf;stop-opacity:1;" offset="0.335938"/><stop style="stop-color:#366cdf;stop-opacity:1;" offset="0.34375"/><stop style="stop-color:#366ddf;stop-opacity:1;" offset="0.351562"/><stop style="stop-color:#356edf;stop-opacity:1;" offset="0.359375"/><stop style="stop-color:#356fdf;stop-opacity:1;" offset="0.367188"/><stop style="stop-color:#3470df;stop-opacity:1;" offset="0.375"/><stop style="stop-color:#3371df;stop-opacity:1;" offset="0.382812"/><stop style="stop-color:#3371de;stop-opacity:1;" offset="0.390625"/><stop style="stop-color:#3272de;stop-opacity:1;" offset="0.398438"/><stop style="stop-color:#3273de;stop-opacity:1;" offset="0.40625"/><stop style="stop-color:#3174de;stop-opacity:1;" offset="0.414062"/><stop style="stop-color:#3175de;stop-opacity:1;" offset="0.421875"/><stop style="stop-color:#3076de;stop-opacity:1;" offset="0.429688"/><stop style="stop-color:#2f77de;stop-opacity:1;" offset="0.4375"/><stop style="stop-color:#2f78dd;stop-opacity:1;" offset="0.445312"/><stop style="stop-color:#2e78dd;stop-opacity:1;" offset="0.453125"/><stop style="stop-color:#2e79dd;stop-opacity:1;" offset="0.460938"/><stop style="stop-color:#2d7add;stop-opacity:1;" offset="0.46875"/><stop style="stop-color:#2d7bdd;stop-opacity:1;" offset="0.476562"/><stop style="stop-color:#2c7cdd;stop-opacity:1;" offset="0.484375"/><stop style="stop-color:#2b7ddd;stop-opacity:1;" offset="0.492188"/><stop style="stop-color:#2b7edd;stop-opacity:1;" offset="0.5"/><stop style="stop-color:#2a7fdc;stop-opacity:1;" offset="0.507812"/><stop style="stop-color:#2a7fdc;stop-opacity:1;" offset="0.515625"/><stop style="stop-color:#2980dc;stop-opacity:1;" offset="0.523438"/><stop style="stop-color:#2981dc;stop-opacity:1;" offset="0.53125"/><stop style="stop-color:#2882dc;stop-opacity:1;" offset="0.539062"/><stop style="stop-color:#2783dc;stop-opacity:1;" offset="0.546875"/><stop style="stop-color:#2784dc;stop-opacity:1;" offset="0.554688"/><stop style="stop-color:#2685db;stop-opacity:1;" offset="0.5625"/><stop style="stop-color:#2686db;stop-opacity:1;" offset="0.570312"/><stop style="stop-color:#2586db;stop-opacity:1;" offset="0.578125"/><stop style="stop-color:#2587db;stop-opacity:1;" offset="0.585938"/><stop style="stop-color:#2488db;stop-opacity:1;" offset="0.59375"/><stop style="stop-color:#2389db;stop-opacity:1;" offset="0.601562"/><stop style="stop-color:#238adb;stop-opacity:1;" offset="0.609375"/><stop style="stop-color:#228bdb;stop-opacity:1;" offset="0.617188"/><stop style="stop-color:#228cda;stop-opacity:1;" offset="0.625"/><stop style="stop-color:#218dda;stop-opacity:1;" offset="0.632812"/><stop style="stop-color:#218dda;stop-opacity:1;" offset="0.640625"/><stop style="stop-color:#208eda;stop-opacity:1;" offset="0.648438"/><stop style="stop-color:#1f8fda;stop-opacity:1;" offset="0.65625"/><stop style="stop-color:#1f90da;stop-opacity:1;" offset="0.664062"/><stop style="stop-color:#1e91da;stop-opacity:1;" offset="0.671875"/><stop style="stop-color:#1e92d9;stop-opacity:1;" offset="0.679688"/><stop style="stop-color:#1d93d9;stop-opacity:1;" offset="0.6875"/><stop style="stop-color:#1d94d9;stop-opacity:1;" offset="0.695312"/><stop style="stop-color:#1c94d9;stop-opacity:1;" offset="0.703125"/><stop style="stop-color:#1b95d9;stop-opacity:1;" offset="0.710938"/><stop style="stop-color:#1b96d9;stop-opacity:1;" offset="0.71875"/><stop style="stop-color:#1a97d9;stop-opacity:1;" offset="0.726562"/><stop style="stop-color:#1a98d9;stop-opacity:1;" offset="0.734375"/><stop style="stop-color:#1999d8;stop-opacity:1;" offset="0.742188"/><stop style="stop-color:#199ad8;stop-opacity:1;" offset="0.75"/><stop style="stop-color:#189bd8;stop-opacity:1;" offset="0.757812"/><stop style="stop-color:#179bd8;stop-opacity:1;" offset="0.765625"/><stop style="stop-color:#179cd8;stop-opacity:1;" offset="0.773438"/><stop style="stop-color:#169dd8;stop-opacity:1;" offset="0.78125"/><stop style="stop-color:#169ed8;stop-opacity:1;" offset="0.789062"/><stop style="stop-color:#159fd7;stop-opacity:1;" offset="0.796875"/><stop style="stop-color:#15a0d7;stop-opacity:1;" offset="0.804688"/><stop style="stop-color:#14a1d7;stop-opacity:1;" offset="0.8125"/><stop style="stop-color:#14a2d7;stop-opacity:1;" offset="0.820312"/><stop style="stop-color:#13a2d7;stop-opacity:1;" offset="0.828125"/><stop style="stop-color:#12a3d7;stop-opacity:1;" offset="0.835938"/><stop style="stop-color:#12a4d7;stop-opacity:1;" offset="0.84375"/><stop style="stop-color:#11a5d7;stop-opacity:1;" offset="0.851562"/><stop style="stop-color:#11a6d6;stop-opacity:1;" offset="0.859375"/><stop style="stop-color:#10a7d6;stop-opacity:1;" offset="0.867188"/><stop style="stop-color:#10a8d6;stop-opacity:1;" offset="0.875"/><stop style="stop-color:#0fa9d6;stop-opacity:1;" offset="0.882812"/><stop style="stop-color:#0ea9d6;stop-opacity:1;" offset="0.890625"/><stop style="stop-color:#0eaad6;stop-opacity:1;" offset="0.898438"/><stop style="stop-color:#0dabd6;stop-opacity:1;" offset="0.90625"/><stop style="stop-color:#0dacd5;stop-opacity:1;" offset="0.914062"/><stop style="stop-color:#0cadd5;stop-opacity:1;" offset="0.921875"/><stop style="stop-color:#0caed5;stop-opacity:1;" offset="0.929688"/><stop style="stop-color:#0bafd5;stop-opacity:1;" offset="0.9375"/><stop style="stop-color:#0ab0d5;stop-opacity:1;" offset="0.945312"/><stop style="stop-color:#0ab0d5;stop-opacity:1;" offset="0.953125"/><stop style="stop-color:#09b1d5;stop-opacity:1;" offset="0.960938"/><stop style="stop-color:#09b2d5;stop-opacity:1;" offset="0.96875"/><stop style="stop-color:#08b3d4;stop-opacity:1;" offset="0.976562"/><stop style="stop-color:#08b4d4;stop-opacity:1;" offset="0.984375"/><stop style="stop-color:#07b5d4;stop-opacity:1;" offset="0.992188"/><stop style="stop-color:#06b6d4;stop-opacity:1;" offset="1"/></linearGradient><clipPath id="fa58eb5862"><path d="M 109.929688 109.929688 L 700.070312 109.929688 L 700.070312 700.070312 L 109.929688 700.070312 Z M 109.929688 109.929688 "/></clipPath><clipPath id="0693e6f034"><path d="M 172.773438 172.773438 L 637.023438 172.773438 L 637.023438 637.023438 L 172.773438 637.023438 Z M 172.773438 172.773438 "/></clipPath></defs><g id="eb04155c0f"><path style=" stroke:none;fill-rule:nonzero;fill:#1a1b1e;fill-opacity:1;" d="M 202.5 0 L 607.5 0 C 610.8125 0 614.125 0.0820312 617.4375 0.242188 C 620.746094 0.40625 624.050781 0.648438 627.347656 0.976562 C 630.648438 1.300781 633.933594 1.707031 637.210938 2.191406 C 640.492188 2.679688 643.753906 3.246094 647.003906 3.890625 C 650.257812 4.539062 653.488281 5.261719 656.703125 6.070312 C 659.917969 6.875 663.109375 7.757812 666.28125 8.71875 C 669.453125 9.679688 672.601562 10.722656 675.71875 11.835938 C 678.839844 12.953125 681.929688 14.144531 684.992188 15.414062 C 688.054688 16.683594 691.082031 18.023438 694.078125 19.441406 C 697.074219 20.859375 700.035156 22.347656 702.957031 23.910156 C 705.878906 25.472656 708.761719 27.105469 711.605469 28.808594 C 714.449219 30.515625 717.246094 32.285156 720.003906 34.128906 C 722.757812 35.96875 725.46875 37.875 728.128906 39.851562 C 730.789062 41.824219 733.402344 43.863281 735.964844 45.964844 C 738.527344 48.066406 741.035156 50.230469 743.492188 52.457031 C 745.945312 54.683594 748.34375 56.96875 750.6875 59.3125 C 753.03125 61.652344 755.316406 64.054688 757.542969 66.507812 C 759.769531 68.964844 761.933594 71.472656 764.035156 74.035156 C 766.136719 76.597656 768.175781 79.210938 770.148438 81.871094 C 772.125 84.53125 774.03125 87.242188 775.871094 89.996094 C 777.714844 92.753906 779.484375 95.550781 781.191406 98.394531 C 782.894531 101.238281 784.527344 104.121094 786.089844 107.042969 C 787.652344 109.964844 789.140625 112.925781 790.558594 115.921875 C 791.976562 118.914062 793.316406 121.945312 794.585938 125.007812 C 795.855469 128.070312 797.046875 131.160156 798.164062 134.28125 C 799.277344 137.398438 800.316406 140.546875 801.28125 143.71875 C 802.242188 146.890625 803.125 150.082031 803.929688 153.296875 C 804.738281 156.511719 805.460938 159.742188 806.109375 162.996094 C 806.753906 166.246094 807.320312 169.507812 807.808594 172.785156 C 808.292969 176.066406 808.699219 179.351562 809.023438 182.652344 C 809.351562 185.949219 809.59375 189.253906 809.757812 192.5625 C 809.917969 195.875 810 199.1875 810 202.5 L 810 607.5 C 810 610.8125 809.917969 614.125 809.757812 617.4375 C 809.59375 620.746094 809.351562 624.050781 809.023438 627.347656 C 808.699219 630.648438 808.292969 633.933594 807.808594 637.210938 C 807.320312 640.492188 806.753906 643.753906 806.109375 647.003906 C 805.460938 650.257812 804.738281 653.488281 803.929688 656.703125 C 803.125 659.917969 802.242188 663.109375 801.28125 666.28125 C 800.316406 669.453125 799.277344 672.601562 798.164062 675.71875 C 797.046875 678.839844 795.855469 681.929688 794.585938 684.992188 C 793.316406 688.054688 791.976562 691.082031 790.558594 694.078125 C 789.140625 697.074219 787.652344 700.035156 786.089844 702.957031 C 784.527344 705.878906 782.894531 708.761719 781.191406 711.605469 C 779.484375 714.449219 777.714844 717.246094 775.871094 720.003906 C 774.03125 722.757812 772.125 725.46875 770.148438 728.128906 C 768.175781 730.789062 766.136719 733.402344 764.035156 735.964844 C 761.933594 738.527344 759.769531 741.035156 757.542969 743.492188 C 755.316406 745.945312 753.03125 748.34375 750.6875 750.6875 C 748.34375 753.03125 745.945312 755.316406 743.492188 757.542969 C 741.035156 759.769531 738.527344 761.933594 735.964844 764.035156 C 733.402344 766.136719 730.789062 768.175781 728.128906 770.148438 C 725.46875 772.125 722.757812 774.03125 720.003906 775.871094 C 717.246094 777.714844 714.449219 779.484375 711.605469 781.191406 C 708.761719 782.894531 705.878906 784.527344 702.957031 786.089844 C 700.035156 787.652344 697.074219 789.140625 694.078125 790.558594 C 691.082031 791.976562 688.054688 793.316406 684.992188 794.585938 C 681.929688 795.855469 678.839844 797.046875 675.71875 798.164062 C 672.601562 799.277344 669.453125 800.316406 666.28125 801.28125 C 663.109375 802.242188 659.917969 803.125 656.703125 803.929688 C 653.488281 804.738281 650.257812 805.460938 647.003906 806.109375 C 643.753906 806.753906 640.492188 807.320312 637.210938 807.808594 C 633.933594 808.292969 630.648438 808.699219 627.347656 809.023438 C 624.050781 809.351562 620.746094 809.59375 617.4375 809.757812 C 614.125 809.917969 610.8125 810 607.5 810 L 202.5 810 C 199.1875 810 195.875 809.917969 192.5625 809.757812 C 189.253906 809.59375 185.949219 809.351562 182.652344 809.023438 C 179.351562 808.699219 176.066406 808.292969 172.785156 807.808594 C 169.507812 807.320312 166.246094 806.753906 162.996094 806.109375 C 159.742188 805.460938 156.511719 804.738281 153.296875 803.929688 C 150.082031 803.125 146.890625 802.242188 143.71875 801.28125 C 140.546875 800.316406 137.398438 799.277344 134.28125 798.164062 C 131.160156 797.046875 128.070312 795.855469 125.007812 794.585938 C 121.945312 793.316406 118.914062 791.976562 115.921875 790.558594 C 112.925781 789.140625 109.964844 787.652344 107.042969 786.089844 C 104.121094 784.527344 101.238281 782.894531 98.394531 781.191406 C 95.550781 779.484375 92.753906 777.714844 89.996094 775.871094 C 87.242188 774.03125 84.53125 772.125 81.871094 770.148438 C 79.210938 768.175781 76.597656 766.136719 74.035156 764.035156 C 71.472656 761.933594 68.964844 759.769531 66.507812 757.542969 C 64.054688 755.316406 61.652344 753.03125 59.3125 750.6875 C 56.96875 748.34375 54.683594 745.945312 52.457031 743.492188 C 50.230469 741.035156 48.066406 738.527344 45.964844 735.964844 C 43.863281 733.402344 41.824219 730.789062 39.851562 728.128906 C 37.875 725.46875 35.96875 722.757812 34.128906 720.003906 C 32.285156 717.246094 30.515625 714.449219 28.808594 711.605469 C 27.105469 708.761719 25.472656 705.878906 23.910156 702.957031 C 22.347656 700.035156 20.859375 697.074219 19.441406 694.078125 C 18.023438 691.082031 16.683594 688.054688 15.414062 684.992188 C 14.144531 681.929688 12.953125 678.839844 11.835938 675.71875 C 10.722656 672.601562 9.679688 669.453125 8.71875 666.28125 C 7.757812 663.109375 6.875 659.917969 6.070312 656.703125 C 5.261719 653.488281 4.539062 650.257812 3.890625 647.003906 C 3.246094 643.753906 2.679688 640.492188 2.191406 637.210938 C 1.707031 633.933594 1.300781 630.648438 0.976562 627.347656 C 0.648438 624.050781 0.40625 620.746094 0.242188 617.4375 C 0.0820312 614.125 0 610.8125 0 607.5 L 0 202.5 C 0 199.1875 0.0820312 195.875 0.242188 192.5625 C 0.40625 189.253906 0.648438 185.949219 0.976562 182.652344 C 1.300781 179.351562 1.707031 176.066406 2.191406 172.785156 C 2.679688 169.507812 3.246094 166.246094 3.890625 162.996094 C 4.539062 159.742188 5.261719 156.511719 6.070312 153.296875 C 6.875 150.082031 7.757812 146.890625 8.71875 143.71875 C 9.679688 140.546875 10.722656 137.398438 11.835938 134.28125 C 12.953125 131.160156 14.144531 128.070312 15.414062 125.007812 C 16.683594 121.945312 18.023438 118.914062 19.441406 115.921875 C 20.859375 112.925781 22.347656 109.964844 23.910156 107.042969 C 25.472656 104.121094 27.105469 101.238281 28.808594 98.394531 C 30.515625 95.550781 32.285156 92.753906 34.128906 89.996094 C 35.96875 87.242188 37.875 84.53125 39.851562 81.871094 C 41.824219 79.210938 43.863281 76.597656 45.964844 74.035156 C 48.066406 71.472656 50.230469 68.964844 52.457031 66.507812 C 54.683594 64.054688 56.96875 61.652344 59.3125 59.3125 C 61.652344 56.96875 64.054688 54.683594 66.507812 52.457031 C 68.964844 50.230469 71.472656 48.066406 74.035156 45.964844 C 76.597656 43.863281 79.210938 41.824219 81.871094 39.851562 C 84.53125 37.875 87.242188 35.96875 89.996094 34.128906 C 92.753906 32.285156 95.550781 30.515625 98.394531 28.808594 C 101.238281 27.105469 104.121094 25.472656 107.042969 23.910156 C 109.964844 22.347656 112.925781 20.859375 115.921875 19.441406 C 118.914062 18.023438 121.945312 16.683594 125.007812 15.414062 C 128.070312 14.144531 131.160156 12.953125 134.28125 11.835938 C 137.398438 10.722656 140.546875 9.679688 143.71875 8.71875 C 146.890625 7.757812 150.082031 6.875 153.296875 6.070312 C 156.511719 5.261719 159.742188 4.539062 162.996094 3.890625 C 166.246094 3.246094 169.507812 2.679688 172.785156 2.191406 C 176.066406 1.707031 179.351562 1.300781 182.652344 0.976562 C 185.949219 0.648438 189.253906 0.40625 192.5625 0.242188 C 195.875 0.0820312 199.1875 0 202.5 0 Z M 202.5 0 "/><g clip-rule="nonzero" clip-path="url(#60cfb17c8d)"><g clip-rule="nonzero" clip-path="url(#7f6169e031)"><path style=" stroke:none;fill-rule:nonzero;fill:url(#linear0);" d="M 151.875 151.875 L 151.875 658.125 L 658.125 658.125 L 658.125 151.875 Z M 151.875 151.875 "/></g></g><path style=" stroke:none;fill-rule:nonzero;fill:#1a1b1e;fill-opacity:1;" d="M 405 246.796875 C 318.351562 246.796875 246.796875 318.351562 246.796875 405 C 246.796875 491.648438 318.351562 563.203125 405 563.203125 C 491.648438 563.203125 563.203125 491.648438 563.203125 405 C 563.203125 318.351562 491.648438 246.796875 405 246.796875 Z M 405 515.742188 C 344.804688 515.742188 294.257812 465.195312 294.257812 405 C 294.257812 344.804688 344.804688 294.257812 405 294.257812 C 465.195312 294.257812 515.742188 344.804688 515.742188 405 C 515.742188 465.195312 465.195312 515.742188 405 515.742188 Z M 405 515.742188 "/><g clip-rule="nonzero" clip-path="url(#fa58eb5862)"><path style=" stroke:none;fill-rule:nonzero;fill:#1a1b1e;fill-opacity:1;" d="M 109.929688 109.929688 L 700.070312 109.929688 L 700.070312 700.070312 L 109.929688 700.070312 Z M 109.929688 109.929688 "/></g><g clip-rule="nonzero" clip-path="url(#0693e6f034)"><path style=" stroke:none;fill-rule:nonzero;fill:#5a59f1;fill-opacity:1;" d="M 558.65625 211.734375 L 520.15625 211.734375 L 520.15625 190.628906 C 520.15625 190.046875 520.128906 189.460938 520.070312 188.878906 C 520.015625 188.296875 519.929688 187.71875 519.816406 187.144531 C 519.699219 186.574219 519.558594 186.007812 519.390625 185.445312 C 519.21875 184.886719 519.023438 184.335938 518.796875 183.796875 C 518.574219 183.257812 518.324219 182.726562 518.050781 182.210938 C 517.773438 181.695312 517.472656 181.195312 517.148438 180.710938 C 516.824219 180.222656 516.476562 179.753906 516.105469 179.300781 C 515.734375 178.851562 515.339844 178.417969 514.929688 178.003906 C 514.515625 177.589844 514.082031 177.199219 513.628906 176.828125 C 513.179688 176.457031 512.707031 176.109375 512.222656 175.785156 C 511.734375 175.457031 511.234375 175.15625 510.71875 174.882812 C 510.203125 174.605469 509.675781 174.355469 509.136719 174.132812 C 508.59375 173.910156 508.046875 173.710938 507.484375 173.542969 C 506.925781 173.375 506.359375 173.230469 505.785156 173.117188 C 505.210938 173.003906 504.632812 172.917969 504.050781 172.859375 C 503.46875 172.804688 502.886719 172.773438 502.300781 172.773438 C 501.71875 172.773438 501.132812 172.804688 500.550781 172.859375 C 499.96875 172.917969 499.390625 173.003906 498.820312 173.117188 C 498.246094 173.230469 497.679688 173.375 497.117188 173.542969 C 496.558594 173.710938 496.007812 173.910156 495.46875 174.132812 C 494.929688 174.355469 494.402344 174.605469 493.886719 174.882812 C 493.371094 175.15625 492.867188 175.457031 492.382812 175.785156 C 491.894531 176.109375 491.425781 176.457031 490.976562 176.828125 C 490.523438 177.199219 490.089844 177.589844 489.675781 178.003906 C 489.261719 178.417969 488.871094 178.851562 488.5 179.300781 C 488.128906 179.753906 487.78125 180.222656 487.457031 180.710938 C 487.128906 181.195312 486.832031 181.695312 486.554688 182.210938 C 486.277344 182.726562 486.03125 183.257812 485.804688 183.796875 C 485.582031 184.335938 485.386719 184.886719 485.214844 185.445312 C 485.046875 186.007812 484.902344 186.574219 484.789062 187.144531 C 484.675781 187.71875 484.589844 188.296875 484.53125 188.878906 C 484.476562 189.460938 484.445312 190.046875 484.445312 190.628906 L 484.445312 211.734375 L 325.351562 211.734375 L 325.351562 190.628906 C 325.351562 190.046875 325.324219 189.460938 325.265625 188.878906 C 325.207031 188.296875 325.121094 187.71875 325.007812 187.144531 C 324.894531 186.574219 324.753906 186.007812 324.582031 185.445312 C 324.414062 184.886719 324.214844 184.335938 323.992188 183.796875 C 323.769531 183.257812 323.519531 182.726562 323.242188 182.210938 C 322.96875 181.695312 322.667969 181.195312 322.34375 180.710938 C 322.015625 180.222656 321.667969 179.753906 321.296875 179.300781 C 320.925781 178.851562 320.535156 178.417969 320.121094 178.003906 C 319.707031 177.589844 319.277344 177.199219 318.824219 176.828125 C 318.371094 176.457031 317.902344 176.109375 317.414062 175.785156 C 316.929688 175.457031 316.429688 175.15625 315.914062 174.882812 C 315.398438 174.605469 314.871094 174.355469 314.328125 174.132812 C 313.789062 173.910156 313.238281 173.710938 312.679688 173.542969 C 312.121094 173.375 311.554688 173.230469 310.980469 173.117188 C 310.40625 173.003906 309.828125 172.917969 309.246094 172.859375 C 308.664062 172.804688 308.082031 172.773438 307.496094 172.773438 C 306.910156 172.773438 306.328125 172.804688 305.746094 172.859375 C 305.164062 172.917969 304.585938 173.003906 304.011719 173.117188 C 303.4375 173.230469 302.871094 173.375 302.3125 173.542969 C 301.753906 173.710938 301.203125 173.910156 300.664062 174.132812 C 300.121094 174.355469 299.59375 174.605469 299.078125 174.882812 C 298.5625 175.15625 298.0625 175.457031 297.574219 175.785156 C 297.089844 176.109375 296.621094 176.457031 296.167969 176.828125 C 295.714844 177.199219 295.285156 177.589844 294.871094 178.003906 C 294.457031 178.417969 294.0625 178.851562 293.691406 179.300781 C 293.320312 179.753906 292.972656 180.222656 292.648438 180.710938 C 292.324219 181.195312 292.023438 181.695312 291.75 182.210938 C 291.472656 182.726562 291.222656 183.257812 291 183.796875 C 290.777344 184.335938 290.578125 184.886719 290.410156 185.445312 C 290.238281 186.007812 290.097656 186.574219 289.984375 187.144531 C 289.867188 187.71875 289.785156 188.296875 289.726562 188.878906 C 289.667969 189.460938 289.640625 190.046875 289.640625 190.628906 L 289.640625 211.734375 L 251.144531 211.734375 C 249.859375 211.738281 248.578125 211.769531 247.300781 211.835938 C 246.019531 211.898438 244.738281 211.992188 243.464844 212.121094 C 242.1875 212.246094 240.917969 212.40625 239.648438 212.59375 C 238.378906 212.785156 237.117188 213.003906 235.859375 213.257812 C 234.601562 213.507812 233.351562 213.789062 232.109375 214.101562 C 230.867188 214.414062 229.628906 214.757812 228.402344 215.128906 C 227.175781 215.503906 225.960938 215.90625 224.753906 216.339844 C 223.546875 216.769531 222.351562 217.234375 221.167969 217.726562 C 219.980469 218.214844 218.808594 218.734375 217.652344 219.285156 C 216.492188 219.832031 215.347656 220.410156 214.21875 221.015625 C 213.085938 221.621094 211.972656 222.253906 210.871094 222.910156 C 209.773438 223.570312 208.691406 224.257812 207.625 224.96875 C 206.558594 225.683594 205.511719 226.421875 204.480469 227.183594 C 203.453125 227.949219 202.441406 228.738281 201.449219 229.550781 C 200.460938 230.363281 199.488281 231.203125 198.539062 232.0625 C 197.589844 232.925781 196.660156 233.808594 195.753906 234.714844 C 194.847656 235.621094 193.964844 236.550781 193.101562 237.5 C 192.242188 238.449219 191.402344 239.421875 190.589844 240.410156 C 189.777344 241.402344 188.988281 242.414062 188.222656 243.441406 C 187.460938 244.472656 186.722656 245.519531 186.007812 246.585938 C 185.296875 247.652344 184.609375 248.734375 183.949219 249.835938 C 183.292969 250.933594 182.660156 252.046875 182.054688 253.179688 C 181.449219 254.308594 180.871094 255.453125 180.324219 256.613281 C 179.773438 257.773438 179.253906 258.945312 178.761719 260.128906 C 178.273438 261.3125 177.808594 262.507812 177.378906 263.714844 C 176.945312 264.921875 176.542969 266.136719 176.167969 267.363281 C 175.796875 268.589844 175.453125 269.828125 175.140625 271.070312 C 174.828125 272.3125 174.546875 273.5625 174.292969 274.820312 C 174.042969 276.078125 173.824219 277.339844 173.632812 278.609375 C 173.445312 279.878906 173.285156 281.148438 173.160156 282.425781 C 173.03125 283.703125 172.9375 284.980469 172.871094 286.261719 C 172.808594 287.539062 172.777344 288.820312 172.773438 290.105469 L 172.773438 558.65625 C 172.777344 559.9375 172.808594 561.21875 172.871094 562.5 C 172.9375 563.78125 173.03125 565.058594 173.160156 566.332031 C 173.285156 567.609375 173.445312 568.882812 173.632812 570.148438 C 173.824219 571.417969 174.042969 572.679688 174.292969 573.9375 C 174.546875 575.195312 174.828125 576.445312 175.140625 577.6875 C 175.453125 578.933594 175.796875 580.167969 176.167969 581.394531 C 176.542969 582.621094 176.945312 583.839844 177.378906 585.046875 C 177.808594 586.25 178.273438 587.449219 178.761719 588.632812 C 179.253906 589.816406 179.773438 590.988281 180.324219 592.144531 C 180.871094 593.304688 181.449219 594.449219 182.054688 595.582031 C 182.660156 596.710938 183.292969 597.824219 183.949219 598.925781 C 184.609375 600.023438 185.296875 601.109375 186.007812 602.171875 C 186.722656 603.238281 187.460938 604.289062 188.222656 605.316406 C 188.988281 606.347656 189.777344 607.355469 190.589844 608.347656 C 191.402344 609.339844 192.242188 610.308594 193.101562 611.257812 C 193.964844 612.210938 194.847656 613.136719 195.753906 614.042969 C 196.660156 614.949219 197.589844 615.835938 198.539062 616.695312 C 199.488281 617.558594 200.460938 618.394531 201.449219 619.207031 C 202.441406 620.019531 203.453125 620.808594 204.480469 621.574219 C 205.511719 622.339844 206.558594 623.078125 207.625 623.789062 C 208.691406 624.5 209.773438 625.1875 210.871094 625.847656 C 211.972656 626.507812 213.085938 627.140625 214.21875 627.742188 C 215.347656 628.347656 216.492188 628.925781 217.652344 629.472656 C 218.808594 630.023438 219.980469 630.542969 221.167969 631.035156 C 222.351562 631.527344 223.546875 631.988281 224.753906 632.421875 C 225.960938 632.855469 227.175781 633.257812 228.402344 633.628906 C 229.628906 634.003906 230.867188 634.34375 232.109375 634.65625 C 233.351562 634.96875 234.601562 635.253906 235.859375 635.503906 C 237.117188 635.753906 238.378906 635.976562 239.648438 636.164062 C 240.917969 636.355469 242.1875 636.511719 243.464844 636.636719 C 244.738281 636.765625 246.019531 636.859375 247.300781 636.925781 C 248.578125 636.988281 249.859375 637.023438 251.144531 637.023438 L 558.65625 637.023438 C 559.9375 637.023438 561.21875 636.988281 562.5 636.925781 C 563.78125 636.859375 565.058594 636.765625 566.332031 636.636719 C 567.609375 636.511719 568.882812 636.355469 570.148438 636.164062 C 571.417969 635.976562 572.679688 635.753906 573.9375 635.503906 C 575.195312 635.253906 576.445312 634.96875 577.6875 634.65625 C 578.933594 634.34375 580.167969 634.003906 581.394531 633.628906 C 582.621094 633.257812 583.839844 632.855469 585.042969 632.421875 C 586.25 631.988281 587.449219 631.527344 588.632812 631.035156 C 589.816406 630.542969 590.988281 630.023438 592.144531 629.476562 C 593.304688 628.925781 594.449219 628.347656 595.582031 627.742188 C 596.710938 627.140625 597.824219 626.507812 598.925781 625.847656 C 600.023438 625.1875 601.109375 624.5 602.171875 623.789062 C 603.238281 623.078125 604.289062 622.339844 605.316406 621.574219 C 606.347656 620.808594 607.355469 620.019531 608.347656 619.207031 C 609.339844 618.394531 610.308594 617.558594 611.257812 616.695312 C 612.210938 615.835938 613.136719 614.949219 614.042969 614.042969 C 614.949219 613.136719 615.835938 612.210938 616.695312 611.257812 C 617.558594 610.308594 618.394531 609.339844 619.207031 608.347656 C 620.019531 607.355469 620.808594 606.347656 621.574219 605.316406 C 622.339844 604.289062 623.078125 603.238281 623.789062 602.171875 C 624.5 601.109375 625.1875 600.023438 625.847656 598.925781 C 626.507812 597.824219 627.140625 596.710938 627.742188 595.582031 C 628.347656 594.449219 628.925781 593.304688 629.472656 592.144531 C 630.023438 590.988281 630.542969 589.816406 631.035156 588.632812 C 631.527344 587.449219 631.988281 586.25 632.421875 585.046875 C 632.855469 583.839844 633.257812 582.621094 633.628906 581.394531 C 634.003906 580.167969 634.34375 578.933594 634.65625 577.6875 C 634.96875 576.445312 635.253906 575.195312 635.503906 573.9375 C 635.753906 572.679688 635.976562 571.417969 636.164062 570.148438 C 636.355469 568.882812 636.511719 567.609375 636.636719 566.332031 C 636.765625 565.058594 636.859375 563.78125 636.925781 562.5 C 636.988281 561.21875 637.023438 559.9375 637.023438 558.65625 L 637.023438 290.105469 C 637.023438 288.820312 636.988281 287.539062 636.925781 286.261719 C 636.859375 284.980469 636.765625 283.703125 636.636719 282.425781 C 636.511719 281.148438 636.355469 279.878906 636.164062 278.609375 C 635.976562 277.339844 635.753906 276.078125 635.503906 274.820312 C 635.253906 273.5625 634.96875 272.3125 634.65625 271.070312 C 634.34375 269.828125 634.003906 268.589844 633.628906 267.363281 C 633.257812 266.136719 632.851562 264.921875 632.421875 263.714844 C 631.988281 262.507812 631.527344 261.3125 631.035156 260.128906 C 630.542969 258.945312 630.023438 257.773438 629.472656 256.613281 C 628.925781 255.453125 628.347656 254.308594 627.742188 253.179688 C 627.140625 252.046875 626.507812 250.933594 625.847656 249.835938 C 625.1875 248.734375 624.5 247.652344 623.789062 246.585938 C 623.078125 245.519531 622.339844 244.472656 621.574219 243.441406 C 620.808594 242.414062 620.019531 241.402344 619.207031 240.410156 C 618.394531 239.421875 617.558594 238.449219 616.695312 237.5 C 615.835938 236.550781 614.949219 235.621094 614.042969 234.714844 C 613.136719 233.808594 612.210938 232.925781 611.257812 232.0625 C 610.308594 231.203125 609.339844 230.363281 608.347656 229.550781 C 607.355469 228.738281 606.347656 227.949219 605.316406 227.183594 C 604.285156 226.421875 603.238281 225.683594 602.171875 224.96875 C 601.109375 224.257812 600.023438 223.570312 598.925781 222.910156 C 597.824219 222.253906 596.710938 221.621094 595.582031 221.015625 C 594.449219 220.410156 593.304688 219.832031 592.144531 219.285156 C 590.988281 218.734375 589.816406 218.214844 588.632812 217.726562 C 587.449219 217.234375 586.25 216.769531 585.042969 216.339844 C 583.839844 215.90625 582.621094 215.503906 581.394531 215.128906 C 580.167969 214.757812 578.933594 214.414062 577.6875 214.101562 C 576.445312 213.789062 575.195312 213.507812 573.9375 213.257812 C 572.679688 213.003906 571.417969 212.785156 570.148438 212.59375 C 568.882812 212.40625 567.609375 212.246094 566.332031 212.121094 C 565.058594 211.992188 563.78125 211.898438 562.5 211.835938 C 561.21875 211.769531 559.9375 211.738281 558.65625 211.734375 Z M 251.144531 247.445312 L 289.640625 247.445312 L 289.640625 268.550781 C 289.640625 269.136719 289.667969 269.71875 289.726562 270.300781 C 289.785156 270.882812 289.867188 271.460938 289.984375 272.035156 C 290.097656 272.609375 290.238281 273.175781 290.410156 273.734375 C 290.578125 274.296875 290.777344 274.84375 291 275.386719 C 291.222656 275.925781 291.472656 276.453125 291.75 276.96875 C 292.023438 277.484375 292.324219 277.988281 292.648438 278.472656 C 292.972656 278.957031 293.320312 279.429688 293.691406 279.878906 C 294.0625 280.332031 294.457031 280.765625 294.871094 281.179688 C 295.285156 281.59375 295.714844 281.984375 296.167969 282.355469 C 296.621094 282.726562 297.089844 283.074219 297.574219 283.398438 C 298.0625 283.722656 298.5625 284.023438 299.078125 284.300781 C 299.59375 284.574219 300.121094 284.824219 300.664062 285.050781 C 301.203125 285.273438 301.753906 285.46875 302.3125 285.640625 C 302.871094 285.808594 303.4375 285.949219 304.011719 286.066406 C 304.585938 286.179688 305.164062 286.265625 305.746094 286.320312 C 306.328125 286.378906 306.910156 286.410156 307.496094 286.410156 C 308.082031 286.410156 308.664062 286.378906 309.246094 286.320312 C 309.828125 286.265625 310.40625 286.179688 310.980469 286.066406 C 311.554688 285.949219 312.121094 285.808594 312.679688 285.640625 C 313.238281 285.46875 313.789062 285.273438 314.328125 285.050781 C 314.871094 284.824219 315.398438 284.574219 315.914062 284.300781 C 316.429688 284.023438 316.929688 283.722656 317.414062 283.398438 C 317.902344 283.074219 318.371094 282.726562 318.824219 282.355469 C 319.277344 281.984375 319.707031 281.59375 320.121094 281.179688 C 320.535156 280.765625 320.925781 280.332031 321.296875 279.878906 C 321.667969 279.429688 322.015625 278.957031 322.34375 278.472656 C 322.667969 277.988281 322.96875 277.484375 323.242188 276.96875 C 323.519531 276.453125 323.769531 275.925781 323.992188 275.386719 C 324.214844 274.84375 324.414062 274.296875 324.582031 273.734375 C 324.753906 273.175781 324.894531 272.609375 325.007812 272.035156 C 325.121094 271.460938 325.207031 270.882812 325.265625 270.300781 C 325.324219 269.71875 325.351562 269.136719 325.351562 268.550781 L 325.351562 247.445312 L 484.445312 247.445312 L 484.445312 268.550781 C 484.445312 269.136719 484.476562 269.71875 484.53125 270.300781 C 484.589844 270.882812 484.675781 271.460938 484.789062 272.035156 C 484.902344 272.609375 485.046875 273.175781 485.214844 273.734375 C 485.386719 274.296875 485.582031 274.84375 485.804688 275.386719 C 486.03125 275.925781 486.277344 276.453125 486.554688 276.96875 C 486.832031 277.484375 487.128906 277.988281 487.457031 278.472656 C 487.78125 278.957031 488.128906 279.429688 488.5 279.878906 C 488.871094 280.332031 489.261719 280.765625 489.675781 281.179688 C 490.089844 281.59375 490.523438 281.984375 490.976562 282.355469 C 491.425781 282.726562 491.894531 283.074219 492.382812 283.398438 C 492.867188 283.722656 493.371094 284.023438 493.886719 284.300781 C 494.402344 284.574219 494.929688 284.824219 495.46875 285.050781 C 496.007812 285.273438 496.558594 285.46875 497.117188 285.640625 C 497.679688 285.808594 498.246094 285.949219 498.820312 286.066406 C 499.390625 286.179688 499.96875 286.265625 500.550781 286.320312 C 501.132812 286.378906 501.71875 286.410156 502.300781 286.410156 C 502.886719 286.410156 503.46875 286.378906 504.050781 286.320312 C 504.632812 286.265625 505.210938 286.179688 505.785156 286.066406 C 506.359375 285.949219 506.925781 285.808594 507.484375 285.640625 C 508.046875 285.46875 508.59375 285.273438 509.136719 285.050781 C 509.675781 284.824219 510.203125 284.574219 510.71875 284.300781 C 511.234375 284.023438 511.734375 283.722656 512.222656 283.398438 C 512.707031 283.074219 513.179688 282.726562 513.628906 282.355469 C 514.082031 281.984375 514.515625 281.59375 514.929688 281.179688 C 515.339844 280.765625 515.734375 280.332031 516.105469 279.878906 C 516.476562 279.429688 516.824219 278.957031 517.148438 278.472656 C 517.472656 277.988281 517.773438 277.484375 518.050781 276.96875 C 518.324219 276.453125 518.574219 275.925781 518.800781 275.386719 C 519.023438 274.84375 519.21875 274.296875 519.390625 273.734375 C 519.558594 273.175781 519.699219 272.609375 519.816406 272.035156 C 519.929688 271.460938 520.015625 270.882812 520.070312 270.300781 C 520.128906 269.71875 520.15625 269.136719 520.15625 268.550781 L 520.15625 247.445312 L 558.65625 247.445312 C 560.050781 247.449219 561.445312 247.519531 562.835938 247.65625 C 564.226562 247.792969 565.605469 248 566.972656 248.273438 C 568.34375 248.546875 569.699219 248.886719 571.035156 249.292969 C 572.371094 249.699219 573.683594 250.167969 574.972656 250.703125 C 576.265625 251.238281 577.523438 251.835938 578.757812 252.496094 C 579.988281 253.152344 581.183594 253.871094 582.347656 254.648438 C 583.507812 255.421875 584.628906 256.253906 585.707031 257.140625 C 586.785156 258.027344 587.820312 258.964844 588.808594 259.953125 C 589.796875 260.9375 590.734375 261.972656 591.617188 263.050781 C 592.503906 264.132812 593.335938 265.253906 594.113281 266.414062 C 594.886719 267.574219 595.605469 268.769531 596.265625 270.003906 C 596.925781 271.234375 597.519531 272.496094 598.054688 273.785156 C 598.589844 275.074219 599.0625 276.390625 599.46875 277.726562 C 599.875 279.0625 600.214844 280.414062 600.488281 281.785156 C 600.761719 283.15625 600.964844 284.535156 601.105469 285.925781 C 601.242188 287.3125 601.3125 288.707031 601.3125 290.105469 L 601.3125 328.601562 L 208.484375 328.601562 L 208.484375 290.105469 C 208.488281 288.707031 208.554688 287.3125 208.695312 285.925781 C 208.832031 284.535156 209.039062 283.15625 209.3125 281.785156 C 209.585938 280.414062 209.925781 279.0625 210.332031 277.726562 C 210.738281 276.390625 211.207031 275.074219 211.742188 273.785156 C 212.277344 272.496094 212.875 271.234375 213.53125 270.003906 C 214.191406 268.769531 214.910156 267.574219 215.6875 266.414062 C 216.460938 265.253906 217.292969 264.132812 218.179688 263.050781 C 219.066406 261.972656 220.003906 260.9375 220.988281 259.953125 C 221.976562 258.964844 223.011719 258.027344 224.089844 257.140625 C 225.171875 256.253906 226.292969 255.421875 227.453125 254.648438 C 228.613281 253.871094 229.808594 253.152344 231.042969 252.496094 C 232.273438 251.835938 233.535156 251.238281 234.824219 250.703125 C 236.113281 250.167969 237.429688 249.699219 238.765625 249.292969 C 240.101562 248.886719 241.453125 248.546875 242.824219 248.273438 C 244.191406 248 245.574219 247.792969 246.964844 247.65625 C 248.351562 247.519531 249.746094 247.449219 251.144531 247.445312 Z M 558.65625 601.3125 L 251.144531 601.3125 C 249.746094 601.3125 248.351562 601.242188 246.964844 601.101562 C 245.574219 600.964844 244.195312 600.757812 242.824219 600.484375 C 241.457031 600.210938 240.101562 599.871094 238.765625 599.464844 C 237.429688 599.058594 236.117188 598.585938 234.828125 598.050781 C 233.535156 597.515625 232.277344 596.917969 231.046875 596.261719 C 229.8125 595.601562 228.617188 594.882812 227.457031 594.105469 C 226.296875 593.332031 225.175781 592.5 224.097656 591.613281 C 223.015625 590.726562 221.984375 589.789062 220.996094 588.804688 C 220.007812 587.816406 219.070312 586.78125 218.183594 585.703125 C 217.296875 584.621094 216.46875 583.503906 215.691406 582.339844 C 214.914062 581.179688 214.195312 579.984375 213.539062 578.753906 C 212.878906 577.523438 212.28125 576.261719 211.746094 574.972656 C 211.210938 573.679688 210.742188 572.367188 210.335938 571.03125 C 209.929688 569.695312 209.585938 568.34375 209.3125 566.972656 C 209.039062 565.605469 208.835938 564.222656 208.695312 562.835938 C 208.558594 561.445312 208.488281 560.050781 208.484375 558.65625 L 208.484375 364.3125 L 601.3125 364.3125 L 601.3125 558.65625 C 601.3125 560.050781 601.242188 561.445312 601.101562 562.835938 C 600.964844 564.222656 600.757812 565.605469 600.484375 566.972656 C 600.210938 568.34375 599.871094 569.695312 599.464844 571.03125 C 599.058594 572.367188 598.585938 573.679688 598.050781 574.972656 C 597.515625 576.261719 596.917969 577.523438 596.261719 578.753906 C 595.601562 579.984375 594.882812 581.179688 594.105469 582.339844 C 593.332031 583.503906 592.5 584.621094 591.613281 585.703125 C 590.726562 586.78125 589.789062 587.816406 588.804688 588.804688 C 587.816406 589.789062 586.78125 590.726562 585.703125 591.613281 C 584.621094 592.5 583.503906 593.332031 582.339844 594.105469 C 581.179688 594.882812 579.984375 595.601562 578.753906 596.261719 C 577.523438 596.917969 576.261719 597.515625 574.972656 598.050781 C 573.679688 598.585938 572.367188 599.058594 571.03125 599.464844 C 569.695312 599.871094 568.34375 600.210938 566.972656 600.484375 C 565.605469 600.757812 564.222656 600.964844 562.835938 601.101562 C 561.445312 601.242188 560.050781 601.3125 558.65625 601.3125 Z M 558.65625 601.3125 "/></g></g></svg>