<svg xmlns="http://www.w3.org/2000/svg" xmlns:xlink="http://www.w3.org/1999/xlink" width="1080" zoomAndPan="magnify" viewBox="0 0 810 809.999993" height="1080" preserveAspectRatio="xMidYMid meet" version="1.2"><defs><clipPath id="6156d65b1e"><path d="M 151 151 L 659 151 L 659 659 L 151 659 Z M 151 151 "/></clipPath><clipPath id="8aa0732874"><path d="M 658.125 405 C 658.125 409.140625 658.023438 413.28125 657.820312 417.421875 C 657.617188 421.558594 657.3125 425.6875 656.90625 429.8125 C 656.5 433.933594 655.992188 438.042969 655.386719 442.140625 C 654.777344 446.238281 654.070312 450.320312 653.261719 454.382812 C 652.453125 458.445312 651.546875 462.484375 650.539062 466.503906 C 649.53125 470.523438 648.429688 474.515625 647.226562 478.476562 C 646.023438 482.441406 644.722656 486.375 643.328125 490.273438 C 641.933594 494.175781 640.441406 498.039062 638.855469 501.867188 C 637.273438 505.695312 635.59375 509.480469 633.820312 513.226562 C 632.050781 516.96875 630.1875 520.667969 628.234375 524.324219 C 626.285156 527.976562 624.242188 531.578125 622.113281 535.132812 C 619.984375 538.683594 617.765625 542.183594 615.464844 545.628906 C 613.164062 549.074219 610.78125 552.457031 608.3125 555.785156 C 605.84375 559.113281 603.296875 562.378906 600.667969 565.582031 C 598.039062 568.78125 595.335938 571.917969 592.554688 574.988281 C 589.769531 578.058594 586.914062 581.058594 583.984375 583.984375 C 581.058594 586.914062 578.058594 589.769531 574.988281 592.554688 C 571.917969 595.335938 568.78125 598.039062 565.582031 600.667969 C 562.378906 603.296875 559.113281 605.84375 555.785156 608.3125 C 552.457031 610.78125 549.074219 613.164062 545.628906 615.464844 C 542.183594 617.765625 538.683594 619.984375 535.132812 622.113281 C 531.578125 624.242188 527.976562 626.285156 524.320312 628.234375 C 520.667969 630.1875 516.96875 632.050781 513.226562 633.820312 C 509.480469 635.59375 505.695312 637.273438 501.867188 638.855469 C 498.039062 640.441406 494.175781 641.933594 490.273438 643.328125 C 486.375 644.722656 482.441406 646.023438 478.476562 647.226562 C 474.515625 648.429688 470.523438 649.53125 466.503906 650.539062 C 462.484375 651.546875 458.445312 652.453125 454.382812 653.261719 C 450.320312 654.070312 446.238281 654.777344 442.140625 655.386719 C 438.042969 655.992188 433.933594 656.5 429.8125 656.90625 C 425.6875 657.3125 421.558594 657.617188 417.421875 657.820312 C 413.28125 658.023438 409.140625 658.125 405 658.125 C 400.855469 658.125 396.71875 658.023438 392.578125 657.820312 C 388.441406 657.617188 384.3125 657.3125 380.1875 656.90625 C 376.066406 656.5 371.957031 655.992188 367.859375 655.386719 C 363.761719 654.777344 359.679688 654.070312 355.617188 653.261719 C 351.554688 652.453125 347.515625 651.546875 343.496094 650.539062 C 339.476562 649.53125 335.484375 648.429688 331.523438 647.226562 C 327.558594 646.023438 323.625 644.722656 319.726562 643.328125 C 315.824219 641.933594 311.960938 640.441406 308.132812 638.855469 C 304.304688 637.273438 300.519531 635.59375 296.773438 633.820312 C 293.03125 632.050781 289.332031 630.1875 285.675781 628.234375 C 282.023438 626.285156 278.421875 624.242188 274.867188 622.113281 C 271.316406 619.984375 267.816406 617.765625 264.371094 615.464844 C 260.925781 613.164062 257.539062 610.78125 254.214844 608.3125 C 250.886719 605.84375 247.621094 603.296875 244.417969 600.667969 C 241.21875 598.039062 238.082031 595.335938 235.011719 592.554688 C 231.941406 589.769531 228.941406 586.914062 226.011719 583.984375 C 223.085938 581.058594 220.230469 578.058594 217.445312 574.988281 C 214.664062 571.917969 211.960938 568.78125 209.332031 565.582031 C 206.703125 562.378906 204.15625 559.113281 201.6875 555.785156 C 199.21875 552.457031 196.835938 549.074219 194.535156 545.628906 C 192.234375 542.183594 190.015625 538.683594 187.886719 535.132812 C 185.757812 531.578125 183.714844 527.976562 181.761719 524.320312 C 179.8125 520.667969 177.949219 516.96875 176.175781 513.226562 C 174.40625 509.480469 172.726562 505.695312 171.144531 501.867188 C 169.558594 498.039062 168.066406 494.175781 166.671875 490.273438 C 165.277344 486.375 163.976562 482.441406 162.773438 478.476562 C 161.570312 474.515625 160.46875 470.523438 159.460938 466.503906 C 158.453125 462.484375 157.546875 458.445312 156.738281 454.382812 C 155.929688 450.320312 155.222656 446.238281 154.613281 442.140625 C 154.007812 438.042969 153.5 433.933594 153.09375 429.8125 C 152.6875 425.6875 152.382812 421.558594 152.179688 417.421875 C 151.976562 413.28125 151.875 409.140625 151.875 405 C 151.875 400.855469 151.976562 396.71875 152.179688 392.578125 C 152.382812 388.441406 152.6875 384.3125 153.09375 380.1875 C 153.5 376.066406 154.007812 371.957031 154.613281 367.859375 C 155.222656 363.761719 155.929688 359.679688 156.738281 355.617188 C 157.546875 351.554688 158.453125 347.515625 159.460938 343.496094 C 160.46875 339.476562 161.570312 335.484375 162.773438 331.523438 C 163.976562 327.558594 165.277344 323.625 166.671875 319.726562 C 168.066406 315.824219 169.558594 311.960938 171.144531 308.132812 C 172.726562 304.304688 174.40625 300.519531 176.175781 296.773438 C 177.949219 293.03125 179.8125 289.332031 181.761719 285.675781 C 183.714844 282.023438 185.757812 278.421875 187.886719 274.867188 C 190.015625 271.316406 192.234375 267.816406 194.535156 264.371094 C 196.835938 260.925781 199.21875 257.539062 201.6875 254.214844 C 204.15625 250.886719 206.703125 247.621094 209.332031 244.417969 C 211.960938 241.21875 214.664062 238.082031 217.445312 235.011719 C 220.230469 231.941406 223.085938 228.941406 226.011719 226.011719 C 228.941406 223.085938 231.941406 220.230469 235.011719 217.445312 C 238.082031 214.664062 241.21875 211.960938 244.417969 209.332031 C 247.621094 206.703125 250.886719 204.15625 254.214844 201.6875 C 257.539062 199.21875 260.925781 196.835938 264.371094 194.535156 C 267.816406 192.234375 271.316406 190.015625 274.867188 187.886719 C 278.421875 185.757812 282.023438 183.714844 285.675781 181.765625 C 289.332031 179.8125 293.03125 177.949219 296.773438 176.175781 C 300.519531 174.40625 304.304688 172.726562 308.132812 171.144531 C 311.960938 169.558594 315.824219 168.066406 319.726562 166.671875 C 323.625 165.277344 327.558594 163.976562 331.523438 162.773438 C 335.484375 161.570312 339.476562 160.46875 343.496094 159.460938 C 347.515625 158.453125 351.554688 157.546875 355.617188 156.738281 C 359.679688 155.929688 363.761719 155.222656 367.859375 154.613281 C 371.957031 154.007812 376.066406 153.5 380.1875 153.09375 C 384.3125 152.6875 388.441406 152.382812 392.578125 152.179688 C 396.71875 151.976562 400.855469 151.875 405 151.875 C 409.140625 151.875 413.28125 151.976562 417.421875 152.179688 C 421.558594 152.382812 425.6875 152.6875 429.8125 153.09375 C 433.933594 153.5 438.042969 154.007812 442.140625 154.613281 C 446.238281 155.222656 450.320312 155.929688 454.382812 156.738281 C 458.445312 157.546875 462.484375 158.453125 466.503906 159.460938 C 470.523438 160.46875 474.515625 161.570312 478.476562 162.773438 C 482.441406 163.976562 486.375 165.277344 490.273438 166.671875 C 494.175781 168.066406 498.039062 169.558594 501.867188 171.144531 C 505.695312 172.726562 509.480469 174.40625 513.226562 176.175781 C 516.96875 177.949219 520.667969 179.8125 524.320312 181.765625 C 527.976562 183.714844 531.578125 185.757812 535.132812 187.886719 C 538.683594 190.015625 542.183594 192.234375 545.628906 194.535156 C 549.074219 196.835938 552.457031 199.21875 555.785156 201.6875 C 559.113281 204.15625 562.378906 206.703125 565.582031 209.332031 C 568.78125 211.960938 571.917969 214.664062 574.988281 217.445312 C 578.058594 220.230469 581.058594 223.085938 583.984375 226.011719 C 586.914062 228.941406 589.769531 231.941406 592.554688 235.011719 C 595.335938 238.082031 598.039062 241.21875 600.667969 244.417969 C 603.296875 247.621094 605.84375 250.886719 608.3125 254.214844 C 610.78125 257.539062 613.164062 260.925781 615.464844 264.371094 C 617.765625 267.816406 619.984375 271.316406 622.113281 274.867188 C 624.242188 278.421875 626.285156 282.023438 628.234375 285.675781 C 630.1875 289.332031 632.050781 293.03125 633.820312 296.773438 C 635.59375 300.519531 637.273438 304.304688 638.855469 308.132812 C 640.441406 311.960938 641.933594 315.824219 643.328125 319.726562 C 644.722656 323.625 646.023438 327.558594 647.226562 331.523438 C 648.429688 335.484375 649.53125 339.476562 650.539062 343.496094 C 651.546875 347.515625 652.453125 351.554688 653.261719 355.617188 C 654.070312 359.679688 654.777344 363.761719 655.386719 367.859375 C 655.992188 371.957031 656.5 376.066406 656.90625 380.1875 C 657.3125 384.3125 657.617188 388.441406 657.820312 392.578125 C 658.023438 396.71875 658.125 400.855469 658.125 405 Z M 658.125 405 "/></clipPath><linearGradient x1="95.999996" gradientTransform="matrix(1.582031,0,0,1.582031,0.0000035,0.00002)" y1="95.999996" x2="415.999984" gradientUnits="userSpaceOnUse" y2="415.999984" id="1062c282c5"><stop style="stop-color:#4f46e5;stop-opacity:1;" offset="0"/><stop style="stop-color:#4f47e5;stop-opacity:1;" offset="0.0078125"/><stop style="stop-color:#4e47e5;stop-opacity:1;" offset="0.015625"/><stop style="stop-color:#4e48e5;stop-opacity:1;" offset="0.0234375"/><stop style="stop-color:#4d49e5;stop-opacity:1;" offset="0.03125"/><stop style="stop-color:#4c4ae4;stop-opacity:1;" offset="0.0390625"/><stop style="stop-color:#4c4be4;stop-opacity:1;" offset="0.046875"/><stop style="stop-color:#4b4ce4;stop-opacity:1;" offset="0.0546875"/><stop style="stop-color:#4b4de4;stop-opacity:1;" offset="0.0625"/><stop style="stop-color:#4a4ee4;stop-opacity:1;" offset="0.0703125"/><stop style="stop-color:#4a4ee4;stop-opacity:1;" offset="0.078125"/><stop style="stop-color:#494fe4;stop-opacity:1;" offset="0.0859375"/><stop style="stop-color:#4850e3;stop-opacity:1;" offset="0.09375"/><stop style="stop-color:#4851e3;stop-opacity:1;" offset="0.101562"/><stop style="stop-color:#4752e3;stop-opacity:1;" offset="0.109375"/><stop style="stop-color:#4753e3;stop-opacity:1;" offset="0.117188"/><stop style="stop-color:#4654e3;stop-opacity:1;" offset="0.125"/><stop style="stop-color:#4655e3;stop-opacity:1;" offset="0.132812"/><stop style="stop-color:#4555e3;stop-opacity:1;" offset="0.140625"/><stop style="stop-color:#4556e3;stop-opacity:1;" offset="0.148438"/><stop style="stop-color:#4457e2;stop-opacity:1;" offset="0.15625"/><stop style="stop-color:#4358e2;stop-opacity:1;" offset="0.164062"/><stop style="stop-color:#4359e2;stop-opacity:1;" offset="0.171875"/><stop style="stop-color:#425ae2;stop-opacity:1;" offset="0.179688"/><stop style="stop-color:#425be2;stop-opacity:1;" offset="0.1875"/><stop style="stop-color:#415ce2;stop-opacity:1;" offset="0.195312"/><stop style="stop-color:#415ce2;stop-opacity:1;" offset="0.203125"/><stop style="stop-color:#405de1;stop-opacity:1;" offset="0.210938"/><stop style="stop-color:#3f5ee1;stop-opacity:1;" offset="0.21875"/><stop style="stop-color:#3f5fe1;stop-opacity:1;" offset="0.226562"/><stop style="stop-color:#3e60e1;stop-opacity:1;" offset="0.234375"/><stop style="stop-color:#3e61e1;stop-opacity:1;" offset="0.242188"/><stop style="stop-color:#3d62e1;stop-opacity:1;" offset="0.25"/><stop style="stop-color:#3d63e1;stop-opacity:1;" offset="0.257812"/><stop style="stop-color:#3c63e1;stop-opacity:1;" offset="0.265625"/><stop style="stop-color:#3b64e0;stop-opacity:1;" offset="0.273438"/><stop style="stop-color:#3b65e0;stop-opacity:1;" offset="0.28125"/><stop style="stop-color:#3a66e0;stop-opacity:1;" offset="0.289062"/><stop style="stop-color:#3a67e0;stop-opacity:1;" offset="0.296875"/><stop style="stop-color:#3968e0;stop-opacity:1;" offset="0.304688"/><stop style="stop-color:#3969e0;stop-opacity:1;" offset="0.3125"/><stop style="stop-color:#386ae0;stop-opacity:1;" offset="0.320312"/><stop style="stop-color:#376adf;stop-opacity:1;" offset="0.328125"/><stop style="stop-color:#376bdf;stop-opacity:1;" offset="0.335938"/><stop style="stop-color:#366cdf;stop-opacity:1;" offset="0.34375"/><stop style="stop-color:#366ddf;stop-opacity:1;" offset="0.351562"/><stop style="stop-color:#356edf;stop-opacity:1;" offset="0.359375"/><stop style="stop-color:#356fdf;stop-opacity:1;" offset="0.367188"/><stop style="stop-color:#3470df;stop-opacity:1;" offset="0.375"/><stop style="stop-color:#3371df;stop-opacity:1;" offset="0.382812"/><stop style="stop-color:#3371de;stop-opacity:1;" offset="0.390625"/><stop style="stop-color:#3272de;stop-opacity:1;" offset="0.398438"/><stop style="stop-color:#3273de;stop-opacity:1;" offset="0.40625"/><stop style="stop-color:#3174de;stop-opacity:1;" offset="0.414062"/><stop style="stop-color:#3175de;stop-opacity:1;" offset="0.421875"/><stop style="stop-color:#3076de;stop-opacity:1;" offset="0.429688"/><stop style="stop-color:#2f77de;stop-opacity:1;" offset="0.4375"/><stop style="stop-color:#2f78dd;stop-opacity:1;" offset="0.445312"/><stop style="stop-color:#2e78dd;stop-opacity:1;" offset="0.453125"/><stop style="stop-color:#2e79dd;stop-opacity:1;" offset="0.460938"/><stop style="stop-color:#2d7add;stop-opacity:1;" offset="0.46875"/><stop style="stop-color:#2d7bdd;stop-opacity:1;" offset="0.476562"/><stop style="stop-color:#2c7cdd;stop-opacity:1;" offset="0.484375"/><stop style="stop-color:#2b7ddd;stop-opacity:1;" offset="0.492188"/><stop style="stop-color:#2b7edd;stop-opacity:1;" offset="0.5"/><stop style="stop-color:#2a7fdc;stop-opacity:1;" offset="0.507812"/><stop style="stop-color:#2a7fdc;stop-opacity:1;" offset="0.515625"/><stop style="stop-color:#2980dc;stop-opacity:1;" offset="0.523438"/><stop style="stop-color:#2981dc;stop-opacity:1;" offset="0.53125"/><stop style="stop-color:#2882dc;stop-opacity:1;" offset="0.539062"/><stop style="stop-color:#2783dc;stop-opacity:1;" offset="0.546875"/><stop style="stop-color:#2784dc;stop-opacity:1;" offset="0.554688"/><stop style="stop-color:#2685db;stop-opacity:1;" offset="0.5625"/><stop style="stop-color:#2686db;stop-opacity:1;" offset="0.570312"/><stop style="stop-color:#2586db;stop-opacity:1;" offset="0.578125"/><stop style="stop-color:#2587db;stop-opacity:1;" offset="0.585938"/><stop style="stop-color:#2488db;stop-opacity:1;" offset="0.59375"/><stop style="stop-color:#2389db;stop-opacity:1;" offset="0.601562"/><stop style="stop-color:#238adb;stop-opacity:1;" offset="0.609375"/><stop style="stop-color:#228bdb;stop-opacity:1;" offset="0.617188"/><stop style="stop-color:#228cda;stop-opacity:1;" offset="0.625"/><stop style="stop-color:#218dda;stop-opacity:1;" offset="0.632812"/><stop style="stop-color:#218dda;stop-opacity:1;" offset="0.640625"/><stop style="stop-color:#208eda;stop-opacity:1;" offset="0.648438"/><stop style="stop-color:#1f8fda;stop-opacity:1;" offset="0.65625"/><stop style="stop-color:#1f90da;stop-opacity:1;" offset="0.664062"/><stop style="stop-color:#1e91da;stop-opacity:1;" offset="0.671875"/><stop style="stop-color:#1e92d9;stop-opacity:1;" offset="0.679688"/><stop style="stop-color:#1d93d9;stop-opacity:1;" offset="0.6875"/><stop style="stop-color:#1d94d9;stop-opacity:1;" offset="0.695312"/><stop style="stop-color:#1c94d9;stop-opacity:1;" offset="0.703125"/><stop style="stop-color:#1b95d9;stop-opacity:1;" offset="0.710938"/><stop style="stop-color:#1b96d9;stop-opacity:1;" offset="0.71875"/><stop style="stop-color:#1a97d9;stop-opacity:1;" offset="0.726562"/><stop style="stop-color:#1a98d9;stop-opacity:1;" offset="0.734375"/><stop style="stop-color:#1999d8;stop-opacity:1;" offset="0.742188"/><stop style="stop-color:#199ad8;stop-opacity:1;" offset="0.75"/><stop style="stop-color:#189bd8;stop-opacity:1;" offset="0.757812"/><stop style="stop-color:#179bd8;stop-opacity:1;" offset="0.765625"/><stop style="stop-color:#179cd8;stop-opacity:1;" offset="0.773438"/><stop style="stop-color:#169dd8;stop-opacity:1;" offset="0.78125"/><stop style="stop-color:#169ed8;stop-opacity:1;" offset="0.789062"/><stop style="stop-color:#159fd7;stop-opacity:1;" offset="0.796875"/><stop style="stop-color:#15a0d7;stop-opacity:1;" offset="0.804688"/><stop style="stop-color:#14a1d7;stop-opacity:1;" offset="0.8125"/><stop style="stop-color:#14a2d7;stop-opacity:1;" offset="0.820312"/><stop style="stop-color:#13a2d7;stop-opacity:1;" offset="0.828125"/><stop style="stop-color:#12a3d7;stop-opacity:1;" offset="0.835938"/><stop style="stop-color:#12a4d7;stop-opacity:1;" offset="0.84375"/><stop style="stop-color:#11a5d7;stop-opacity:1;" offset="0.851562"/><stop style="stop-color:#11a6d6;stop-opacity:1;" offset="0.859375"/><stop style="stop-color:#10a7d6;stop-opacity:1;" offset="0.867188"/><stop style="stop-color:#10a8d6;stop-opacity:1;" offset="0.875"/><stop style="stop-color:#0fa9d6;stop-opacity:1;" offset="0.882812"/><stop style="stop-color:#0ea9d6;stop-opacity:1;" offset="0.890625"/><stop style="stop-color:#0eaad6;stop-opacity:1;" offset="0.898438"/><stop style="stop-color:#0dabd6;stop-opacity:1;" offset="0.90625"/><stop style="stop-color:#0dacd5;stop-opacity:1;" offset="0.914062"/><stop style="stop-color:#0cadd5;stop-opacity:1;" offset="0.921875"/><stop style="stop-color:#0caed5;stop-opacity:1;" offset="0.929688"/><stop style="stop-color:#0bafd5;stop-opacity:1;" offset="0.9375"/><stop style="stop-color:#0ab0d5;stop-opacity:1;" offset="0.945312"/><stop style="stop-color:#0ab0d5;stop-opacity:1;" offset="0.953125"/><stop style="stop-color:#09b1d5;stop-opacity:1;" offset="0.960938"/><stop style="stop-color:#09b2d5;stop-opacity:1;" offset="0.96875"/><stop style="stop-color:#08b3d4;stop-opacity:1;" offset="0.976562"/><stop style="stop-color:#08b4d4;stop-opacity:1;" offset="0.984375"/><stop style="stop-color:#07b5d4;stop-opacity:1;" offset="0.992188"/><stop style="stop-color:#06b6d4;stop-opacity:1;" offset="1"/></linearGradient><clipPath id="f643157273"><path d="M 109.929688 109.929688 L 700.070312 109.929688 L 700.070312 700.070312 L 109.929688 700.070312 Z M 109.929688 109.929688 "/></clipPath></defs><g id="a0f5590413"><path style=" stroke:none;fill-rule:nonzero;fill:#1a1b1e;fill-opacity:1;" d="M 202.5 0 L 607.5 0 C 610.8125 0 614.125 0.0820312 617.4375 0.242188 C 620.746094 0.40625 624.050781 0.648438 627.347656 0.976562 C 630.648438 1.300781 633.933594 1.707031 637.210938 2.191406 C 640.492188 2.679688 643.753906 3.246094 647.003906 3.890625 C 650.257812 4.539062 653.488281 5.261719 656.703125 6.070312 C 659.917969 6.875 663.109375 7.757812 666.28125 8.71875 C 669.453125 9.679688 672.601562 10.722656 675.71875 11.835938 C 678.839844 12.953125 681.929688 14.144531 684.992188 15.414062 C 688.054688 16.683594 691.082031 18.023438 694.078125 19.441406 C 697.074219 20.859375 700.035156 22.347656 702.957031 23.910156 C 705.878906 25.472656 708.761719 27.105469 711.605469 28.808594 C 714.449219 30.515625 717.246094 32.285156 720.003906 34.128906 C 722.757812 35.96875 725.46875 37.875 728.128906 39.851562 C 730.789062 41.824219 733.402344 43.863281 735.964844 45.964844 C 738.527344 48.066406 741.035156 50.230469 743.492188 52.457031 C 745.945312 54.683594 748.34375 56.96875 750.6875 59.3125 C 753.03125 61.652344 755.316406 64.054688 757.542969 66.507812 C 759.769531 68.964844 761.933594 71.472656 764.035156 74.035156 C 766.136719 76.597656 768.175781 79.210938 770.148438 81.871094 C 772.125 84.53125 774.03125 87.242188 775.871094 89.996094 C 777.714844 92.753906 779.484375 95.550781 781.191406 98.394531 C 782.894531 101.238281 784.527344 104.121094 786.089844 107.042969 C 787.652344 109.964844 789.140625 112.925781 790.558594 115.921875 C 791.976562 118.914062 793.316406 121.945312 794.585938 125.007812 C 795.855469 128.070312 797.046875 131.160156 798.164062 134.28125 C 799.277344 137.398438 800.316406 140.546875 801.28125 143.71875 C 802.242188 146.890625 803.125 150.082031 803.929688 153.296875 C 804.738281 156.511719 805.460938 159.742188 806.109375 162.996094 C 806.753906 166.246094 807.320312 169.507812 807.808594 172.785156 C 808.292969 176.066406 808.699219 179.351562 809.023438 182.652344 C 809.351562 185.949219 809.59375 189.253906 809.757812 192.5625 C 809.917969 195.875 810 199.1875 810 202.5 L 810 607.5 C 810 610.8125 809.917969 614.125 809.757812 617.4375 C 809.59375 620.746094 809.351562 624.050781 809.023438 627.347656 C 808.699219 630.648438 808.292969 633.933594 807.808594 637.210938 C 807.320312 640.492188 806.753906 643.753906 806.109375 647.003906 C 805.460938 650.257812 804.738281 653.488281 803.929688 656.703125 C 803.125 659.917969 802.242188 663.109375 801.28125 666.28125 C 800.316406 669.453125 799.277344 672.601562 798.164062 675.71875 C 797.046875 678.839844 795.855469 681.929688 794.585938 684.992188 C 793.316406 688.054688 791.976562 691.082031 790.558594 694.078125 C 789.140625 697.074219 787.652344 700.035156 786.089844 702.957031 C 784.527344 705.878906 782.894531 708.761719 781.191406 711.605469 C 779.484375 714.449219 777.714844 717.246094 775.871094 720.003906 C 774.03125 722.757812 772.125 725.46875 770.148438 728.128906 C 768.175781 730.789062 766.136719 733.402344 764.035156 735.964844 C 761.933594 738.527344 759.769531 741.035156 757.542969 743.492188 C 755.316406 745.945312 753.03125 748.34375 750.6875 750.6875 C 748.34375 753.03125 745.945312 755.316406 743.492188 757.542969 C 741.035156 759.769531 738.527344 761.933594 735.964844 764.035156 C 733.402344 766.136719 730.789062 768.175781 728.128906 770.148438 C 725.46875 772.125 722.757812 774.03125 720.003906 775.871094 C 717.246094 777.714844 714.449219 779.484375 711.605469 781.191406 C 708.761719 782.894531 705.878906 784.527344 702.957031 786.089844 C 700.035156 787.652344 697.074219 789.140625 694.078125 790.558594 C 691.082031 791.976562 688.054688 793.316406 684.992188 794.585938 C 681.929688 795.855469 678.839844 797.046875 675.71875 798.164062 C 672.601562 799.277344 669.453125 800.316406 666.28125 801.28125 C 663.109375 802.242188 659.917969 803.125 656.703125 803.929688 C 653.488281 804.738281 650.257812 805.460938 647.003906 806.109375 C 643.753906 806.753906 640.492188 807.320312 637.210938 807.808594 C 633.933594 808.292969 630.648438 808.699219 627.347656 809.023438 C 624.050781 809.351562 620.746094 809.59375 617.4375 809.757812 C 614.125 809.917969 610.8125 810 607.5 810 L 202.5 810 C 199.1875 810 195.875 809.917969 192.5625 809.757812 C 189.253906 809.59375 185.949219 809.351562 182.652344 809.023438 C 179.351562 808.699219 176.066406 808.292969 172.785156 807.808594 C 169.507812 807.320312 166.246094 806.753906 162.996094 806.109375 C 159.742188 805.460938 156.511719 804.738281 153.296875 803.929688 C 150.082031 803.125 146.890625 802.242188 143.71875 801.28125 C 140.546875 800.316406 137.398438 799.277344 134.28125 798.164062 C 131.160156 797.046875 128.070312 795.855469 125.007812 794.585938 C 121.945312 793.316406 118.914062 791.976562 115.921875 790.558594 C 112.925781 789.140625 109.964844 787.652344 107.042969 786.089844 C 104.121094 784.527344 101.238281 782.894531 98.394531 781.191406 C 95.550781 779.484375 92.753906 777.714844 89.996094 775.871094 C 87.242188 774.03125 84.53125 772.125 81.871094 770.148438 C 79.210938 768.175781 76.597656 766.136719 74.035156 764.035156 C 71.472656 761.933594 68.964844 759.769531 66.507812 757.542969 C 64.054688 755.316406 61.652344 753.03125 59.3125 750.6875 C 56.96875 748.34375 54.683594 745.945312 52.457031 743.492188 C 50.230469 741.035156 48.066406 738.527344 45.964844 735.964844 C 43.863281 733.402344 41.824219 730.789062 39.851562 728.128906 C 37.875 725.46875 35.96875 722.757812 34.128906 720.003906 C 32.285156 717.246094 30.515625 714.449219 28.808594 711.605469 C 27.105469 708.761719 25.472656 705.878906 23.910156 702.957031 C 22.347656 700.035156 20.859375 697.074219 19.441406 694.078125 C 18.023438 691.082031 16.683594 688.054688 15.414062 684.992188 C 14.144531 681.929688 12.953125 678.839844 11.835938 675.71875 C 10.722656 672.601562 9.679688 669.453125 8.71875 666.28125 C 7.757812 663.109375 6.875 659.917969 6.070312 656.703125 C 5.261719 653.488281 4.539062 650.257812 3.890625 647.003906 C 3.246094 643.753906 2.679688 640.492188 2.191406 637.210938 C 1.707031 633.933594 1.300781 630.648438 0.976562 627.347656 C 0.648438 624.050781 0.40625 620.746094 0.242188 617.4375 C 0.0820312 614.125 0 610.8125 0 607.5 L 0 202.5 C 0 199.1875 0.0820312 195.875 0.242188 192.5625 C 0.40625 189.253906 0.648438 185.949219 0.976562 182.652344 C 1.300781 179.351562 1.707031 176.066406 2.191406 172.785156 C 2.679688 169.507812 3.246094 166.246094 3.890625 162.996094 C 4.539062 159.742188 5.261719 156.511719 6.070312 153.296875 C 6.875 150.082031 7.757812 146.890625 8.71875 143.71875 C 9.679688 140.546875 10.722656 137.398438 11.835938 134.28125 C 12.953125 131.160156 14.144531 128.070312 15.414062 125.007812 C 16.683594 121.945312 18.023438 118.914062 19.441406 115.921875 C 20.859375 112.925781 22.347656 109.964844 23.910156 107.042969 C 25.472656 104.121094 27.105469 101.238281 28.808594 98.394531 C 30.515625 95.550781 32.285156 92.753906 34.128906 89.996094 C 35.96875 87.242188 37.875 84.53125 39.851562 81.871094 C 41.824219 79.210938 43.863281 76.597656 45.964844 74.035156 C 48.066406 71.472656 50.230469 68.964844 52.457031 66.507812 C 54.683594 64.054688 56.96875 61.652344 59.3125 59.3125 C 61.652344 56.96875 64.054688 54.683594 66.507812 52.457031 C 68.964844 50.230469 71.472656 48.066406 74.035156 45.964844 C 76.597656 43.863281 79.210938 41.824219 81.871094 39.851562 C 84.53125 37.875 87.242188 35.96875 89.996094 34.128906 C 92.753906 32.285156 95.550781 30.515625 98.394531 28.808594 C 101.238281 27.105469 104.121094 25.472656 107.042969 23.910156 C 109.964844 22.347656 112.925781 20.859375 115.921875 19.441406 C 118.914062 18.023438 121.945312 16.683594 125.007812 15.414062 C 128.070312 14.144531 131.160156 12.953125 134.28125 11.835938 C 137.398438 10.722656 140.546875 9.679688 143.71875 8.71875 C 146.890625 7.757812 150.082031 6.875 153.296875 6.070312 C 156.511719 5.261719 159.742188 4.539062 162.996094 3.890625 C 166.246094 3.246094 169.507812 2.679688 172.785156 2.191406 C 176.066406 1.707031 179.351562 1.300781 182.652344 0.976562 C 185.949219 0.648438 189.253906 0.40625 192.5625 0.242188 C 195.875 0.0820312 199.1875 0 202.5 0 Z M 202.5 0 "/><g clip-rule="nonzero" clip-path="url(#6156d65b1e)"><g clip-rule="nonzero" clip-path="url(#8aa0732874)"><path style=" stroke:none;fill-rule:nonzero;fill:url(#linear0);" d="M 151.875 151.875 L 151.875 658.125 L 658.125 658.125 L 658.125 151.875 Z M 151.875 151.875 "/></g></g><path style=" stroke:none;fill-rule:nonzero;fill:#1a1b1e;fill-opacity:1;" d="M 405 246.796875 C 318.351562 246.796875 246.796875 318.351562 246.796875 405 C 246.796875 491.648438 318.351562 563.203125 405 563.203125 C 491.648438 563.203125 563.203125 491.648438 563.203125 405 C 563.203125 318.351562 491.648438 246.796875 405 246.796875 Z M 405 515.742188 C 344.804688 515.742188 294.257812 465.195312 294.257812 405 C 294.257812 344.804688 344.804688 294.257812 405 294.257812 C 465.195312 294.257812 515.742188 344.804688 515.742188 405 C 515.742188 465.195312 465.195312 515.742188 405 515.742188 Z M 405 515.742188 "/><g clip-rule="nonzero" clip-path="url(#f643157273)"><path style=" stroke:none;fill-rule:nonzero;fill:#1a1b1e;fill-opacity:1;" d="M 109.929688 109.929688 L 700.070312 109.929688 L 700.070312 700.070312 L 109.929688 700.070312 Z M 109.929688 109.929688 "/></g><path style=" stroke:none;fill-rule:nonzero;fill:#5a59f1;fill-opacity:1;" d="M 656.257812 625.589844 L 624.015625 531.277344 C 625.628906 528.445312 627.160156 525.574219 628.609375 522.660156 C 630.058594 519.742188 631.429688 516.789062 632.714844 513.796875 C 634 510.804688 635.199219 507.78125 636.316406 504.71875 C 637.429688 501.660156 638.460938 498.574219 639.40625 495.457031 C 640.347656 492.339844 641.203125 489.199219 641.96875 486.035156 C 642.738281 482.871094 643.414062 479.683594 644.003906 476.484375 C 644.59375 473.28125 645.09375 470.0625 645.503906 466.832031 C 645.914062 463.601562 646.230469 460.363281 646.457031 457.113281 C 646.6875 453.867188 646.824219 450.613281 646.871094 447.359375 C 646.914062 444.101562 646.871094 440.847656 646.734375 437.59375 C 646.597656 434.339844 646.371094 431.09375 646.050781 427.851562 C 645.734375 424.609375 645.328125 421.382812 644.828125 418.164062 C 644.328125 414.945312 643.742188 411.742188 643.0625 408.558594 C 642.382812 405.375 641.617188 402.210938 640.761719 399.066406 C 639.910156 395.925781 638.964844 392.808594 637.9375 389.71875 C 636.90625 386.628906 635.792969 383.570312 634.59375 380.542969 C 633.390625 377.519531 632.109375 374.527344 630.738281 371.570312 C 629.371094 368.617188 627.921875 365.703125 626.390625 362.828125 C 624.859375 359.953125 623.25 357.125 621.5625 354.339844 C 619.871094 351.554688 618.105469 348.820312 616.261719 346.136719 C 614.421875 343.453125 612.503906 340.820312 610.515625 338.242188 C 608.527344 335.664062 606.464844 333.144531 604.335938 330.679688 C 602.203125 328.21875 600.007812 325.816406 597.742188 323.476562 C 595.476562 321.136719 593.148438 318.863281 590.753906 316.65625 C 588.363281 314.445312 585.910156 312.304688 583.398438 310.230469 C 580.886719 308.160156 578.316406 306.160156 575.695312 304.230469 C 573.070312 302.304688 570.394531 300.449219 567.667969 298.671875 C 564.9375 296.894531 562.164062 295.191406 559.339844 293.570312 C 556.515625 291.945312 553.652344 290.402344 550.742188 288.941406 C 547.832031 287.476562 544.882812 286.097656 541.898438 284.796875 C 538.910156 283.5 535.890625 282.289062 532.835938 281.160156 C 529.78125 280.03125 526.699219 278.988281 523.585938 278.03125 C 525.304688 281.808594 526.90625 285.640625 528.390625 289.515625 C 529.871094 293.394531 531.234375 297.316406 532.476562 301.277344 C 533.71875 305.238281 534.835938 309.234375 535.832031 313.265625 C 536.828125 317.296875 537.699219 321.355469 538.445312 325.441406 C 539.191406 329.523438 539.808594 333.628906 540.300781 337.75 C 540.796875 341.875 541.160156 346.007812 541.398438 350.152344 C 541.636719 354.296875 541.746094 358.445312 541.730469 362.597656 C 541.710938 366.75 541.566406 370.898438 541.292969 375.042969 C 541.019531 379.183594 540.621094 383.316406 540.09375 387.433594 C 539.566406 391.550781 538.910156 395.648438 538.132812 399.726562 C 537.351562 403.804688 536.445312 407.855469 535.417969 411.878906 C 534.386719 415.902344 533.234375 419.886719 531.957031 423.839844 C 530.683594 427.792969 529.289062 431.699219 527.769531 435.566406 C 526.253906 439.429688 524.621094 443.246094 522.871094 447.011719 C 521.117188 450.773438 519.253906 454.480469 517.273438 458.132812 C 515.292969 461.78125 513.203125 465.367188 511.003906 468.886719 C 508.800781 472.410156 506.496094 475.859375 504.082031 479.238281 C 501.667969 482.617188 499.15625 485.917969 496.539062 489.140625 C 493.921875 492.367188 491.207031 495.503906 488.398438 498.5625 C 485.585938 501.617188 482.6875 504.585938 479.691406 507.464844 C 476.699219 510.34375 473.621094 513.125 470.457031 515.8125 C 467.292969 518.5 464.046875 521.089844 460.726562 523.578125 C 457.402344 526.066406 454.003906 528.449219 450.53125 530.730469 C 447.0625 533.007812 443.523438 535.179688 439.921875 537.238281 C 436.316406 539.300781 432.652344 541.246094 428.925781 543.082031 C 425.203125 544.917969 421.425781 546.636719 417.59375 548.238281 C 413.765625 549.84375 409.886719 551.324219 405.964844 552.6875 C 402.042969 554.050781 398.085938 555.292969 394.085938 556.414062 C 390.089844 557.535156 386.058594 558.527344 382 559.402344 C 377.941406 560.273438 373.855469 561.015625 369.75 561.636719 C 365.644531 562.257812 361.523438 562.75 357.390625 563.117188 C 353.253906 563.480469 349.109375 563.71875 344.960938 563.832031 C 346.597656 565.582031 348.269531 567.300781 349.980469 568.980469 C 351.6875 570.664062 353.429688 572.308594 355.207031 573.921875 C 356.984375 575.53125 358.792969 577.105469 360.632812 578.640625 C 362.476562 580.175781 364.347656 581.675781 366.25 583.132812 C 368.152344 584.59375 370.085938 586.011719 372.046875 587.390625 C 374.007812 588.769531 376 590.109375 378.015625 591.40625 C 380.03125 592.703125 382.074219 593.957031 384.140625 595.171875 C 386.210938 596.382812 388.304688 597.554688 390.421875 598.679688 C 392.535156 599.808594 394.675781 600.890625 396.835938 601.929688 C 399 602.96875 401.179688 603.960938 403.382812 604.910156 C 405.585938 605.859375 407.804688 606.761719 410.042969 607.621094 C 412.285156 608.476562 414.539062 609.289062 416.8125 610.050781 C 419.085938 610.816406 421.375 611.535156 423.675781 612.203125 C 425.976562 612.875 428.292969 613.496094 430.621094 614.070312 C 432.949219 614.644531 435.289062 615.171875 437.636719 615.648438 C 439.988281 616.128906 442.347656 616.558594 444.714844 616.9375 C 447.082031 617.320312 449.457031 617.652344 451.835938 617.933594 C 454.21875 618.21875 456.605469 618.453125 458.996094 618.636719 C 461.386719 618.824219 463.777344 618.957031 466.175781 619.042969 C 468.570312 619.128906 470.96875 619.167969 473.367188 619.15625 C 475.765625 619.140625 478.160156 619.082031 480.554688 618.96875 C 482.953125 618.859375 485.34375 618.695312 487.730469 618.488281 C 490.121094 618.277344 492.503906 618.019531 494.882812 617.710938 C 497.261719 617.402344 499.632812 617.046875 501.996094 616.640625 C 504.359375 616.234375 506.710938 615.777344 509.054688 615.277344 C 511.402344 614.773438 513.734375 614.222656 516.054688 613.625 C 518.378906 613.023438 520.6875 612.378906 522.980469 611.683594 C 525.277344 610.988281 527.558594 610.25 529.820312 609.460938 C 532.085938 608.671875 534.335938 607.839844 536.5625 606.957031 C 538.792969 606.078125 541.007812 605.152344 543.199219 604.179688 C 545.390625 603.207031 547.5625 602.191406 549.710938 601.128906 C 551.863281 600.066406 553.988281 598.964844 556.09375 597.8125 L 647.996094 633.539062 C 648.558594 633.753906 649.136719 633.882812 649.738281 633.929688 C 650.335938 633.980469 650.929688 633.945312 651.515625 633.824219 C 652.105469 633.703125 652.664062 633.503906 653.199219 633.222656 C 653.730469 632.945312 654.210938 632.597656 654.644531 632.179688 C 655.078125 631.765625 655.441406 631.296875 655.742188 630.773438 C 656.042969 630.253906 656.265625 629.703125 656.40625 629.121094 C 656.550781 628.535156 656.609375 627.945312 656.582031 627.34375 C 656.558594 626.746094 656.449219 626.160156 656.257812 625.589844 Z M 656.257812 625.589844 "/><path style=" stroke:none;fill-rule:nonzero;fill:#5a59f1;fill-opacity:1;" d="M 513.847656 361.582031 C 513.835938 358.246094 513.726562 354.910156 513.523438 351.578125 C 513.320312 348.246094 513.019531 344.921875 512.625 341.605469 C 512.226562 338.292969 511.738281 334.992188 511.152344 331.703125 C 510.566406 328.417969 509.886719 325.152344 509.113281 321.902344 C 508.339844 318.65625 507.476562 315.433594 506.515625 312.234375 C 505.558594 309.039062 504.507812 305.871094 503.367188 302.734375 C 502.226562 299.59375 500.996094 296.492188 499.675781 293.425781 C 498.359375 290.359375 496.953125 287.332031 495.460938 284.347656 C 493.964844 281.363281 492.386719 278.421875 490.726562 275.527344 C 489.0625 272.632812 487.320312 269.785156 485.492188 266.992188 C 483.667969 264.195312 481.761719 261.457031 479.78125 258.773438 C 477.796875 256.085938 475.738281 253.460938 473.601562 250.894531 C 471.46875 248.328125 469.261719 245.824219 466.984375 243.382812 C 464.707031 240.941406 462.359375 238.570312 459.945312 236.265625 C 457.53125 233.960938 455.050781 231.726562 452.507812 229.5625 C 449.964844 227.402344 447.359375 225.3125 444.699219 223.300781 C 442.035156 221.289062 439.316406 219.355469 436.539062 217.496094 C 433.765625 215.640625 430.941406 213.867188 428.0625 212.171875 C 425.1875 210.476562 422.265625 208.867188 419.296875 207.34375 C 416.324219 205.816406 413.316406 204.375 410.261719 203.023438 C 407.210938 201.671875 404.125 200.40625 401 199.230469 C 397.875 198.058594 394.71875 196.972656 391.53125 195.980469 C 388.34375 194.984375 385.132812 194.085938 381.890625 193.273438 C 378.652344 192.464844 375.394531 191.75 372.113281 191.128906 C 368.832031 190.507812 365.539062 189.980469 362.226562 189.550781 C 358.917969 189.117188 355.597656 188.78125 352.269531 188.539062 C 348.9375 188.296875 345.605469 188.152344 342.265625 188.105469 C 338.929688 188.054688 335.59375 188.101562 332.257812 188.242188 C 328.921875 188.386719 325.59375 188.625 322.273438 188.957031 C 318.949219 189.292969 315.640625 189.722656 312.34375 190.246094 C 309.046875 190.769531 305.769531 191.386719 302.507812 192.101562 C 299.246094 192.8125 296.007812 193.621094 292.792969 194.519531 C 289.578125 195.417969 286.390625 196.40625 283.234375 197.492188 C 280.074219 198.574219 276.949219 199.746094 273.859375 201.007812 C 270.769531 202.269531 267.71875 203.617188 264.703125 205.054688 C 261.691406 206.492188 258.722656 208.015625 255.796875 209.625 C 252.871094 211.230469 249.992188 212.921875 247.164062 214.695312 C 244.335938 216.46875 241.5625 218.324219 238.839844 220.257812 C 236.117188 222.1875 233.453125 224.199219 230.847656 226.285156 C 228.242188 228.371094 225.699219 230.53125 223.21875 232.765625 C 220.734375 234.996094 218.320312 237.296875 215.96875 239.671875 C 213.621094 242.042969 211.339844 244.480469 209.132812 246.980469 C 206.921875 249.484375 204.785156 252.046875 202.722656 254.671875 C 200.664062 257.300781 198.675781 259.980469 196.769531 262.722656 C 194.863281 265.460938 193.035156 268.253906 191.289062 271.097656 C 189.539062 273.941406 187.875 276.835938 186.296875 279.773438 C 184.714844 282.714844 183.21875 285.699219 181.808594 288.726562 C 180.402344 291.75 179.082031 294.816406 177.847656 297.917969 C 176.613281 301.019531 175.472656 304.15625 174.417969 307.324219 C 173.367188 310.492188 172.40625 313.6875 171.535156 316.910156 C 170.667969 320.132812 169.890625 323.378906 169.207031 326.648438 C 168.527344 329.914062 167.9375 333.199219 167.445312 336.5 C 166.953125 339.800781 166.554688 343.117188 166.25 346.441406 C 165.949219 349.765625 165.742188 353.09375 165.628906 356.433594 C 165.519531 359.769531 165.503906 363.105469 165.582031 366.441406 C 165.664062 369.78125 165.839844 373.113281 166.113281 376.441406 C 166.382812 379.765625 166.75 383.082031 167.214844 386.390625 C 167.675781 389.695312 168.234375 392.984375 168.886719 396.261719 C 169.539062 399.535156 170.285156 402.785156 171.121094 406.019531 C 171.960938 409.25 172.894531 412.453125 173.917969 415.632812 C 174.941406 418.808594 176.054688 421.953125 177.257812 425.066406 C 178.460938 428.179688 179.753906 431.257812 181.136719 434.296875 C 182.515625 437.335938 183.984375 440.332031 185.539062 443.289062 C 187.089844 446.242188 188.726562 449.152344 190.449219 452.011719 L 179.328125 484.609375 L 161.46875 537.035156 C 161.277344 537.605469 161.167969 538.191406 161.140625 538.789062 C 161.117188 539.390625 161.175781 539.984375 161.320312 540.566406 C 161.460938 541.148438 161.683594 541.703125 161.984375 542.222656 C 162.28125 542.742188 162.648438 543.210938 163.082031 543.628906 C 163.515625 544.042969 163.996094 544.390625 164.527344 544.671875 C 165.058594 544.949219 165.621094 545.148438 166.207031 545.269531 C 166.796875 545.390625 167.390625 545.425781 167.988281 545.378906 C 168.585938 545.328125 169.167969 545.199219 169.726562 544.984375 L 220.859375 525.113281 L 252.519531 512.789062 C 263.402344 519.070312 274.828125 524.117188 286.800781 527.929688 C 298.773438 531.738281 311.015625 534.222656 323.523438 535.382812 C 328.839844 535.832031 334.242188 536.097656 339.691406 536.097656 C 342.542969 536.097656 345.394531 536.027344 348.246094 535.890625 C 351.097656 535.75 353.941406 535.539062 356.78125 535.257812 C 359.625 534.976562 362.453125 534.628906 365.277344 534.210938 C 368.101562 533.789062 370.910156 533.300781 373.710938 532.746094 C 376.507812 532.1875 379.292969 531.5625 382.0625 530.867188 C 384.828125 530.171875 387.578125 529.410156 390.308594 528.582031 C 393.039062 527.75 395.75 526.855469 398.4375 525.890625 C 401.121094 524.929688 403.785156 523.902344 406.421875 522.808594 C 409.058594 521.714844 411.664062 520.558594 414.242188 519.335938 C 416.824219 518.113281 419.371094 516.828125 421.886719 515.480469 C 424.402344 514.136719 426.882812 512.726562 429.332031 511.257812 C 431.777344 509.789062 434.1875 508.261719 436.558594 506.671875 C 438.929688 505.085938 441.261719 503.441406 443.554688 501.738281 C 445.84375 500.039062 448.09375 498.28125 450.296875 496.46875 C 452.5 494.65625 454.660156 492.789062 456.773438 490.871094 C 458.886719 488.953125 460.949219 486.984375 462.964844 484.964844 C 464.980469 482.941406 466.945312 480.875 468.859375 478.757812 C 470.777344 476.640625 472.636719 474.476562 474.445312 472.269531 C 476.253906 470.0625 478.003906 467.8125 479.703125 465.515625 C 481.398438 463.222656 483.039062 460.886719 484.621094 458.511719 C 486.203125 456.136719 487.726562 453.722656 489.191406 451.273438 C 490.65625 448.824219 492.058594 446.339844 493.402344 443.820312 C 494.742188 441.300781 496.023438 438.753906 497.238281 436.171875 C 498.453125 433.589844 499.605469 430.980469 500.695312 428.339844 C 501.78125 425.703125 502.804688 423.039062 503.761719 420.351562 C 504.71875 417.660156 505.609375 414.949219 506.433594 412.21875 C 507.257812 409.484375 508.015625 406.734375 508.703125 403.964844 C 509.390625 401.195312 510.011719 398.410156 510.5625 395.609375 C 511.117188 392.808594 511.597656 389.996094 512.011719 387.175781 C 512.425781 384.351562 512.769531 381.519531 513.042969 378.675781 C 513.316406 375.835938 513.523438 372.992188 513.65625 370.140625 C 513.792969 367.289062 513.855469 364.4375 513.847656 361.582031 Z M 361.570312 401.773438 C 361.570312 402.683594 361.484375 403.582031 361.304688 404.472656 C 361.128906 405.367188 360.867188 406.230469 360.519531 407.070312 C 360.171875 407.910156 359.742188 408.707031 359.238281 409.464844 C 358.734375 410.21875 358.160156 410.917969 357.515625 411.5625 C 356.875 412.203125 356.175781 412.777344 355.417969 413.285156 C 354.664062 413.789062 353.867188 414.214844 353.027344 414.5625 C 352.1875 414.910156 351.320312 415.171875 350.429688 415.351562 C 349.539062 415.527344 348.636719 415.617188 347.726562 415.617188 L 259.53125 415.617188 C 258.632812 415.601562 257.742188 415.5 256.863281 415.3125 C 255.984375 415.125 255.128906 414.855469 254.304688 414.5 C 253.476562 414.144531 252.691406 413.714844 251.949219 413.207031 C 251.207031 412.699219 250.519531 412.125 249.886719 411.484375 C 249.257812 410.84375 248.695312 410.144531 248.199219 409.394531 C 247.703125 408.644531 247.285156 407.851562 246.945312 407.019531 C 246.601562 406.1875 246.347656 405.328125 246.171875 404.445312 C 246 403.5625 245.910156 402.671875 245.910156 401.773438 L 245.910156 400.433594 C 245.910156 399.527344 246 398.625 246.179688 397.734375 C 246.355469 396.84375 246.617188 395.980469 246.964844 395.144531 C 247.316406 394.304688 247.742188 393.507812 248.246094 392.753906 C 248.753906 392 249.328125 391.300781 249.96875 390.660156 C 250.613281 390.019531 251.3125 389.449219 252.066406 388.945312 C 252.824219 388.441406 253.621094 388.019531 254.460938 387.671875 C 255.300781 387.328125 256.167969 387.066406 257.058594 386.890625 C 257.949219 386.71875 258.847656 386.632812 259.753906 386.636719 L 347.726562 386.636719 C 348.636719 386.632812 349.535156 386.71875 350.425781 386.890625 C 351.316406 387.066406 352.183594 387.328125 353.023438 387.671875 C 353.863281 388.019531 354.660156 388.441406 355.414062 388.945312 C 356.171875 389.449219 356.871094 390.019531 357.515625 390.660156 C 358.15625 391.300781 358.730469 392 359.238281 392.753906 C 359.742188 393.507812 360.167969 394.304688 360.515625 395.144531 C 360.863281 395.980469 361.128906 396.84375 361.304688 397.734375 C 361.484375 398.625 361.570312 399.527344 361.570312 400.433594 Z M 428.199219 340.90625 C 428.199219 341.816406 428.109375 342.714844 427.933594 343.609375 C 427.753906 344.5 427.492188 345.363281 427.144531 346.203125 C 426.796875 347.042969 426.371094 347.84375 425.867188 348.597656 C 425.359375 349.355469 424.785156 350.054688 424.144531 350.695312 C 423.5 351.339844 422.800781 351.914062 422.046875 352.417969 C 421.289062 352.921875 420.492188 353.347656 419.652344 353.695312 C 418.8125 354.042969 417.949219 354.308594 417.054688 354.484375 C 416.164062 354.660156 415.265625 354.75 414.355469 354.75 L 256.628906 354.75 C 255.71875 354.75 254.820312 354.660156 253.929688 354.484375 C 253.039062 354.308594 252.171875 354.042969 251.332031 353.695312 C 250.492188 353.347656 249.695312 352.921875 248.9375 352.417969 C 248.183594 351.914062 247.484375 351.339844 246.839844 350.695312 C 246.199219 350.054688 245.625 349.355469 245.117188 348.597656 C 244.613281 347.84375 244.1875 347.042969 243.839844 346.203125 C 243.492188 345.363281 243.230469 344.5 243.050781 343.609375 C 242.875 342.714844 242.785156 341.816406 242.785156 340.90625 L 242.785156 339.613281 C 242.792969 338.707031 242.886719 337.8125 243.066406 336.921875 C 243.25 336.035156 243.515625 335.175781 243.867188 334.339844 C 244.214844 333.507812 244.644531 332.714844 245.148438 331.964844 C 245.65625 331.214844 246.230469 330.519531 246.871094 329.878906 C 247.515625 329.242188 248.210938 328.671875 248.964844 328.171875 C 249.71875 327.671875 250.515625 327.246094 251.351562 326.902344 C 252.1875 326.558594 253.050781 326.296875 253.941406 326.121094 C 254.828125 325.945312 255.722656 325.859375 256.628906 325.859375 L 414.355469 325.859375 C 415.265625 325.859375 416.164062 325.945312 417.054688 326.125 C 417.949219 326.300781 418.8125 326.5625 419.652344 326.910156 C 420.492188 327.257812 421.289062 327.6875 422.046875 328.191406 C 422.800781 328.695312 423.5 329.269531 424.144531 329.914062 C 424.785156 330.554688 425.359375 331.253906 425.867188 332.011719 C 426.371094 332.765625 426.796875 333.5625 427.144531 334.402344 C 427.492188 335.242188 427.753906 336.109375 427.933594 337 C 428.109375 337.890625 428.199219 338.792969 428.199219 339.699219 Z M 428.199219 340.90625 "/></g></svg>