<svg xmlns="http://www.w3.org/2000/svg" xmlns:xlink="http://www.w3.org/1999/xlink" width="1080" zoomAndPan="magnify" viewBox="0 0 810 809.999993" height="1080" preserveAspectRatio="xMidYMid meet" version="1.2"><defs><clipPath id="beda4c66cb"><path d="M 151 151 L 659 151 L 659 659 L 151 659 Z M 151 151 "/></clipPath><clipPath id="411ee07b49"><path d="M 658.125 405 C 658.125 409.140625 658.023438 413.28125 657.820312 417.421875 C 657.617188 421.558594 657.3125 425.6875 656.90625 429.8125 C 656.5 433.933594 655.992188 438.042969 655.386719 442.140625 C 654.777344 446.238281 654.070312 450.320312 653.261719 454.382812 C 652.453125 458.445312 651.546875 462.484375 650.539062 466.503906 C 649.53125 470.523438 648.429688 474.515625 647.226562 478.476562 C 646.023438 482.441406 644.722656 486.375 643.328125 490.273438 C 641.933594 494.175781 640.441406 498.039062 638.855469 501.867188 C 637.273438 505.695312 635.59375 509.480469 633.820312 513.226562 C 632.050781 516.96875 630.1875 520.667969 628.234375 524.324219 C 626.285156 527.976562 624.242188 531.578125 622.113281 535.132812 C 619.984375 538.683594 617.765625 542.183594 615.464844 545.628906 C 613.164062 549.074219 610.78125 552.457031 608.3125 555.785156 C 605.84375 559.113281 603.296875 562.378906 600.667969 565.582031 C 598.039062 568.78125 595.335938 571.917969 592.554688 574.988281 C 589.769531 578.058594 586.914062 581.058594 583.984375 583.984375 C 581.058594 586.914062 578.058594 589.769531 574.988281 592.554688 C 571.917969 595.335938 568.78125 598.039062 565.582031 600.667969 C 562.378906 603.296875 559.113281 605.84375 555.785156 608.3125 C 552.457031 610.78125 549.074219 613.164062 545.628906 615.464844 C 542.183594 617.765625 538.683594 619.984375 535.132812 622.113281 C 531.578125 624.242188 527.976562 626.285156 524.320312 628.234375 C 520.667969 630.1875 516.96875 632.050781 513.226562 633.820312 C 509.480469 635.59375 505.695312 637.273438 501.867188 638.855469 C 498.039062 640.441406 494.175781 641.933594 490.273438 643.328125 C 486.375 644.722656 482.441406 646.023438 478.476562 647.226562 C 474.515625 648.429688 470.523438 649.53125 466.503906 650.539062 C 462.484375 651.546875 458.445312 652.453125 454.382812 653.261719 C 450.320312 654.070312 446.238281 654.777344 442.140625 655.386719 C 438.042969 655.992188 433.933594 656.5 429.8125 656.90625 C 425.6875 657.3125 421.558594 657.617188 417.421875 657.820312 C 413.28125 658.023438 409.140625 658.125 405 658.125 C 400.855469 658.125 396.71875 658.023438 392.578125 657.820312 C 388.441406 657.617188 384.3125 657.3125 380.1875 656.90625 C 376.066406 656.5 371.957031 655.992188 367.859375 655.386719 C 363.761719 654.777344 359.679688 654.070312 355.617188 653.261719 C 351.554688 652.453125 347.515625 651.546875 343.496094 650.539062 C 339.476562 649.53125 335.484375 648.429688 331.523438 647.226562 C 327.558594 646.023438 323.625 644.722656 319.726562 643.328125 C 315.824219 641.933594 311.960938 640.441406 308.132812 638.855469 C 304.304688 637.273438 300.519531 635.59375 296.773438 633.820312 C 293.03125 632.050781 289.332031 630.1875 285.675781 628.234375 C 282.023438 626.285156 278.421875 624.242188 274.867188 622.113281 C 271.316406 619.984375 267.816406 617.765625 264.371094 615.464844 C 260.925781 613.164062 257.539062 610.78125 254.214844 608.3125 C 250.886719 605.84375 247.621094 603.296875 244.417969 600.667969 C 241.21875 598.039062 238.082031 595.335938 235.011719 592.554688 C 231.941406 589.769531 228.941406 586.914062 226.011719 583.984375 C 223.085938 581.058594 220.230469 578.058594 217.445312 574.988281 C 214.664062 571.917969 211.960938 568.78125 209.332031 565.582031 C 206.703125 562.378906 204.15625 559.113281 201.6875 555.785156 C 199.21875 552.457031 196.835938 549.074219 194.535156 545.628906 C 192.234375 542.183594 190.015625 538.683594 187.886719 535.132812 C 185.757812 531.578125 183.714844 527.976562 181.761719 524.320312 C 179.8125 520.667969 177.949219 516.96875 176.175781 513.226562 C 174.40625 509.480469 172.726562 505.695312 171.144531 501.867188 C 169.558594 498.039062 168.066406 494.175781 166.671875 490.273438 C 165.277344 486.375 163.976562 482.441406 162.773438 478.476562 C 161.570312 474.515625 160.46875 470.523438 159.460938 466.503906 C 158.453125 462.484375 157.546875 458.445312 156.738281 454.382812 C 155.929688 450.320312 155.222656 446.238281 154.613281 442.140625 C 154.007812 438.042969 153.5 433.933594 153.09375 429.8125 C 152.6875 425.6875 152.382812 421.558594 152.179688 417.421875 C 151.976562 413.28125 151.875 409.140625 151.875 405 C 151.875 400.855469 151.976562 396.71875 152.179688 392.578125 C 152.382812 388.441406 152.6875 384.3125 153.09375 380.1875 C 153.5 376.066406 154.007812 371.957031 154.613281 367.859375 C 155.222656 363.761719 155.929688 359.679688 156.738281 355.617188 C 157.546875 351.554688 158.453125 347.515625 159.460938 343.496094 C 160.46875 339.476562 161.570312 335.484375 162.773438 331.523438 C 163.976562 327.558594 165.277344 323.625 166.671875 319.726562 C 168.066406 315.824219 169.558594 311.960938 171.144531 308.132812 C 172.726562 304.304688 174.40625 300.519531 176.175781 296.773438 C 177.949219 293.03125 179.8125 289.332031 181.761719 285.675781 C 183.714844 282.023438 185.757812 278.421875 187.886719 274.867188 C 190.015625 271.316406 192.234375 267.816406 194.535156 264.371094 C 196.835938 260.925781 199.21875 257.539062 201.6875 254.214844 C 204.15625 250.886719 206.703125 247.621094 209.332031 244.417969 C 211.960938 241.21875 214.664062 238.082031 217.445312 235.011719 C 220.230469 231.941406 223.085938 228.941406 226.011719 226.011719 C 228.941406 223.085938 231.941406 220.230469 235.011719 217.445312 C 238.082031 214.664062 241.21875 211.960938 244.417969 209.332031 C 247.621094 206.703125 250.886719 204.15625 254.214844 201.6875 C 257.539062 199.21875 260.925781 196.835938 264.371094 194.535156 C 267.816406 192.234375 271.316406 190.015625 274.867188 187.886719 C 278.421875 185.757812 282.023438 183.714844 285.675781 181.765625 C 289.332031 179.8125 293.03125 177.949219 296.773438 176.175781 C 300.519531 174.40625 304.304688 172.726562 308.132812 171.144531 C 311.960938 169.558594 315.824219 168.066406 319.726562 166.671875 C 323.625 165.277344 327.558594 163.976562 331.523438 162.773438 C 335.484375 161.570312 339.476562 160.46875 343.496094 159.460938 C 347.515625 158.453125 351.554688 157.546875 355.617188 156.738281 C 359.679688 155.929688 363.761719 155.222656 367.859375 154.613281 C 371.957031 154.007812 376.066406 153.5 380.1875 153.09375 C 384.3125 152.6875 388.441406 152.382812 392.578125 152.179688 C 396.71875 151.976562 400.855469 151.875 405 151.875 C 409.140625 151.875 413.28125 151.976562 417.421875 152.179688 C 421.558594 152.382812 425.6875 152.6875 429.8125 153.09375 C 433.933594 153.5 438.042969 154.007812 442.140625 154.613281 C 446.238281 155.222656 450.320312 155.929688 454.382812 156.738281 C 458.445312 157.546875 462.484375 158.453125 466.503906 159.460938 C 470.523438 160.46875 474.515625 161.570312 478.476562 162.773438 C 482.441406 163.976562 486.375 165.277344 490.273438 166.671875 C 494.175781 168.066406 498.039062 169.558594 501.867188 171.144531 C 505.695312 172.726562 509.480469 174.40625 513.226562 176.175781 C 516.96875 177.949219 520.667969 179.8125 524.320312 181.765625 C 527.976562 183.714844 531.578125 185.757812 535.132812 187.886719 C 538.683594 190.015625 542.183594 192.234375 545.628906 194.535156 C 549.074219 196.835938 552.457031 199.21875 555.785156 201.6875 C 559.113281 204.15625 562.378906 206.703125 565.582031 209.332031 C 568.78125 211.960938 571.917969 214.664062 574.988281 217.445312 C 578.058594 220.230469 581.058594 223.085938 583.984375 226.011719 C 586.914062 228.941406 589.769531 231.941406 592.554688 235.011719 C 595.335938 238.082031 598.039062 241.21875 600.667969 244.417969 C 603.296875 247.621094 605.84375 250.886719 608.3125 254.214844 C 610.78125 257.539062 613.164062 260.925781 615.464844 264.371094 C 617.765625 267.816406 619.984375 271.316406 622.113281 274.867188 C 624.242188 278.421875 626.285156 282.023438 628.234375 285.675781 C 630.1875 289.332031 632.050781 293.03125 633.820312 296.773438 C 635.59375 300.519531 637.273438 304.304688 638.855469 308.132812 C 640.441406 311.960938 641.933594 315.824219 643.328125 319.726562 C 644.722656 323.625 646.023438 327.558594 647.226562 331.523438 C 648.429688 335.484375 649.53125 339.476562 650.539062 343.496094 C 651.546875 347.515625 652.453125 351.554688 653.261719 355.617188 C 654.070312 359.679688 654.777344 363.761719 655.386719 367.859375 C 655.992188 371.957031 656.5 376.066406 656.90625 380.1875 C 657.3125 384.3125 657.617188 388.441406 657.820312 392.578125 C 658.023438 396.71875 658.125 400.855469 658.125 405 Z M 658.125 405 "/></clipPath><linearGradient x1="95.999996" gradientTransform="matrix(1.582031,0,0,1.582031,0.0000035,0.00002)" y1="95.999996" x2="415.999984" gradientUnits="userSpaceOnUse" y2="415.999984" id="325c0ad7dd"><stop style="stop-color:#4f46e5;stop-opacity:1;" offset="0"/><stop style="stop-color:#4f47e5;stop-opacity:1;" offset="0.0078125"/><stop style="stop-color:#4e47e5;stop-opacity:1;" offset="0.015625"/><stop style="stop-color:#4e48e5;stop-opacity:1;" offset="0.0234375"/><stop style="stop-color:#4d49e5;stop-opacity:1;" offset="0.03125"/><stop style="stop-color:#4c4ae4;stop-opacity:1;" offset="0.0390625"/><stop style="stop-color:#4c4be4;stop-opacity:1;" offset="0.046875"/><stop style="stop-color:#4b4ce4;stop-opacity:1;" offset="0.0546875"/><stop style="stop-color:#4b4de4;stop-opacity:1;" offset="0.0625"/><stop style="stop-color:#4a4ee4;stop-opacity:1;" offset="0.0703125"/><stop style="stop-color:#4a4ee4;stop-opacity:1;" offset="0.078125"/><stop style="stop-color:#494fe4;stop-opacity:1;" offset="0.0859375"/><stop style="stop-color:#4850e3;stop-opacity:1;" offset="0.09375"/><stop style="stop-color:#4851e3;stop-opacity:1;" offset="0.101562"/><stop style="stop-color:#4752e3;stop-opacity:1;" offset="0.109375"/><stop style="stop-color:#4753e3;stop-opacity:1;" offset="0.117188"/><stop style="stop-color:#4654e3;stop-opacity:1;" offset="0.125"/><stop style="stop-color:#4655e3;stop-opacity:1;" offset="0.132812"/><stop style="stop-color:#4555e3;stop-opacity:1;" offset="0.140625"/><stop style="stop-color:#4556e3;stop-opacity:1;" offset="0.148438"/><stop style="stop-color:#4457e2;stop-opacity:1;" offset="0.15625"/><stop style="stop-color:#4358e2;stop-opacity:1;" offset="0.164062"/><stop style="stop-color:#4359e2;stop-opacity:1;" offset="0.171875"/><stop style="stop-color:#425ae2;stop-opacity:1;" offset="0.179688"/><stop style="stop-color:#425be2;stop-opacity:1;" offset="0.1875"/><stop style="stop-color:#415ce2;stop-opacity:1;" offset="0.195312"/><stop style="stop-color:#415ce2;stop-opacity:1;" offset="0.203125"/><stop style="stop-color:#405de1;stop-opacity:1;" offset="0.210938"/><stop style="stop-color:#3f5ee1;stop-opacity:1;" offset="0.21875"/><stop style="stop-color:#3f5fe1;stop-opacity:1;" offset="0.226562"/><stop style="stop-color:#3e60e1;stop-opacity:1;" offset="0.234375"/><stop style="stop-color:#3e61e1;stop-opacity:1;" offset="0.242188"/><stop style="stop-color:#3d62e1;stop-opacity:1;" offset="0.25"/><stop style="stop-color:#3d63e1;stop-opacity:1;" offset="0.257812"/><stop style="stop-color:#3c63e1;stop-opacity:1;" offset="0.265625"/><stop style="stop-color:#3b64e0;stop-opacity:1;" offset="0.273438"/><stop style="stop-color:#3b65e0;stop-opacity:1;" offset="0.28125"/><stop style="stop-color:#3a66e0;stop-opacity:1;" offset="0.289062"/><stop style="stop-color:#3a67e0;stop-opacity:1;" offset="0.296875"/><stop style="stop-color:#3968e0;stop-opacity:1;" offset="0.304688"/><stop style="stop-color:#3969e0;stop-opacity:1;" offset="0.3125"/><stop style="stop-color:#386ae0;stop-opacity:1;" offset="0.320312"/><stop style="stop-color:#376adf;stop-opacity:1;" offset="0.328125"/><stop style="stop-color:#376bdf;stop-opacity:1;" offset="0.335938"/><stop style="stop-color:#366cdf;stop-opacity:1;" offset="0.34375"/><stop style="stop-color:#366ddf;stop-opacity:1;" offset="0.351562"/><stop style="stop-color:#356edf;stop-opacity:1;" offset="0.359375"/><stop style="stop-color:#356fdf;stop-opacity:1;" offset="0.367188"/><stop style="stop-color:#3470df;stop-opacity:1;" offset="0.375"/><stop style="stop-color:#3371df;stop-opacity:1;" offset="0.382812"/><stop style="stop-color:#3371de;stop-opacity:1;" offset="0.390625"/><stop style="stop-color:#3272de;stop-opacity:1;" offset="0.398438"/><stop style="stop-color:#3273de;stop-opacity:1;" offset="0.40625"/><stop style="stop-color:#3174de;stop-opacity:1;" offset="0.414062"/><stop style="stop-color:#3175de;stop-opacity:1;" offset="0.421875"/><stop style="stop-color:#3076de;stop-opacity:1;" offset="0.429688"/><stop style="stop-color:#2f77de;stop-opacity:1;" offset="0.4375"/><stop style="stop-color:#2f78dd;stop-opacity:1;" offset="0.445312"/><stop style="stop-color:#2e78dd;stop-opacity:1;" offset="0.453125"/><stop style="stop-color:#2e79dd;stop-opacity:1;" offset="0.460938"/><stop style="stop-color:#2d7add;stop-opacity:1;" offset="0.46875"/><stop style="stop-color:#2d7bdd;stop-opacity:1;" offset="0.476562"/><stop style="stop-color:#2c7cdd;stop-opacity:1;" offset="0.484375"/><stop style="stop-color:#2b7ddd;stop-opacity:1;" offset="0.492188"/><stop style="stop-color:#2b7edd;stop-opacity:1;" offset="0.5"/><stop style="stop-color:#2a7fdc;stop-opacity:1;" offset="0.507812"/><stop style="stop-color:#2a7fdc;stop-opacity:1;" offset="0.515625"/><stop style="stop-color:#2980dc;stop-opacity:1;" offset="0.523438"/><stop style="stop-color:#2981dc;stop-opacity:1;" offset="0.53125"/><stop style="stop-color:#2882dc;stop-opacity:1;" offset="0.539062"/><stop style="stop-color:#2783dc;stop-opacity:1;" offset="0.546875"/><stop style="stop-color:#2784dc;stop-opacity:1;" offset="0.554688"/><stop style="stop-color:#2685db;stop-opacity:1;" offset="0.5625"/><stop style="stop-color:#2686db;stop-opacity:1;" offset="0.570312"/><stop style="stop-color:#2586db;stop-opacity:1;" offset="0.578125"/><stop style="stop-color:#2587db;stop-opacity:1;" offset="0.585938"/><stop style="stop-color:#2488db;stop-opacity:1;" offset="0.59375"/><stop style="stop-color:#2389db;stop-opacity:1;" offset="0.601562"/><stop style="stop-color:#238adb;stop-opacity:1;" offset="0.609375"/><stop style="stop-color:#228bdb;stop-opacity:1;" offset="0.617188"/><stop style="stop-color:#228cda;stop-opacity:1;" offset="0.625"/><stop style="stop-color:#218dda;stop-opacity:1;" offset="0.632812"/><stop style="stop-color:#218dda;stop-opacity:1;" offset="0.640625"/><stop style="stop-color:#208eda;stop-opacity:1;" offset="0.648438"/><stop style="stop-color:#1f8fda;stop-opacity:1;" offset="0.65625"/><stop style="stop-color:#1f90da;stop-opacity:1;" offset="0.664062"/><stop style="stop-color:#1e91da;stop-opacity:1;" offset="0.671875"/><stop style="stop-color:#1e92d9;stop-opacity:1;" offset="0.679688"/><stop style="stop-color:#1d93d9;stop-opacity:1;" offset="0.6875"/><stop style="stop-color:#1d94d9;stop-opacity:1;" offset="0.695312"/><stop style="stop-color:#1c94d9;stop-opacity:1;" offset="0.703125"/><stop style="stop-color:#1b95d9;stop-opacity:1;" offset="0.710938"/><stop style="stop-color:#1b96d9;stop-opacity:1;" offset="0.71875"/><stop style="stop-color:#1a97d9;stop-opacity:1;" offset="0.726562"/><stop style="stop-color:#1a98d9;stop-opacity:1;" offset="0.734375"/><stop style="stop-color:#1999d8;stop-opacity:1;" offset="0.742188"/><stop style="stop-color:#199ad8;stop-opacity:1;" offset="0.75"/><stop style="stop-color:#189bd8;stop-opacity:1;" offset="0.757812"/><stop style="stop-color:#179bd8;stop-opacity:1;" offset="0.765625"/><stop style="stop-color:#179cd8;stop-opacity:1;" offset="0.773438"/><stop style="stop-color:#169dd8;stop-opacity:1;" offset="0.78125"/><stop style="stop-color:#169ed8;stop-opacity:1;" offset="0.789062"/><stop style="stop-color:#159fd7;stop-opacity:1;" offset="0.796875"/><stop style="stop-color:#15a0d7;stop-opacity:1;" offset="0.804688"/><stop style="stop-color:#14a1d7;stop-opacity:1;" offset="0.8125"/><stop style="stop-color:#14a2d7;stop-opacity:1;" offset="0.820312"/><stop style="stop-color:#13a2d7;stop-opacity:1;" offset="0.828125"/><stop style="stop-color:#12a3d7;stop-opacity:1;" offset="0.835938"/><stop style="stop-color:#12a4d7;stop-opacity:1;" offset="0.84375"/><stop style="stop-color:#11a5d7;stop-opacity:1;" offset="0.851562"/><stop style="stop-color:#11a6d6;stop-opacity:1;" offset="0.859375"/><stop style="stop-color:#10a7d6;stop-opacity:1;" offset="0.867188"/><stop style="stop-color:#10a8d6;stop-opacity:1;" offset="0.875"/><stop style="stop-color:#0fa9d6;stop-opacity:1;" offset="0.882812"/><stop style="stop-color:#0ea9d6;stop-opacity:1;" offset="0.890625"/><stop style="stop-color:#0eaad6;stop-opacity:1;" offset="0.898438"/><stop style="stop-color:#0dabd6;stop-opacity:1;" offset="0.90625"/><stop style="stop-color:#0dacd5;stop-opacity:1;" offset="0.914062"/><stop style="stop-color:#0cadd5;stop-opacity:1;" offset="0.921875"/><stop style="stop-color:#0caed5;stop-opacity:1;" offset="0.929688"/><stop style="stop-color:#0bafd5;stop-opacity:1;" offset="0.9375"/><stop style="stop-color:#0ab0d5;stop-opacity:1;" offset="0.945312"/><stop style="stop-color:#0ab0d5;stop-opacity:1;" offset="0.953125"/><stop style="stop-color:#09b1d5;stop-opacity:1;" offset="0.960938"/><stop style="stop-color:#09b2d5;stop-opacity:1;" offset="0.96875"/><stop style="stop-color:#08b3d4;stop-opacity:1;" offset="0.976562"/><stop style="stop-color:#08b4d4;stop-opacity:1;" offset="0.984375"/><stop style="stop-color:#07b5d4;stop-opacity:1;" offset="0.992188"/><stop style="stop-color:#06b6d4;stop-opacity:1;" offset="1"/></linearGradient><clipPath id="786ffc1f72"><path d="M 109.929688 109.929688 L 700.070312 109.929688 L 700.070312 700.070312 L 109.929688 700.070312 Z M 109.929688 109.929688 "/></clipPath><clipPath id="6eab513059"><path d="M 173 172.773438 L 637 172.773438 L 637 637.023438 L 173 637.023438 Z M 173 172.773438 "/></clipPath></defs><g id="b857b29f7c"><path style=" stroke:none;fill-rule:nonzero;fill:#1a1b1e;fill-opacity:1;" d="M 202.5 0 L 607.5 0 C 610.8125 0 614.125 0.0820312 617.4375 0.242188 C 620.746094 0.40625 624.050781 0.648438 627.347656 0.976562 C 630.648438 1.300781 633.933594 1.707031 637.210938 2.191406 C 640.492188 2.679688 643.753906 3.246094 647.003906 3.890625 C 650.257812 4.539062 653.488281 5.261719 656.703125 6.070312 C 659.917969 6.875 663.109375 7.757812 666.28125 8.71875 C 669.453125 9.679688 672.601562 10.722656 675.71875 11.835938 C 678.839844 12.953125 681.929688 14.144531 684.992188 15.414062 C 688.054688 16.683594 691.082031 18.023438 694.078125 19.441406 C 697.074219 20.859375 700.035156 22.347656 702.957031 23.910156 C 705.878906 25.472656 708.761719 27.105469 711.605469 28.808594 C 714.449219 30.515625 717.246094 32.285156 720.003906 34.128906 C 722.757812 35.96875 725.46875 37.875 728.128906 39.851562 C 730.789062 41.824219 733.402344 43.863281 735.964844 45.964844 C 738.527344 48.066406 741.035156 50.230469 743.492188 52.457031 C 745.945312 54.683594 748.34375 56.96875 750.6875 59.3125 C 753.03125 61.652344 755.316406 64.054688 757.542969 66.507812 C 759.769531 68.964844 761.933594 71.472656 764.035156 74.035156 C 766.136719 76.597656 768.175781 79.210938 770.148438 81.871094 C 772.125 84.53125 774.03125 87.242188 775.871094 89.996094 C 777.714844 92.753906 779.484375 95.550781 781.191406 98.394531 C 782.894531 101.238281 784.527344 104.121094 786.089844 107.042969 C 787.652344 109.964844 789.140625 112.925781 790.558594 115.921875 C 791.976562 118.914062 793.316406 121.945312 794.585938 125.007812 C 795.855469 128.070312 797.046875 131.160156 798.164062 134.28125 C 799.277344 137.398438 800.316406 140.546875 801.28125 143.71875 C 802.242188 146.890625 803.125 150.082031 803.929688 153.296875 C 804.738281 156.511719 805.460938 159.742188 806.109375 162.996094 C 806.753906 166.246094 807.320312 169.507812 807.808594 172.785156 C 808.292969 176.066406 808.699219 179.351562 809.023438 182.652344 C 809.351562 185.949219 809.59375 189.253906 809.757812 192.5625 C 809.917969 195.875 810 199.1875 810 202.5 L 810 607.5 C 810 610.8125 809.917969 614.125 809.757812 617.4375 C 809.59375 620.746094 809.351562 624.050781 809.023438 627.347656 C 808.699219 630.648438 808.292969 633.933594 807.808594 637.210938 C 807.320312 640.492188 806.753906 643.753906 806.109375 647.003906 C 805.460938 650.257812 804.738281 653.488281 803.929688 656.703125 C 803.125 659.917969 802.242188 663.109375 801.28125 666.28125 C 800.316406 669.453125 799.277344 672.601562 798.164062 675.71875 C 797.046875 678.839844 795.855469 681.929688 794.585938 684.992188 C 793.316406 688.054688 791.976562 691.082031 790.558594 694.078125 C 789.140625 697.074219 787.652344 700.035156 786.089844 702.957031 C 784.527344 705.878906 782.894531 708.761719 781.191406 711.605469 C 779.484375 714.449219 777.714844 717.246094 775.871094 720.003906 C 774.03125 722.757812 772.125 725.46875 770.148438 728.128906 C 768.175781 730.789062 766.136719 733.402344 764.035156 735.964844 C 761.933594 738.527344 759.769531 741.035156 757.542969 743.492188 C 755.316406 745.945312 753.03125 748.34375 750.6875 750.6875 C 748.34375 753.03125 745.945312 755.316406 743.492188 757.542969 C 741.035156 759.769531 738.527344 761.933594 735.964844 764.035156 C 733.402344 766.136719 730.789062 768.175781 728.128906 770.148438 C 725.46875 772.125 722.757812 774.03125 720.003906 775.871094 C 717.246094 777.714844 714.449219 779.484375 711.605469 781.191406 C 708.761719 782.894531 705.878906 784.527344 702.957031 786.089844 C 700.035156 787.652344 697.074219 789.140625 694.078125 790.558594 C 691.082031 791.976562 688.054688 793.316406 684.992188 794.585938 C 681.929688 795.855469 678.839844 797.046875 675.71875 798.164062 C 672.601562 799.277344 669.453125 800.316406 666.28125 801.28125 C 663.109375 802.242188 659.917969 803.125 656.703125 803.929688 C 653.488281 804.738281 650.257812 805.460938 647.003906 806.109375 C 643.753906 806.753906 640.492188 807.320312 637.210938 807.808594 C 633.933594 808.292969 630.648438 808.699219 627.347656 809.023438 C 624.050781 809.351562 620.746094 809.59375 617.4375 809.757812 C 614.125 809.917969 610.8125 810 607.5 810 L 202.5 810 C 199.1875 810 195.875 809.917969 192.5625 809.757812 C 189.253906 809.59375 185.949219 809.351562 182.652344 809.023438 C 179.351562 808.699219 176.066406 808.292969 172.785156 807.808594 C 169.507812 807.320312 166.246094 806.753906 162.996094 806.109375 C 159.742188 805.460938 156.511719 804.738281 153.296875 803.929688 C 150.082031 803.125 146.890625 802.242188 143.71875 801.28125 C 140.546875 800.316406 137.398438 799.277344 134.28125 798.164062 C 131.160156 797.046875 128.070312 795.855469 125.007812 794.585938 C 121.945312 793.316406 118.914062 791.976562 115.921875 790.558594 C 112.925781 789.140625 109.964844 787.652344 107.042969 786.089844 C 104.121094 784.527344 101.238281 782.894531 98.394531 781.191406 C 95.550781 779.484375 92.753906 777.714844 89.996094 775.871094 C 87.242188 774.03125 84.53125 772.125 81.871094 770.148438 C 79.210938 768.175781 76.597656 766.136719 74.035156 764.035156 C 71.472656 761.933594 68.964844 759.769531 66.507812 757.542969 C 64.054688 755.316406 61.652344 753.03125 59.3125 750.6875 C 56.96875 748.34375 54.683594 745.945312 52.457031 743.492188 C 50.230469 741.035156 48.066406 738.527344 45.964844 735.964844 C 43.863281 733.402344 41.824219 730.789062 39.851562 728.128906 C 37.875 725.46875 35.96875 722.757812 34.128906 720.003906 C 32.285156 717.246094 30.515625 714.449219 28.808594 711.605469 C 27.105469 708.761719 25.472656 705.878906 23.910156 702.957031 C 22.347656 700.035156 20.859375 697.074219 19.441406 694.078125 C 18.023438 691.082031 16.683594 688.054688 15.414062 684.992188 C 14.144531 681.929688 12.953125 678.839844 11.835938 675.71875 C 10.722656 672.601562 9.679688 669.453125 8.71875 666.28125 C 7.757812 663.109375 6.875 659.917969 6.070312 656.703125 C 5.261719 653.488281 4.539062 650.257812 3.890625 647.003906 C 3.246094 643.753906 2.679688 640.492188 2.191406 637.210938 C 1.707031 633.933594 1.300781 630.648438 0.976562 627.347656 C 0.648438 624.050781 0.40625 620.746094 0.242188 617.4375 C 0.0820312 614.125 0 610.8125 0 607.5 L 0 202.5 C 0 199.1875 0.0820312 195.875 0.242188 192.5625 C 0.40625 189.253906 0.648438 185.949219 0.976562 182.652344 C 1.300781 179.351562 1.707031 176.066406 2.191406 172.785156 C 2.679688 169.507812 3.246094 166.246094 3.890625 162.996094 C 4.539062 159.742188 5.261719 156.511719 6.070312 153.296875 C 6.875 150.082031 7.757812 146.890625 8.71875 143.71875 C 9.679688 140.546875 10.722656 137.398438 11.835938 134.28125 C 12.953125 131.160156 14.144531 128.070312 15.414062 125.007812 C 16.683594 121.945312 18.023438 118.914062 19.441406 115.921875 C 20.859375 112.925781 22.347656 109.964844 23.910156 107.042969 C 25.472656 104.121094 27.105469 101.238281 28.808594 98.394531 C 30.515625 95.550781 32.285156 92.753906 34.128906 89.996094 C 35.96875 87.242188 37.875 84.53125 39.851562 81.871094 C 41.824219 79.210938 43.863281 76.597656 45.964844 74.035156 C 48.066406 71.472656 50.230469 68.964844 52.457031 66.507812 C 54.683594 64.054688 56.96875 61.652344 59.3125 59.3125 C 61.652344 56.96875 64.054688 54.683594 66.507812 52.457031 C 68.964844 50.230469 71.472656 48.066406 74.035156 45.964844 C 76.597656 43.863281 79.210938 41.824219 81.871094 39.851562 C 84.53125 37.875 87.242188 35.96875 89.996094 34.128906 C 92.753906 32.285156 95.550781 30.515625 98.394531 28.808594 C 101.238281 27.105469 104.121094 25.472656 107.042969 23.910156 C 109.964844 22.347656 112.925781 20.859375 115.921875 19.441406 C 118.914062 18.023438 121.945312 16.683594 125.007812 15.414062 C 128.070312 14.144531 131.160156 12.953125 134.28125 11.835938 C 137.398438 10.722656 140.546875 9.679688 143.71875 8.71875 C 146.890625 7.757812 150.082031 6.875 153.296875 6.070312 C 156.511719 5.261719 159.742188 4.539062 162.996094 3.890625 C 166.246094 3.246094 169.507812 2.679688 172.785156 2.191406 C 176.066406 1.707031 179.351562 1.300781 182.652344 0.976562 C 185.949219 0.648438 189.253906 0.40625 192.5625 0.242188 C 195.875 0.0820312 199.1875 0 202.5 0 Z M 202.5 0 "/><g clip-rule="nonzero" clip-path="url(#beda4c66cb)"><g clip-rule="nonzero" clip-path="url(#411ee07b49)"><path style=" stroke:none;fill-rule:nonzero;fill:url(#linear0);" d="M 151.875 151.875 L 151.875 658.125 L 658.125 658.125 L 658.125 151.875 Z M 151.875 151.875 "/></g></g><path style=" stroke:none;fill-rule:nonzero;fill:#1a1b1e;fill-opacity:1;" d="M 405 246.796875 C 318.351562 246.796875 246.796875 318.351562 246.796875 405 C 246.796875 491.648438 318.351562 563.203125 405 563.203125 C 491.648438 563.203125 563.203125 491.648438 563.203125 405 C 563.203125 318.351562 491.648438 246.796875 405 246.796875 Z M 405 515.742188 C 344.804688 515.742188 294.257812 465.195312 294.257812 405 C 294.257812 344.804688 344.804688 294.257812 405 294.257812 C 465.195312 294.257812 515.742188 344.804688 515.742188 405 C 515.742188 465.195312 465.195312 515.742188 405 515.742188 Z M 405 515.742188 "/><g clip-rule="nonzero" clip-path="url(#786ffc1f72)"><path style=" stroke:none;fill-rule:nonzero;fill:#1a1b1e;fill-opacity:1;" d="M 109.929688 109.929688 L 700.070312 109.929688 L 700.070312 700.070312 L 109.929688 700.070312 Z M 109.929688 109.929688 "/></g><g clip-rule="nonzero" clip-path="url(#6eab513059)"><path style=" stroke:none;fill-rule:nonzero;fill:#5a59f1;fill-opacity:1;" d="M 636.527344 477.519531 C 636.546875 477.132812 636.546875 476.746094 636.527344 476.359375 C 636.699219 474.980469 636.699219 473.597656 636.527344 472.214844 C 636.527344 472.214844 636.527344 472.214844 636.527344 471.21875 L 636.527344 222.515625 C 636.527344 220.886719 636.445312 219.261719 636.289062 217.640625 C 636.128906 216.019531 635.890625 214.410156 635.570312 212.8125 C 635.253906 211.214844 634.859375 209.636719 634.386719 208.074219 C 633.910156 206.515625 633.363281 204.984375 632.742188 203.480469 C 632.117188 201.976562 631.421875 200.503906 630.652344 199.066406 C 629.886719 197.628906 629.046875 196.234375 628.144531 194.878906 C 627.238281 193.527344 626.269531 192.21875 625.234375 190.960938 C 624.203125 189.699219 623.109375 188.496094 621.957031 187.34375 C 620.804688 186.191406 619.601562 185.097656 618.339844 184.066406 C 617.082031 183.03125 615.773438 182.0625 614.421875 181.15625 C 613.066406 180.25 611.671875 179.414062 610.234375 178.648438 C 608.796875 177.878906 607.324219 177.183594 605.820312 176.558594 C 604.316406 175.9375 602.785156 175.390625 601.222656 174.914062 C 599.664062 174.441406 598.085938 174.046875 596.488281 173.730469 C 594.890625 173.410156 593.28125 173.171875 591.660156 173.011719 C 590.039062 172.855469 588.414062 172.773438 586.785156 172.773438 L 223.34375 172.773438 C 221.714844 172.773438 220.089844 172.855469 218.46875 173.011719 C 216.847656 173.171875 215.238281 173.410156 213.640625 173.730469 C 212.042969 174.046875 210.464844 174.441406 208.90625 174.914062 C 207.347656 175.390625 205.8125 175.9375 204.308594 176.558594 C 202.804688 177.183594 201.332031 177.878906 199.894531 178.648438 C 198.460938 179.414062 197.0625 180.25 195.710938 181.15625 C 194.355469 182.0625 193.046875 183.03125 191.789062 184.066406 C 190.53125 185.097656 189.324219 186.191406 188.171875 187.34375 C 187.019531 188.496094 185.925781 189.699219 184.894531 190.960938 C 183.859375 192.21875 182.890625 193.527344 181.984375 194.878906 C 181.082031 196.234375 180.246094 197.628906 179.476562 199.066406 C 178.707031 200.503906 178.011719 201.976562 177.390625 203.480469 C 176.765625 204.984375 176.21875 206.515625 175.746094 208.074219 C 175.273438 209.636719 174.875 211.214844 174.558594 212.8125 C 174.242188 214.410156 174.003906 216.019531 173.84375 217.640625 C 173.683594 219.261719 173.601562 220.886719 173.601562 222.515625 L 173.601562 587.28125 C 173.601562 588.914062 173.683594 590.539062 173.84375 592.160156 C 174.003906 593.78125 174.242188 595.390625 174.558594 596.988281 C 174.875 598.585938 175.273438 600.164062 175.746094 601.722656 C 176.21875 603.28125 176.765625 604.8125 177.390625 606.316406 C 178.011719 607.824219 178.707031 609.292969 179.476562 610.730469 C 180.246094 612.167969 181.082031 613.5625 181.984375 614.917969 C 182.890625 616.273438 183.859375 617.578125 184.894531 618.839844 C 185.925781 620.097656 187.019531 621.304688 188.171875 622.457031 C 189.324219 623.605469 190.53125 624.699219 191.789062 625.734375 C 193.046875 626.765625 194.355469 627.734375 195.710938 628.640625 C 197.0625 629.546875 198.460938 630.382812 199.894531 631.152344 C 201.332031 631.917969 202.804688 632.613281 204.308594 633.238281 C 205.8125 633.859375 207.347656 634.410156 208.90625 634.882812 C 210.464844 635.355469 212.042969 635.75 213.640625 636.066406 C 215.238281 636.386719 216.847656 636.625 218.46875 636.785156 C 220.089844 636.945312 221.714844 637.023438 223.34375 637.023438 L 472.050781 637.023438 C 474.210938 636.972656 476.3125 636.585938 478.351562 635.863281 C 480.421875 635.09375 482.246094 633.933594 483.820312 632.382812 L 633.042969 483.160156 C 634.34375 481.777344 635.394531 480.230469 636.195312 478.515625 C 636.363281 478.410156 636.476562 478.265625 636.539062 478.078125 C 636.601562 477.890625 636.597656 477.707031 636.527344 477.519531 Z M 206.765625 587.28125 L 206.765625 222.515625 C 206.765625 221.972656 206.789062 221.429688 206.84375 220.890625 C 206.898438 220.347656 206.976562 219.8125 207.082031 219.28125 C 207.1875 218.746094 207.320312 218.222656 207.476562 217.703125 C 207.636719 217.183594 207.816406 216.671875 208.027344 216.171875 C 208.234375 215.667969 208.464844 215.179688 208.722656 214.699219 C 208.976562 214.21875 209.257812 213.753906 209.558594 213.304688 C 209.859375 212.851562 210.183594 212.417969 210.527344 211.996094 C 210.871094 211.578125 211.234375 211.175781 211.621094 210.792969 C 212.003906 210.40625 212.40625 210.042969 212.824219 209.699219 C 213.246094 209.355469 213.679688 209.03125 214.132812 208.730469 C 214.585938 208.425781 215.050781 208.148438 215.527344 207.894531 C 216.007812 207.636719 216.496094 207.40625 217 207.195312 C 217.5 206.988281 218.011719 206.804688 218.53125 206.648438 C 219.050781 206.492188 219.578125 206.359375 220.109375 206.253906 C 220.640625 206.148438 221.179688 206.066406 221.71875 206.015625 C 222.257812 205.960938 222.800781 205.933594 223.34375 205.933594 L 588.113281 205.933594 C 588.65625 205.933594 589.195312 205.960938 589.738281 206.015625 C 590.277344 206.066406 590.8125 206.148438 591.347656 206.253906 C 591.878906 206.359375 592.40625 206.492188 592.925781 206.648438 C 593.445312 206.804688 593.957031 206.988281 594.457031 207.195312 C 594.957031 207.40625 595.449219 207.636719 595.929688 207.894531 C 596.40625 208.148438 596.871094 208.425781 597.324219 208.730469 C 597.773438 209.03125 598.210938 209.355469 598.628906 209.699219 C 599.050781 210.042969 599.453125 210.40625 599.835938 210.792969 C 600.21875 211.175781 600.585938 211.578125 600.929688 211.996094 C 601.273438 212.417969 601.597656 212.851562 601.898438 213.304688 C 602.199219 213.753906 602.480469 214.21875 602.734375 214.699219 C 602.992188 215.179688 603.222656 215.667969 603.429688 216.171875 C 603.636719 216.671875 603.820312 217.183594 603.976562 217.703125 C 604.136719 218.222656 604.269531 218.746094 604.375 219.28125 C 604.480469 219.8125 604.558594 220.347656 604.613281 220.890625 C 604.664062 221.429688 604.691406 221.972656 604.691406 222.515625 L 604.691406 454.640625 L 505.210938 454.640625 C 503.582031 454.640625 501.957031 454.71875 500.335938 454.878906 C 498.714844 455.039062 497.105469 455.277344 495.507812 455.597656 C 493.910156 455.914062 492.332031 456.308594 490.769531 456.78125 C 489.210938 457.253906 487.679688 457.804688 486.175781 458.425781 C 484.671875 459.050781 483.199219 459.746094 481.761719 460.511719 C 480.324219 461.28125 478.929688 462.117188 477.574219 463.023438 C 476.222656 463.929688 474.914062 464.898438 473.65625 465.929688 C 472.394531 466.964844 471.191406 468.058594 470.039062 469.210938 C 468.886719 470.359375 467.792969 471.566406 466.761719 472.824219 C 465.726562 474.085938 464.757812 475.390625 463.851562 476.746094 C 462.945312 478.101562 462.109375 479.496094 461.34375 480.933594 C 460.574219 482.371094 459.878906 483.839844 459.253906 485.347656 C 458.632812 486.851562 458.082031 488.382812 457.609375 489.941406 C 457.136719 491.5 456.742188 493.078125 456.425781 494.675781 C 456.105469 496.273438 455.867188 497.882812 455.707031 499.503906 C 455.550781 501.128906 455.46875 502.753906 455.46875 504.382812 L 455.46875 603.863281 L 223.34375 603.863281 C 222.800781 603.863281 222.257812 603.835938 221.71875 603.785156 C 221.179688 603.730469 220.640625 603.652344 220.109375 603.542969 C 219.578125 603.4375 219.050781 603.308594 218.53125 603.148438 C 218.011719 602.992188 217.5 602.808594 217 602.601562 C 216.496094 602.394531 216.007812 602.160156 215.527344 601.90625 C 215.050781 601.648438 214.585938 601.371094 214.132812 601.070312 C 213.679688 600.765625 213.246094 600.445312 212.824219 600.101562 C 212.40625 599.753906 212.003906 599.390625 211.621094 599.007812 C 211.234375 598.625 210.871094 598.222656 210.527344 597.800781 C 210.183594 597.382812 209.859375 596.945312 209.558594 596.496094 C 209.257812 596.042969 208.976562 595.578125 208.722656 595.097656 C 208.464844 594.621094 208.234375 594.128906 208.027344 593.628906 C 207.816406 593.125 207.636719 592.617188 207.476562 592.097656 C 207.320312 591.578125 207.1875 591.050781 207.082031 590.519531 C 206.976562 589.984375 206.898438 589.449219 206.84375 588.90625 C 206.789062 588.367188 206.765625 587.824219 206.765625 587.28125 Z M 488.628906 580.484375 L 488.628906 504.382812 C 488.628906 503.839844 488.65625 503.296875 488.710938 502.757812 C 488.761719 502.214844 488.84375 501.679688 488.949219 501.148438 C 489.054688 500.613281 489.1875 500.089844 489.34375 499.566406 C 489.5 499.046875 489.683594 498.539062 489.890625 498.035156 C 490.101562 497.535156 490.332031 497.042969 490.585938 496.566406 C 490.84375 496.085938 491.121094 495.621094 491.425781 495.167969 C 491.726562 494.71875 492.050781 494.28125 492.394531 493.863281 C 492.738281 493.441406 493.101562 493.042969 493.484375 492.65625 C 493.871094 492.273438 494.273438 491.910156 494.691406 491.566406 C 495.113281 491.21875 495.546875 490.898438 496 490.59375 C 496.449219 490.292969 496.914062 490.015625 497.394531 489.757812 C 497.875 489.503906 498.363281 489.269531 498.867188 489.0625 C 499.367188 488.855469 499.878906 488.671875 500.398438 488.515625 C 500.917969 488.355469 501.441406 488.226562 501.976562 488.121094 C 502.507812 488.011719 503.042969 487.933594 503.585938 487.878906 C 504.125 487.828125 504.667969 487.800781 505.210938 487.800781 L 581.3125 487.800781 Z M 488.628906 580.484375 "/></g></g></svg>