<svg xmlns="http://www.w3.org/2000/svg" xmlns:xlink="http://www.w3.org/1999/xlink" width="1080" zoomAndPan="magnify" viewBox="0 0 810 809.999993" height="1080" preserveAspectRatio="xMidYMid meet" version="1.2"><defs><clipPath id="1f8bf0a621"><path d="M 151 151 L 659 151 L 659 659 L 151 659 Z M 151 151 "/></clipPath><clipPath id="9f640eebf8"><path d="M 658.125 405 C 658.125 409.140625 658.023438 413.28125 657.820312 417.421875 C 657.617188 421.558594 657.3125 425.6875 656.90625 429.8125 C 656.5 433.933594 655.992188 438.042969 655.386719 442.140625 C 654.777344 446.238281 654.070312 450.320312 653.261719 454.382812 C 652.453125 458.445312 651.546875 462.484375 650.539062 466.503906 C 649.53125 470.523438 648.429688 474.515625 647.226562 478.476562 C 646.023438 482.441406 644.722656 486.375 643.328125 490.273438 C 641.933594 494.175781 640.441406 498.039062 638.855469 501.867188 C 637.273438 505.695312 635.59375 509.480469 633.820312 513.226562 C 632.050781 516.96875 630.1875 520.667969 628.234375 524.324219 C 626.285156 527.976562 624.242188 531.578125 622.113281 535.132812 C 619.984375 538.683594 617.765625 542.183594 615.464844 545.628906 C 613.164062 549.074219 610.78125 552.457031 608.3125 555.785156 C 605.84375 559.113281 603.296875 562.378906 600.667969 565.582031 C 598.039062 568.78125 595.335938 571.917969 592.554688 574.988281 C 589.769531 578.058594 586.914062 581.058594 583.984375 583.984375 C 581.058594 586.914062 578.058594 589.769531 574.988281 592.554688 C 571.917969 595.335938 568.78125 598.039062 565.582031 600.667969 C 562.378906 603.296875 559.113281 605.84375 555.785156 608.3125 C 552.457031 610.78125 549.074219 613.164062 545.628906 615.464844 C 542.183594 617.765625 538.683594 619.984375 535.132812 622.113281 C 531.578125 624.242188 527.976562 626.285156 524.320312 628.234375 C 520.667969 630.1875 516.96875 632.050781 513.226562 633.820312 C 509.480469 635.59375 505.695312 637.273438 501.867188 638.855469 C 498.039062 640.441406 494.175781 641.933594 490.273438 643.328125 C 486.375 644.722656 482.441406 646.023438 478.476562 647.226562 C 474.515625 648.429688 470.523438 649.53125 466.503906 650.539062 C 462.484375 651.546875 458.445312 652.453125 454.382812 653.261719 C 450.320312 654.070312 446.238281 654.777344 442.140625 655.386719 C 438.042969 655.992188 433.933594 656.5 429.8125 656.90625 C 425.6875 657.3125 421.558594 657.617188 417.421875 657.820312 C 413.28125 658.023438 409.140625 658.125 405 658.125 C 400.855469 658.125 396.71875 658.023438 392.578125 657.820312 C 388.441406 657.617188 384.3125 657.3125 380.1875 656.90625 C 376.066406 656.5 371.957031 655.992188 367.859375 655.386719 C 363.761719 654.777344 359.679688 654.070312 355.617188 653.261719 C 351.554688 652.453125 347.515625 651.546875 343.496094 650.539062 C 339.476562 649.53125 335.484375 648.429688 331.523438 647.226562 C 327.558594 646.023438 323.625 644.722656 319.726562 643.328125 C 315.824219 641.933594 311.960938 640.441406 308.132812 638.855469 C 304.304688 637.273438 300.519531 635.59375 296.773438 633.820312 C 293.03125 632.050781 289.332031 630.1875 285.675781 628.234375 C 282.023438 626.285156 278.421875 624.242188 274.867188 622.113281 C 271.316406 619.984375 267.816406 617.765625 264.371094 615.464844 C 260.925781 613.164062 257.539062 610.78125 254.214844 608.3125 C 250.886719 605.84375 247.621094 603.296875 244.417969 600.667969 C 241.21875 598.039062 238.082031 595.335938 235.011719 592.554688 C 231.941406 589.769531 228.941406 586.914062 226.011719 583.984375 C 223.085938 581.058594 220.230469 578.058594 217.445312 574.988281 C 214.664062 571.917969 211.960938 568.78125 209.332031 565.582031 C 206.703125 562.378906 204.15625 559.113281 201.6875 555.785156 C 199.21875 552.457031 196.835938 549.074219 194.535156 545.628906 C 192.234375 542.183594 190.015625 538.683594 187.886719 535.132812 C 185.757812 531.578125 183.714844 527.976562 181.761719 524.320312 C 179.8125 520.667969 177.949219 516.96875 176.175781 513.226562 C 174.40625 509.480469 172.726562 505.695312 171.144531 501.867188 C 169.558594 498.039062 168.066406 494.175781 166.671875 490.273438 C 165.277344 486.375 163.976562 482.441406 162.773438 478.476562 C 161.570312 474.515625 160.46875 470.523438 159.460938 466.503906 C 158.453125 462.484375 157.546875 458.445312 156.738281 454.382812 C 155.929688 450.320312 155.222656 446.238281 154.613281 442.140625 C 154.007812 438.042969 153.5 433.933594 153.09375 429.8125 C 152.6875 425.6875 152.382812 421.558594 152.179688 417.421875 C 151.976562 413.28125 151.875 409.140625 151.875 405 C 151.875 400.855469 151.976562 396.71875 152.179688 392.578125 C 152.382812 388.441406 152.6875 384.3125 153.09375 380.1875 C 153.5 376.066406 154.007812 371.957031 154.613281 367.859375 C 155.222656 363.761719 155.929688 359.679688 156.738281 355.617188 C 157.546875 351.554688 158.453125 347.515625 159.460938 343.496094 C 160.46875 339.476562 161.570312 335.484375 162.773438 331.523438 C 163.976562 327.558594 165.277344 323.625 166.671875 319.726562 C 168.066406 315.824219 169.558594 311.960938 171.144531 308.132812 C 172.726562 304.304688 174.40625 300.519531 176.175781 296.773438 C 177.949219 293.03125 179.8125 289.332031 181.761719 285.675781 C 183.714844 282.023438 185.757812 278.421875 187.886719 274.867188 C 190.015625 271.316406 192.234375 267.816406 194.535156 264.371094 C 196.835938 260.925781 199.21875 257.539062 201.6875 254.214844 C 204.15625 250.886719 206.703125 247.621094 209.332031 244.417969 C 211.960938 241.21875 214.664062 238.082031 217.445312 235.011719 C 220.230469 231.941406 223.085938 228.941406 226.011719 226.011719 C 228.941406 223.085938 231.941406 220.230469 235.011719 217.445312 C 238.082031 214.664062 241.21875 211.960938 244.417969 209.332031 C 247.621094 206.703125 250.886719 204.15625 254.214844 201.6875 C 257.539062 199.21875 260.925781 196.835938 264.371094 194.535156 C 267.816406 192.234375 271.316406 190.015625 274.867188 187.886719 C 278.421875 185.757812 282.023438 183.714844 285.675781 181.765625 C 289.332031 179.8125 293.03125 177.949219 296.773438 176.175781 C 300.519531 174.40625 304.304688 172.726562 308.132812 171.144531 C 311.960938 169.558594 315.824219 168.066406 319.726562 166.671875 C 323.625 165.277344 327.558594 163.976562 331.523438 162.773438 C 335.484375 161.570312 339.476562 160.46875 343.496094 159.460938 C 347.515625 158.453125 351.554688 157.546875 355.617188 156.738281 C 359.679688 155.929688 363.761719 155.222656 367.859375 154.613281 C 371.957031 154.007812 376.066406 153.5 380.1875 153.09375 C 384.3125 152.6875 388.441406 152.382812 392.578125 152.179688 C 396.71875 151.976562 400.855469 151.875 405 151.875 C 409.140625 151.875 413.28125 151.976562 417.421875 152.179688 C 421.558594 152.382812 425.6875 152.6875 429.8125 153.09375 C 433.933594 153.5 438.042969 154.007812 442.140625 154.613281 C 446.238281 155.222656 450.320312 155.929688 454.382812 156.738281 C 458.445312 157.546875 462.484375 158.453125 466.503906 159.460938 C 470.523438 160.46875 474.515625 161.570312 478.476562 162.773438 C 482.441406 163.976562 486.375 165.277344 490.273438 166.671875 C 494.175781 168.066406 498.039062 169.558594 501.867188 171.144531 C 505.695312 172.726562 509.480469 174.40625 513.226562 176.175781 C 516.96875 177.949219 520.667969 179.8125 524.320312 181.765625 C 527.976562 183.714844 531.578125 185.757812 535.132812 187.886719 C 538.683594 190.015625 542.183594 192.234375 545.628906 194.535156 C 549.074219 196.835938 552.457031 199.21875 555.785156 201.6875 C 559.113281 204.15625 562.378906 206.703125 565.582031 209.332031 C 568.78125 211.960938 571.917969 214.664062 574.988281 217.445312 C 578.058594 220.230469 581.058594 223.085938 583.984375 226.011719 C 586.914062 228.941406 589.769531 231.941406 592.554688 235.011719 C 595.335938 238.082031 598.039062 241.21875 600.667969 244.417969 C 603.296875 247.621094 605.84375 250.886719 608.3125 254.214844 C 610.78125 257.539062 613.164062 260.925781 615.464844 264.371094 C 617.765625 267.816406 619.984375 271.316406 622.113281 274.867188 C 624.242188 278.421875 626.285156 282.023438 628.234375 285.675781 C 630.1875 289.332031 632.050781 293.03125 633.820312 296.773438 C 635.59375 300.519531 637.273438 304.304688 638.855469 308.132812 C 640.441406 311.960938 641.933594 315.824219 643.328125 319.726562 C 644.722656 323.625 646.023438 327.558594 647.226562 331.523438 C 648.429688 335.484375 649.53125 339.476562 650.539062 343.496094 C 651.546875 347.515625 652.453125 351.554688 653.261719 355.617188 C 654.070312 359.679688 654.777344 363.761719 655.386719 367.859375 C 655.992188 371.957031 656.5 376.066406 656.90625 380.1875 C 657.3125 384.3125 657.617188 388.441406 657.820312 392.578125 C 658.023438 396.71875 658.125 400.855469 658.125 405 Z M 658.125 405 "/></clipPath><linearGradient x1="95.999996" gradientTransform="matrix(1.582031,0,0,1.582031,0.0000035,0.00002)" y1="95.999996" x2="415.999984" gradientUnits="userSpaceOnUse" y2="415.999984" id="6613c1dded"><stop style="stop-color:#4f46e5;stop-opacity:1;" offset="0"/><stop style="stop-color:#4f47e5;stop-opacity:1;" offset="0.0078125"/><stop style="stop-color:#4e47e5;stop-opacity:1;" offset="0.015625"/><stop style="stop-color:#4e48e5;stop-opacity:1;" offset="0.0234375"/><stop style="stop-color:#4d49e5;stop-opacity:1;" offset="0.03125"/><stop style="stop-color:#4c4ae4;stop-opacity:1;" offset="0.0390625"/><stop style="stop-color:#4c4be4;stop-opacity:1;" offset="0.046875"/><stop style="stop-color:#4b4ce4;stop-opacity:1;" offset="0.0546875"/><stop style="stop-color:#4b4de4;stop-opacity:1;" offset="0.0625"/><stop style="stop-color:#4a4ee4;stop-opacity:1;" offset="0.0703125"/><stop style="stop-color:#4a4ee4;stop-opacity:1;" offset="0.078125"/><stop style="stop-color:#494fe4;stop-opacity:1;" offset="0.0859375"/><stop style="stop-color:#4850e3;stop-opacity:1;" offset="0.09375"/><stop style="stop-color:#4851e3;stop-opacity:1;" offset="0.101562"/><stop style="stop-color:#4752e3;stop-opacity:1;" offset="0.109375"/><stop style="stop-color:#4753e3;stop-opacity:1;" offset="0.117188"/><stop style="stop-color:#4654e3;stop-opacity:1;" offset="0.125"/><stop style="stop-color:#4655e3;stop-opacity:1;" offset="0.132812"/><stop style="stop-color:#4555e3;stop-opacity:1;" offset="0.140625"/><stop style="stop-color:#4556e3;stop-opacity:1;" offset="0.148438"/><stop style="stop-color:#4457e2;stop-opacity:1;" offset="0.15625"/><stop style="stop-color:#4358e2;stop-opacity:1;" offset="0.164062"/><stop style="stop-color:#4359e2;stop-opacity:1;" offset="0.171875"/><stop style="stop-color:#425ae2;stop-opacity:1;" offset="0.179688"/><stop style="stop-color:#425be2;stop-opacity:1;" offset="0.1875"/><stop style="stop-color:#415ce2;stop-opacity:1;" offset="0.195312"/><stop style="stop-color:#415ce2;stop-opacity:1;" offset="0.203125"/><stop style="stop-color:#405de1;stop-opacity:1;" offset="0.210938"/><stop style="stop-color:#3f5ee1;stop-opacity:1;" offset="0.21875"/><stop style="stop-color:#3f5fe1;stop-opacity:1;" offset="0.226562"/><stop style="stop-color:#3e60e1;stop-opacity:1;" offset="0.234375"/><stop style="stop-color:#3e61e1;stop-opacity:1;" offset="0.242188"/><stop style="stop-color:#3d62e1;stop-opacity:1;" offset="0.25"/><stop style="stop-color:#3d63e1;stop-opacity:1;" offset="0.257812"/><stop style="stop-color:#3c63e1;stop-opacity:1;" offset="0.265625"/><stop style="stop-color:#3b64e0;stop-opacity:1;" offset="0.273438"/><stop style="stop-color:#3b65e0;stop-opacity:1;" offset="0.28125"/><stop style="stop-color:#3a66e0;stop-opacity:1;" offset="0.289062"/><stop style="stop-color:#3a67e0;stop-opacity:1;" offset="0.296875"/><stop style="stop-color:#3968e0;stop-opacity:1;" offset="0.304688"/><stop style="stop-color:#3969e0;stop-opacity:1;" offset="0.3125"/><stop style="stop-color:#386ae0;stop-opacity:1;" offset="0.320312"/><stop style="stop-color:#376adf;stop-opacity:1;" offset="0.328125"/><stop style="stop-color:#376bdf;stop-opacity:1;" offset="0.335938"/><stop style="stop-color:#366cdf;stop-opacity:1;" offset="0.34375"/><stop style="stop-color:#366ddf;stop-opacity:1;" offset="0.351562"/><stop style="stop-color:#356edf;stop-opacity:1;" offset="0.359375"/><stop style="stop-color:#356fdf;stop-opacity:1;" offset="0.367188"/><stop style="stop-color:#3470df;stop-opacity:1;" offset="0.375"/><stop style="stop-color:#3371df;stop-opacity:1;" offset="0.382812"/><stop style="stop-color:#3371de;stop-opacity:1;" offset="0.390625"/><stop style="stop-color:#3272de;stop-opacity:1;" offset="0.398438"/><stop style="stop-color:#3273de;stop-opacity:1;" offset="0.40625"/><stop style="stop-color:#3174de;stop-opacity:1;" offset="0.414062"/><stop style="stop-color:#3175de;stop-opacity:1;" offset="0.421875"/><stop style="stop-color:#3076de;stop-opacity:1;" offset="0.429688"/><stop style="stop-color:#2f77de;stop-opacity:1;" offset="0.4375"/><stop style="stop-color:#2f78dd;stop-opacity:1;" offset="0.445312"/><stop style="stop-color:#2e78dd;stop-opacity:1;" offset="0.453125"/><stop style="stop-color:#2e79dd;stop-opacity:1;" offset="0.460938"/><stop style="stop-color:#2d7add;stop-opacity:1;" offset="0.46875"/><stop style="stop-color:#2d7bdd;stop-opacity:1;" offset="0.476562"/><stop style="stop-color:#2c7cdd;stop-opacity:1;" offset="0.484375"/><stop style="stop-color:#2b7ddd;stop-opacity:1;" offset="0.492188"/><stop style="stop-color:#2b7edd;stop-opacity:1;" offset="0.5"/><stop style="stop-color:#2a7fdc;stop-opacity:1;" offset="0.507812"/><stop style="stop-color:#2a7fdc;stop-opacity:1;" offset="0.515625"/><stop style="stop-color:#2980dc;stop-opacity:1;" offset="0.523438"/><stop style="stop-color:#2981dc;stop-opacity:1;" offset="0.53125"/><stop style="stop-color:#2882dc;stop-opacity:1;" offset="0.539062"/><stop style="stop-color:#2783dc;stop-opacity:1;" offset="0.546875"/><stop style="stop-color:#2784dc;stop-opacity:1;" offset="0.554688"/><stop style="stop-color:#2685db;stop-opacity:1;" offset="0.5625"/><stop style="stop-color:#2686db;stop-opacity:1;" offset="0.570312"/><stop style="stop-color:#2586db;stop-opacity:1;" offset="0.578125"/><stop style="stop-color:#2587db;stop-opacity:1;" offset="0.585938"/><stop style="stop-color:#2488db;stop-opacity:1;" offset="0.59375"/><stop style="stop-color:#2389db;stop-opacity:1;" offset="0.601562"/><stop style="stop-color:#238adb;stop-opacity:1;" offset="0.609375"/><stop style="stop-color:#228bdb;stop-opacity:1;" offset="0.617188"/><stop style="stop-color:#228cda;stop-opacity:1;" offset="0.625"/><stop style="stop-color:#218dda;stop-opacity:1;" offset="0.632812"/><stop style="stop-color:#218dda;stop-opacity:1;" offset="0.640625"/><stop style="stop-color:#208eda;stop-opacity:1;" offset="0.648438"/><stop style="stop-color:#1f8fda;stop-opacity:1;" offset="0.65625"/><stop style="stop-color:#1f90da;stop-opacity:1;" offset="0.664062"/><stop style="stop-color:#1e91da;stop-opacity:1;" offset="0.671875"/><stop style="stop-color:#1e92d9;stop-opacity:1;" offset="0.679688"/><stop style="stop-color:#1d93d9;stop-opacity:1;" offset="0.6875"/><stop style="stop-color:#1d94d9;stop-opacity:1;" offset="0.695312"/><stop style="stop-color:#1c94d9;stop-opacity:1;" offset="0.703125"/><stop style="stop-color:#1b95d9;stop-opacity:1;" offset="0.710938"/><stop style="stop-color:#1b96d9;stop-opacity:1;" offset="0.71875"/><stop style="stop-color:#1a97d9;stop-opacity:1;" offset="0.726562"/><stop style="stop-color:#1a98d9;stop-opacity:1;" offset="0.734375"/><stop style="stop-color:#1999d8;stop-opacity:1;" offset="0.742188"/><stop style="stop-color:#199ad8;stop-opacity:1;" offset="0.75"/><stop style="stop-color:#189bd8;stop-opacity:1;" offset="0.757812"/><stop style="stop-color:#179bd8;stop-opacity:1;" offset="0.765625"/><stop style="stop-color:#179cd8;stop-opacity:1;" offset="0.773438"/><stop style="stop-color:#169dd8;stop-opacity:1;" offset="0.78125"/><stop style="stop-color:#169ed8;stop-opacity:1;" offset="0.789062"/><stop style="stop-color:#159fd7;stop-opacity:1;" offset="0.796875"/><stop style="stop-color:#15a0d7;stop-opacity:1;" offset="0.804688"/><stop style="stop-color:#14a1d7;stop-opacity:1;" offset="0.8125"/><stop style="stop-color:#14a2d7;stop-opacity:1;" offset="0.820312"/><stop style="stop-color:#13a2d7;stop-opacity:1;" offset="0.828125"/><stop style="stop-color:#12a3d7;stop-opacity:1;" offset="0.835938"/><stop style="stop-color:#12a4d7;stop-opacity:1;" offset="0.84375"/><stop style="stop-color:#11a5d7;stop-opacity:1;" offset="0.851562"/><stop style="stop-color:#11a6d6;stop-opacity:1;" offset="0.859375"/><stop style="stop-color:#10a7d6;stop-opacity:1;" offset="0.867188"/><stop style="stop-color:#10a8d6;stop-opacity:1;" offset="0.875"/><stop style="stop-color:#0fa9d6;stop-opacity:1;" offset="0.882812"/><stop style="stop-color:#0ea9d6;stop-opacity:1;" offset="0.890625"/><stop style="stop-color:#0eaad6;stop-opacity:1;" offset="0.898438"/><stop style="stop-color:#0dabd6;stop-opacity:1;" offset="0.90625"/><stop style="stop-color:#0dacd5;stop-opacity:1;" offset="0.914062"/><stop style="stop-color:#0cadd5;stop-opacity:1;" offset="0.921875"/><stop style="stop-color:#0caed5;stop-opacity:1;" offset="0.929688"/><stop style="stop-color:#0bafd5;stop-opacity:1;" offset="0.9375"/><stop style="stop-color:#0ab0d5;stop-opacity:1;" offset="0.945312"/><stop style="stop-color:#0ab0d5;stop-opacity:1;" offset="0.953125"/><stop style="stop-color:#09b1d5;stop-opacity:1;" offset="0.960938"/><stop style="stop-color:#09b2d5;stop-opacity:1;" offset="0.96875"/><stop style="stop-color:#08b3d4;stop-opacity:1;" offset="0.976562"/><stop style="stop-color:#08b4d4;stop-opacity:1;" offset="0.984375"/><stop style="stop-color:#07b5d4;stop-opacity:1;" offset="0.992188"/><stop style="stop-color:#06b6d4;stop-opacity:1;" offset="1"/></linearGradient><clipPath id="f1265d5326"><path d="M 109.929688 109.929688 L 700.070312 109.929688 L 700.070312 700.070312 L 109.929688 700.070312 Z M 109.929688 109.929688 "/></clipPath><clipPath id="45ecd70189"><path d="M 172.773438 497 L 313 497 L 313 637.023438 L 172.773438 637.023438 Z M 172.773438 497 "/></clipPath><clipPath id="b5ab942187"><path d="M 497 497 L 637.023438 497 L 637.023438 637.023438 L 497 637.023438 Z M 497 497 "/></clipPath><clipPath id="e91c472da6"><path d="M 497 172.773438 L 637.023438 172.773438 L 637.023438 313 L 497 313 Z M 497 172.773438 "/></clipPath><clipPath id="54edd41ca9"><path d="M 172.773438 172.773438 L 313 172.773438 L 313 313 L 172.773438 313 Z M 172.773438 172.773438 "/></clipPath></defs><g id="71e9ca9acf"><path style=" stroke:none;fill-rule:nonzero;fill:#1a1b1e;fill-opacity:1;" d="M 202.5 0 L 607.5 0 C 610.8125 0 614.125 0.0820312 617.4375 0.242188 C 620.746094 0.40625 624.050781 0.648438 627.347656 0.976562 C 630.648438 1.300781 633.933594 1.707031 637.210938 2.191406 C 640.492188 2.679688 643.753906 3.246094 647.003906 3.890625 C 650.257812 4.539062 653.488281 5.261719 656.703125 6.070312 C 659.917969 6.875 663.109375 7.757812 666.28125 8.71875 C 669.453125 9.679688 672.601562 10.722656 675.71875 11.835938 C 678.839844 12.953125 681.929688 14.144531 684.992188 15.414062 C 688.054688 16.683594 691.082031 18.023438 694.078125 19.441406 C 697.074219 20.859375 700.035156 22.347656 702.957031 23.910156 C 705.878906 25.472656 708.761719 27.105469 711.605469 28.808594 C 714.449219 30.515625 717.246094 32.285156 720.003906 34.128906 C 722.757812 35.96875 725.46875 37.875 728.128906 39.851562 C 730.789062 41.824219 733.402344 43.863281 735.964844 45.964844 C 738.527344 48.066406 741.035156 50.230469 743.492188 52.457031 C 745.945312 54.683594 748.34375 56.96875 750.6875 59.3125 C 753.03125 61.652344 755.316406 64.054688 757.542969 66.507812 C 759.769531 68.964844 761.933594 71.472656 764.035156 74.035156 C 766.136719 76.597656 768.175781 79.210938 770.148438 81.871094 C 772.125 84.53125 774.03125 87.242188 775.871094 89.996094 C 777.714844 92.753906 779.484375 95.550781 781.191406 98.394531 C 782.894531 101.238281 784.527344 104.121094 786.089844 107.042969 C 787.652344 109.964844 789.140625 112.925781 790.558594 115.921875 C 791.976562 118.914062 793.316406 121.945312 794.585938 125.007812 C 795.855469 128.070312 797.046875 131.160156 798.164062 134.28125 C 799.277344 137.398438 800.316406 140.546875 801.28125 143.71875 C 802.242188 146.890625 803.125 150.082031 803.929688 153.296875 C 804.738281 156.511719 805.460938 159.742188 806.109375 162.996094 C 806.753906 166.246094 807.320312 169.507812 807.808594 172.785156 C 808.292969 176.066406 808.699219 179.351562 809.023438 182.652344 C 809.351562 185.949219 809.59375 189.253906 809.757812 192.5625 C 809.917969 195.875 810 199.1875 810 202.5 L 810 607.5 C 810 610.8125 809.917969 614.125 809.757812 617.4375 C 809.59375 620.746094 809.351562 624.050781 809.023438 627.347656 C 808.699219 630.648438 808.292969 633.933594 807.808594 637.210938 C 807.320312 640.492188 806.753906 643.753906 806.109375 647.003906 C 805.460938 650.257812 804.738281 653.488281 803.929688 656.703125 C 803.125 659.917969 802.242188 663.109375 801.28125 666.28125 C 800.316406 669.453125 799.277344 672.601562 798.164062 675.71875 C 797.046875 678.839844 795.855469 681.929688 794.585938 684.992188 C 793.316406 688.054688 791.976562 691.082031 790.558594 694.078125 C 789.140625 697.074219 787.652344 700.035156 786.089844 702.957031 C 784.527344 705.878906 782.894531 708.761719 781.191406 711.605469 C 779.484375 714.449219 777.714844 717.246094 775.871094 720.003906 C 774.03125 722.757812 772.125 725.46875 770.148438 728.128906 C 768.175781 730.789062 766.136719 733.402344 764.035156 735.964844 C 761.933594 738.527344 759.769531 741.035156 757.542969 743.492188 C 755.316406 745.945312 753.03125 748.34375 750.6875 750.6875 C 748.34375 753.03125 745.945312 755.316406 743.492188 757.542969 C 741.035156 759.769531 738.527344 761.933594 735.964844 764.035156 C 733.402344 766.136719 730.789062 768.175781 728.128906 770.148438 C 725.46875 772.125 722.757812 774.03125 720.003906 775.871094 C 717.246094 777.714844 714.449219 779.484375 711.605469 781.191406 C 708.761719 782.894531 705.878906 784.527344 702.957031 786.089844 C 700.035156 787.652344 697.074219 789.140625 694.078125 790.558594 C 691.082031 791.976562 688.054688 793.316406 684.992188 794.585938 C 681.929688 795.855469 678.839844 797.046875 675.71875 798.164062 C 672.601562 799.277344 669.453125 800.316406 666.28125 801.28125 C 663.109375 802.242188 659.917969 803.125 656.703125 803.929688 C 653.488281 804.738281 650.257812 805.460938 647.003906 806.109375 C 643.753906 806.753906 640.492188 807.320312 637.210938 807.808594 C 633.933594 808.292969 630.648438 808.699219 627.347656 809.023438 C 624.050781 809.351562 620.746094 809.59375 617.4375 809.757812 C 614.125 809.917969 610.8125 810 607.5 810 L 202.5 810 C 199.1875 810 195.875 809.917969 192.5625 809.757812 C 189.253906 809.59375 185.949219 809.351562 182.652344 809.023438 C 179.351562 808.699219 176.066406 808.292969 172.785156 807.808594 C 169.507812 807.320312 166.246094 806.753906 162.996094 806.109375 C 159.742188 805.460938 156.511719 804.738281 153.296875 803.929688 C 150.082031 803.125 146.890625 802.242188 143.71875 801.28125 C 140.546875 800.316406 137.398438 799.277344 134.28125 798.164062 C 131.160156 797.046875 128.070312 795.855469 125.007812 794.585938 C 121.945312 793.316406 118.914062 791.976562 115.921875 790.558594 C 112.925781 789.140625 109.964844 787.652344 107.042969 786.089844 C 104.121094 784.527344 101.238281 782.894531 98.394531 781.191406 C 95.550781 779.484375 92.753906 777.714844 89.996094 775.871094 C 87.242188 774.03125 84.53125 772.125 81.871094 770.148438 C 79.210938 768.175781 76.597656 766.136719 74.035156 764.035156 C 71.472656 761.933594 68.964844 759.769531 66.507812 757.542969 C 64.054688 755.316406 61.652344 753.03125 59.3125 750.6875 C 56.96875 748.34375 54.683594 745.945312 52.457031 743.492188 C 50.230469 741.035156 48.066406 738.527344 45.964844 735.964844 C 43.863281 733.402344 41.824219 730.789062 39.851562 728.128906 C 37.875 725.46875 35.96875 722.757812 34.128906 720.003906 C 32.285156 717.246094 30.515625 714.449219 28.808594 711.605469 C 27.105469 708.761719 25.472656 705.878906 23.910156 702.957031 C 22.347656 700.035156 20.859375 697.074219 19.441406 694.078125 C 18.023438 691.082031 16.683594 688.054688 15.414062 684.992188 C 14.144531 681.929688 12.953125 678.839844 11.835938 675.71875 C 10.722656 672.601562 9.679688 669.453125 8.71875 666.28125 C 7.757812 663.109375 6.875 659.917969 6.070312 656.703125 C 5.261719 653.488281 4.539062 650.257812 3.890625 647.003906 C 3.246094 643.753906 2.679688 640.492188 2.191406 637.210938 C 1.707031 633.933594 1.300781 630.648438 0.976562 627.347656 C 0.648438 624.050781 0.40625 620.746094 0.242188 617.4375 C 0.0820312 614.125 0 610.8125 0 607.5 L 0 202.5 C 0 199.1875 0.0820312 195.875 0.242188 192.5625 C 0.40625 189.253906 0.648438 185.949219 0.976562 182.652344 C 1.300781 179.351562 1.707031 176.066406 2.191406 172.785156 C 2.679688 169.507812 3.246094 166.246094 3.890625 162.996094 C 4.539062 159.742188 5.261719 156.511719 6.070312 153.296875 C 6.875 150.082031 7.757812 146.890625 8.71875 143.71875 C 9.679688 140.546875 10.722656 137.398438 11.835938 134.28125 C 12.953125 131.160156 14.144531 128.070312 15.414062 125.007812 C 16.683594 121.945312 18.023438 118.914062 19.441406 115.921875 C 20.859375 112.925781 22.347656 109.964844 23.910156 107.042969 C 25.472656 104.121094 27.105469 101.238281 28.808594 98.394531 C 30.515625 95.550781 32.285156 92.753906 34.128906 89.996094 C 35.96875 87.242188 37.875 84.53125 39.851562 81.871094 C 41.824219 79.210938 43.863281 76.597656 45.964844 74.035156 C 48.066406 71.472656 50.230469 68.964844 52.457031 66.507812 C 54.683594 64.054688 56.96875 61.652344 59.3125 59.3125 C 61.652344 56.96875 64.054688 54.683594 66.507812 52.457031 C 68.964844 50.230469 71.472656 48.066406 74.035156 45.964844 C 76.597656 43.863281 79.210938 41.824219 81.871094 39.851562 C 84.53125 37.875 87.242188 35.96875 89.996094 34.128906 C 92.753906 32.285156 95.550781 30.515625 98.394531 28.808594 C 101.238281 27.105469 104.121094 25.472656 107.042969 23.910156 C 109.964844 22.347656 112.925781 20.859375 115.921875 19.441406 C 118.914062 18.023438 121.945312 16.683594 125.007812 15.414062 C 128.070312 14.144531 131.160156 12.953125 134.28125 11.835938 C 137.398438 10.722656 140.546875 9.679688 143.71875 8.71875 C 146.890625 7.757812 150.082031 6.875 153.296875 6.070312 C 156.511719 5.261719 159.742188 4.539062 162.996094 3.890625 C 166.246094 3.246094 169.507812 2.679688 172.785156 2.191406 C 176.066406 1.707031 179.351562 1.300781 182.652344 0.976562 C 185.949219 0.648438 189.253906 0.40625 192.5625 0.242188 C 195.875 0.0820312 199.1875 0 202.5 0 Z M 202.5 0 "/><g clip-rule="nonzero" clip-path="url(#1f8bf0a621)"><g clip-rule="nonzero" clip-path="url(#9f640eebf8)"><path style=" stroke:none;fill-rule:nonzero;fill:url(#linear0);" d="M 151.875 151.875 L 151.875 658.125 L 658.125 658.125 L 658.125 151.875 Z M 151.875 151.875 "/></g></g><path style=" stroke:none;fill-rule:nonzero;fill:#1a1b1e;fill-opacity:1;" d="M 405 246.796875 C 318.351562 246.796875 246.796875 318.351562 246.796875 405 C 246.796875 491.648438 318.351562 563.203125 405 563.203125 C 491.648438 563.203125 563.203125 491.648438 563.203125 405 C 563.203125 318.351562 491.648438 246.796875 405 246.796875 Z M 405 515.742188 C 344.804688 515.742188 294.257812 465.195312 294.257812 405 C 294.257812 344.804688 344.804688 294.257812 405 294.257812 C 465.195312 294.257812 515.742188 344.804688 515.742188 405 C 515.742188 465.195312 465.195312 515.742188 405 515.742188 Z M 405 515.742188 "/><g clip-rule="nonzero" clip-path="url(#f1265d5326)"><path style=" stroke:none;fill-rule:nonzero;fill:#1a1b1e;fill-opacity:1;" d="M 109.929688 109.929688 L 700.070312 109.929688 L 700.070312 700.070312 L 109.929688 700.070312 Z M 109.929688 109.929688 "/></g><g clip-rule="nonzero" clip-path="url(#45ecd70189)"><path style=" stroke:none;fill-rule:nonzero;fill:#5a59f1;fill-opacity:1;" d="M 296.574219 637.023438 L 219.199219 637.023438 C 217.679688 637.023438 216.160156 636.949219 214.648438 636.800781 C 213.136719 636.652344 211.632812 636.429688 210.140625 636.132812 C 208.652344 635.835938 207.175781 635.464844 205.722656 635.023438 C 204.269531 634.582031 202.835938 634.070312 201.433594 633.488281 C 200.027344 632.910156 198.65625 632.257812 197.316406 631.542969 C 195.972656 630.824219 194.671875 630.042969 193.40625 629.199219 C 192.140625 628.355469 190.921875 627.449219 189.746094 626.484375 C 188.570312 625.523438 187.445312 624.5 186.371094 623.425781 C 185.296875 622.351562 184.277344 621.226562 183.3125 620.050781 C 182.347656 618.875 181.441406 617.65625 180.597656 616.390625 C 179.753906 615.128906 178.972656 613.824219 178.257812 612.484375 C 177.539062 611.144531 176.890625 609.769531 176.308594 608.363281 C 175.726562 606.960938 175.214844 605.53125 174.773438 604.074219 C 174.332031 602.621094 173.960938 601.148438 173.667969 599.65625 C 173.371094 598.164062 173.148438 596.664062 172.996094 595.148438 C 172.847656 593.636719 172.773438 592.121094 172.773438 590.597656 L 172.773438 513.222656 C 172.773438 512.207031 172.875 511.203125 173.070312 510.203125 C 173.269531 509.207031 173.5625 508.242188 173.953125 507.300781 C 174.339844 506.363281 174.816406 505.472656 175.382812 504.625 C 175.945312 503.78125 176.589844 503 177.304688 502.28125 C 178.023438 501.5625 178.808594 500.921875 179.652344 500.355469 C 180.496094 499.792969 181.386719 499.316406 182.328125 498.925781 C 183.265625 498.539062 184.234375 498.246094 185.230469 498.046875 C 186.226562 497.847656 187.234375 497.75 188.25 497.75 C 189.265625 497.75 190.273438 497.847656 191.269531 498.046875 C 192.265625 498.246094 193.230469 498.539062 194.171875 498.925781 C 195.109375 499.316406 196 499.792969 196.847656 500.355469 C 197.691406 500.921875 198.472656 501.5625 199.191406 502.28125 C 199.910156 503 200.550781 503.78125 201.117188 504.625 C 201.679688 505.472656 202.15625 506.363281 202.546875 507.300781 C 202.933594 508.242188 203.226562 509.207031 203.425781 510.203125 C 203.625 511.203125 203.722656 512.207031 203.722656 513.222656 L 203.722656 590.597656 C 203.722656 591.613281 203.824219 592.621094 204.019531 593.617188 C 204.21875 594.613281 204.511719 595.582031 204.902344 596.519531 C 205.289062 597.460938 205.765625 598.351562 206.332031 599.195312 C 206.898438 600.042969 207.539062 600.824219 208.257812 601.542969 C 208.976562 602.261719 209.757812 602.902344 210.601562 603.464844 C 211.445312 604.03125 212.339844 604.507812 213.277344 604.894531 C 214.214844 605.285156 215.183594 605.578125 216.179688 605.777344 C 217.175781 605.976562 218.183594 606.074219 219.199219 606.074219 L 296.574219 606.074219 C 297.589844 606.074219 298.597656 606.171875 299.59375 606.371094 C 300.589844 606.570312 301.558594 606.863281 302.496094 607.253906 C 303.433594 607.640625 304.328125 608.117188 305.171875 608.683594 C 306.015625 609.246094 306.796875 609.886719 307.515625 610.605469 C 308.234375 611.324219 308.875 612.105469 309.441406 612.953125 C 310.003906 613.796875 310.480469 614.6875 310.871094 615.628906 C 311.261719 616.566406 311.554688 617.535156 311.75 618.53125 C 311.949219 619.527344 312.050781 620.53125 312.050781 621.550781 C 312.050781 622.566406 311.949219 623.570312 311.75 624.566406 C 311.554688 625.566406 311.261719 626.53125 310.871094 627.472656 C 310.480469 628.410156 310.003906 629.300781 309.441406 630.148438 C 308.875 630.992188 308.234375 631.773438 307.515625 632.492188 C 306.796875 633.210938 306.015625 633.851562 305.171875 634.417969 C 304.328125 634.980469 303.433594 635.457031 302.496094 635.847656 C 301.558594 636.234375 300.589844 636.527344 299.59375 636.726562 C 298.597656 636.925781 297.589844 637.023438 296.574219 637.023438 Z M 296.574219 637.023438 "/></g><g clip-rule="nonzero" clip-path="url(#b5ab942187)"><path style=" stroke:none;fill-rule:nonzero;fill:#5a59f1;fill-opacity:1;" d="M 590.597656 637.023438 L 513.222656 637.023438 C 512.207031 637.023438 511.203125 636.925781 510.203125 636.726562 C 509.207031 636.527344 508.242188 636.234375 507.300781 635.847656 C 506.363281 635.457031 505.472656 634.980469 504.625 634.417969 C 503.78125 633.851562 503 633.210938 502.28125 632.492188 C 501.5625 631.773438 500.921875 630.992188 500.355469 630.148438 C 499.792969 629.300781 499.316406 628.410156 498.925781 627.472656 C 498.539062 626.53125 498.246094 625.566406 498.046875 624.566406 C 497.847656 623.570312 497.75 622.566406 497.75 621.550781 C 497.75 620.53125 497.847656 619.527344 498.046875 618.53125 C 498.246094 617.535156 498.539062 616.566406 498.925781 615.628906 C 499.316406 614.6875 499.792969 613.796875 500.355469 612.953125 C 500.921875 612.105469 501.5625 611.324219 502.28125 610.605469 C 503 609.886719 503.78125 609.246094 504.625 608.683594 C 505.472656 608.117188 506.363281 607.640625 507.300781 607.253906 C 508.242188 606.863281 509.207031 606.570312 510.203125 606.371094 C 511.203125 606.171875 512.207031 606.074219 513.222656 606.074219 L 590.597656 606.074219 C 591.613281 606.074219 592.621094 605.976562 593.617188 605.777344 C 594.613281 605.578125 595.582031 605.285156 596.519531 604.894531 C 597.460938 604.507812 598.351562 604.03125 599.195312 603.464844 C 600.042969 602.902344 600.824219 602.261719 601.542969 601.542969 C 602.261719 600.824219 602.902344 600.042969 603.464844 599.195312 C 604.03125 598.351562 604.507812 597.460938 604.894531 596.519531 C 605.285156 595.582031 605.578125 594.613281 605.777344 593.617188 C 605.976562 592.621094 606.074219 591.613281 606.074219 590.597656 L 606.074219 513.222656 C 606.074219 512.207031 606.171875 511.203125 606.371094 510.203125 C 606.570312 509.207031 606.863281 508.242188 607.25 507.300781 C 607.640625 506.363281 608.117188 505.472656 608.683594 504.625 C 609.246094 503.78125 609.886719 503 610.605469 502.28125 C 611.324219 501.5625 612.105469 500.921875 612.953125 500.355469 C 613.796875 499.792969 614.6875 499.316406 615.625 498.925781 C 616.566406 498.539062 617.535156 498.246094 618.53125 498.046875 C 619.527344 497.847656 620.53125 497.75 621.550781 497.75 C 622.566406 497.75 623.570312 497.847656 624.566406 498.046875 C 625.566406 498.246094 626.53125 498.539062 627.472656 498.925781 C 628.410156 499.316406 629.300781 499.792969 630.144531 500.355469 C 630.992188 500.921875 631.773438 501.5625 632.492188 502.28125 C 633.210938 503 633.851562 503.78125 634.414062 504.625 C 634.980469 505.472656 635.457031 506.363281 635.847656 507.300781 C 636.234375 508.242188 636.527344 509.207031 636.726562 510.203125 C 636.925781 511.203125 637.023438 512.207031 637.023438 513.222656 L 637.023438 590.597656 C 637.023438 592.121094 636.949219 593.636719 636.800781 595.148438 C 636.652344 596.664062 636.429688 598.164062 636.132812 599.65625 C 635.835938 601.148438 635.464844 602.621094 635.023438 604.074219 C 634.582031 605.53125 634.070312 606.960938 633.488281 608.363281 C 632.910156 609.769531 632.257812 611.144531 631.542969 612.484375 C 630.824219 613.824219 630.042969 615.128906 629.199219 616.390625 C 628.355469 617.65625 627.449219 618.875 626.484375 620.050781 C 625.519531 621.226562 624.5 622.351562 623.425781 623.425781 C 622.351562 624.5 621.226562 625.523438 620.050781 626.484375 C 618.875 627.449219 617.65625 628.355469 616.390625 629.199219 C 615.128906 630.042969 613.824219 630.824219 612.484375 631.542969 C 611.144531 632.257812 609.769531 632.910156 608.363281 633.488281 C 606.960938 634.070312 605.53125 634.582031 604.074219 635.023438 C 602.621094 635.464844 601.148438 635.835938 599.65625 636.132812 C 598.164062 636.429688 596.664062 636.652344 595.148438 636.800781 C 593.636719 636.949219 592.121094 637.023438 590.597656 637.023438 Z M 590.597656 637.023438 "/></g><g clip-rule="nonzero" clip-path="url(#e91c472da6)"><path style=" stroke:none;fill-rule:nonzero;fill:#5a59f1;fill-opacity:1;" d="M 621.550781 312.050781 C 620.53125 312.050781 619.527344 311.949219 618.53125 311.75 C 617.535156 311.554688 616.566406 311.261719 615.625 310.871094 C 614.6875 310.480469 613.796875 310.003906 612.953125 309.441406 C 612.105469 308.875 611.324219 308.234375 610.605469 307.515625 C 609.886719 306.796875 609.246094 306.015625 608.683594 305.171875 C 608.117188 304.328125 607.640625 303.433594 607.25 302.496094 C 606.863281 301.558594 606.570312 300.589844 606.371094 299.59375 C 606.171875 298.597656 606.074219 297.589844 606.074219 296.574219 L 606.074219 219.199219 C 606.074219 218.183594 605.976562 217.175781 605.777344 216.179688 C 605.578125 215.183594 605.285156 214.214844 604.894531 213.277344 C 604.507812 212.339844 604.03125 211.445312 603.464844 210.601562 C 602.902344 209.757812 602.261719 208.976562 601.542969 208.257812 C 600.824219 207.539062 600.042969 206.898438 599.195312 206.332031 C 598.351562 205.769531 597.460938 205.289062 596.519531 204.902344 C 595.582031 204.511719 594.613281 204.21875 593.617188 204.019531 C 592.621094 203.824219 591.613281 203.722656 590.597656 203.722656 L 513.222656 203.722656 C 512.207031 203.722656 511.203125 203.625 510.203125 203.425781 C 509.207031 203.230469 508.242188 202.933594 507.300781 202.546875 C 506.363281 202.15625 505.472656 201.679688 504.625 201.117188 C 503.78125 200.550781 503 199.910156 502.28125 199.191406 C 501.5625 198.472656 500.921875 197.691406 500.355469 196.847656 C 499.792969 196 499.316406 195.109375 498.925781 194.171875 C 498.539062 193.230469 498.246094 192.265625 498.046875 191.269531 C 497.847656 190.273438 497.75 189.265625 497.75 188.25 C 497.75 187.234375 497.847656 186.226562 498.046875 185.230469 C 498.246094 184.234375 498.539062 183.265625 498.925781 182.328125 C 499.316406 181.386719 499.792969 180.496094 500.355469 179.652344 C 500.921875 178.808594 501.5625 178.023438 502.28125 177.304688 C 503 176.589844 503.78125 175.945312 504.625 175.382812 C 505.472656 174.816406 506.363281 174.339844 507.300781 173.953125 C 508.242188 173.5625 509.207031 173.269531 510.203125 173.070312 C 511.203125 172.875 512.207031 172.773438 513.222656 172.773438 L 590.597656 172.773438 C 592.121094 172.773438 593.636719 172.847656 595.148438 172.996094 C 596.664062 173.148438 598.164062 173.371094 599.65625 173.667969 C 601.148438 173.960938 602.621094 174.332031 604.074219 174.773438 C 605.53125 175.214844 606.960938 175.726562 608.363281 176.308594 C 609.769531 176.890625 611.144531 177.539062 612.484375 178.257812 C 613.824219 178.972656 615.128906 179.753906 616.390625 180.597656 C 617.65625 181.441406 618.875 182.347656 620.050781 183.3125 C 621.226562 184.277344 622.351562 185.296875 623.425781 186.371094 C 624.5 187.445312 625.519531 188.570312 626.484375 189.746094 C 627.449219 190.921875 628.355469 192.140625 629.199219 193.40625 C 630.042969 194.671875 630.824219 195.972656 631.542969 197.316406 C 632.257812 198.65625 632.910156 200.027344 633.488281 201.433594 C 634.070312 202.835938 634.582031 204.269531 635.023438 205.722656 C 635.464844 207.175781 635.835938 208.652344 636.132812 210.140625 C 636.429688 211.632812 636.652344 213.136719 636.800781 214.648438 C 636.949219 216.160156 637.023438 217.679688 637.023438 219.199219 L 637.023438 296.574219 C 637.023438 297.589844 636.925781 298.597656 636.726562 299.59375 C 636.527344 300.589844 636.234375 301.558594 635.847656 302.496094 C 635.457031 303.433594 634.980469 304.328125 634.414062 305.171875 C 633.851562 306.015625 633.210938 306.796875 632.492188 307.515625 C 631.773438 308.234375 630.992188 308.875 630.144531 309.441406 C 629.300781 310.003906 628.410156 310.480469 627.472656 310.871094 C 626.53125 311.261719 625.566406 311.554688 624.566406 311.75 C 623.570312 311.949219 622.566406 312.050781 621.550781 312.050781 Z M 621.550781 312.050781 "/></g><g clip-rule="nonzero" clip-path="url(#54edd41ca9)"><path style=" stroke:none;fill-rule:nonzero;fill:#5a59f1;fill-opacity:1;" d="M 188.25 312.050781 C 187.234375 312.050781 186.226562 311.949219 185.230469 311.75 C 184.234375 311.554688 183.265625 311.261719 182.328125 310.871094 C 181.386719 310.480469 180.496094 310.003906 179.652344 309.441406 C 178.808594 308.875 178.023438 308.234375 177.304688 307.515625 C 176.589844 306.796875 175.945312 306.015625 175.382812 305.171875 C 174.816406 304.328125 174.339844 303.433594 173.953125 302.496094 C 173.5625 301.558594 173.269531 300.589844 173.070312 299.59375 C 172.875 298.597656 172.773438 297.589844 172.773438 296.574219 L 172.773438 219.199219 C 172.773438 217.679688 172.847656 216.160156 172.996094 214.648438 C 173.148438 213.136719 173.371094 211.632812 173.667969 210.140625 C 173.960938 208.652344 174.332031 207.175781 174.773438 205.722656 C 175.214844 204.269531 175.726562 202.835938 176.308594 201.433594 C 176.890625 200.027344 177.539062 198.65625 178.257812 197.316406 C 178.972656 195.972656 179.753906 194.671875 180.597656 193.40625 C 181.441406 192.140625 182.347656 190.921875 183.3125 189.746094 C 184.277344 188.570312 185.296875 187.445312 186.371094 186.371094 C 187.445312 185.296875 188.570312 184.277344 189.746094 183.3125 C 190.921875 182.347656 192.140625 181.441406 193.40625 180.597656 C 194.671875 179.753906 195.972656 178.972656 197.316406 178.257812 C 198.65625 177.539062 200.027344 176.890625 201.433594 176.308594 C 202.835938 175.726562 204.269531 175.214844 205.722656 174.773438 C 207.175781 174.332031 208.652344 173.960938 210.140625 173.667969 C 211.632812 173.371094 213.136719 173.148438 214.648438 172.996094 C 216.160156 172.847656 217.679688 172.773438 219.199219 172.773438 L 296.574219 172.773438 C 297.589844 172.773438 298.597656 172.875 299.59375 173.070312 C 300.589844 173.269531 301.558594 173.5625 302.496094 173.953125 C 303.433594 174.339844 304.328125 174.816406 305.171875 175.382812 C 306.015625 175.945312 306.796875 176.589844 307.515625 177.304688 C 308.234375 178.023438 308.875 178.808594 309.441406 179.652344 C 310.003906 180.496094 310.480469 181.386719 310.871094 182.328125 C 311.261719 183.265625 311.554688 184.234375 311.75 185.230469 C 311.949219 186.226562 312.050781 187.234375 312.050781 188.25 C 312.050781 189.265625 311.949219 190.273438 311.75 191.269531 C 311.554688 192.265625 311.261719 193.230469 310.871094 194.171875 C 310.480469 195.109375 310.003906 196 309.441406 196.847656 C 308.875 197.691406 308.234375 198.472656 307.515625 199.191406 C 306.796875 199.910156 306.015625 200.550781 305.171875 201.117188 C 304.328125 201.679688 303.433594 202.15625 302.496094 202.546875 C 301.558594 202.933594 300.589844 203.230469 299.59375 203.425781 C 298.597656 203.625 297.589844 203.722656 296.574219 203.722656 L 219.199219 203.722656 C 218.183594 203.722656 217.175781 203.824219 216.179688 204.019531 C 215.183594 204.21875 214.214844 204.511719 213.277344 204.902344 C 212.339844 205.289062 211.445312 205.769531 210.601562 206.332031 C 209.757812 206.898438 208.976562 207.539062 208.257812 208.257812 C 207.539062 208.976562 206.898438 209.757812 206.332031 210.601562 C 205.765625 211.445312 205.289062 212.339844 204.902344 213.277344 C 204.511719 214.214844 204.21875 215.183594 204.019531 216.179688 C 203.824219 217.175781 203.722656 218.183594 203.722656 219.199219 L 203.722656 296.574219 C 203.722656 297.589844 203.625 298.597656 203.425781 299.59375 C 203.226562 300.589844 202.933594 301.558594 202.546875 302.496094 C 202.15625 303.433594 201.679688 304.328125 201.117188 305.171875 C 200.550781 306.015625 199.910156 306.796875 199.191406 307.515625 C 198.472656 308.234375 197.691406 308.875 196.847656 309.441406 C 196 310.003906 195.109375 310.480469 194.171875 310.871094 C 193.230469 311.261719 192.265625 311.554688 191.269531 311.75 C 190.273438 311.949219 189.265625 312.050781 188.25 312.050781 Z M 188.25 312.050781 "/></g><path style=" stroke:none;fill-rule:nonzero;fill:#5a59f1;fill-opacity:1;" d="M 497.75 343 C 497.75 344.519531 497.710938 346.039062 497.636719 347.554688 C 497.5625 349.074219 497.449219 350.585938 497.300781 352.101562 C 497.152344 353.613281 496.96875 355.121094 496.742188 356.621094 C 496.519531 358.125 496.261719 359.621094 495.964844 361.113281 C 495.667969 362.605469 495.335938 364.085938 494.964844 365.558594 C 494.597656 367.035156 494.191406 368.496094 493.75 369.953125 C 493.308594 371.40625 492.832031 372.847656 492.320312 374.277344 C 491.808594 375.710938 491.261719 377.128906 490.679688 378.53125 C 490.101562 379.933594 489.484375 381.324219 488.835938 382.699219 C 488.183594 384.070312 487.5 385.429688 486.785156 386.769531 C 486.070312 388.109375 485.320312 389.429688 484.539062 390.734375 C 483.757812 392.035156 482.945312 393.320312 482.101562 394.582031 C 481.257812 395.847656 480.382812 397.089844 479.476562 398.308594 C 478.570312 399.53125 477.636719 400.726562 476.671875 401.902344 C 475.710938 403.078125 474.71875 404.226562 473.695312 405.351562 C 472.675781 406.480469 471.628906 407.578125 470.554688 408.652344 C 469.480469 409.726562 468.378906 410.777344 467.253906 411.796875 C 466.128906 412.816406 464.976562 413.808594 463.800781 414.773438 C 462.628906 415.738281 461.429688 416.671875 460.210938 417.578125 C 458.988281 418.480469 457.746094 419.355469 456.484375 420.199219 C 455.21875 421.046875 453.9375 421.859375 452.632812 422.640625 C 451.328125 423.421875 450.007812 424.167969 448.667969 424.886719 C 447.328125 425.601562 445.972656 426.285156 444.597656 426.933594 C 443.222656 427.585938 441.835938 428.199219 440.429688 428.78125 C 439.027344 429.363281 437.609375 429.910156 436.179688 430.421875 C 434.75 430.933594 433.304688 431.410156 431.851562 431.851562 C 430.398438 432.292969 428.933594 432.695312 427.460938 433.066406 C 425.984375 433.4375 424.503906 433.769531 423.011719 434.066406 C 421.523438 434.363281 420.027344 434.621094 418.523438 434.84375 C 417.019531 435.066406 415.511719 435.253906 414 435.402344 C 412.488281 435.550781 410.972656 435.664062 409.453125 435.738281 C 407.9375 435.8125 406.417969 435.847656 404.898438 435.847656 C 403.378906 435.847656 401.859375 435.8125 400.34375 435.738281 C 398.824219 435.664062 397.308594 435.550781 395.796875 435.402344 C 394.285156 435.253906 392.777344 435.066406 391.273438 434.84375 C 389.773438 434.621094 388.273438 434.363281 386.785156 434.066406 C 385.292969 433.769531 383.8125 433.4375 382.339844 433.066406 C 380.863281 432.695312 379.398438 432.292969 377.945312 431.851562 C 376.492188 431.410156 375.050781 430.933594 373.617188 430.421875 C 372.1875 429.910156 370.769531 429.363281 369.367188 428.78125 C 367.964844 428.199219 366.574219 427.585938 365.199219 426.933594 C 363.828125 426.285156 362.46875 425.601562 361.128906 424.886719 C 359.789062 424.167969 358.46875 423.421875 357.164062 422.640625 C 355.859375 421.859375 354.578125 421.046875 353.3125 420.199219 C 352.050781 419.355469 350.808594 418.480469 349.589844 417.578125 C 348.367188 416.671875 347.171875 415.738281 345.996094 414.773438 C 344.820312 413.808594 343.671875 412.816406 342.542969 411.796875 C 341.417969 410.777344 340.320312 409.726562 339.246094 408.652344 C 338.167969 407.578125 337.121094 406.480469 336.101562 405.351562 C 335.082031 404.226562 334.089844 403.078125 333.125 401.902344 C 332.160156 400.726562 331.226562 399.53125 330.320312 398.308594 C 329.414062 397.089844 328.542969 395.847656 327.695312 394.582031 C 326.851562 393.320312 326.039062 392.035156 325.257812 390.734375 C 324.476562 389.429688 323.730469 388.109375 323.011719 386.769531 C 322.296875 385.429688 321.613281 384.070312 320.964844 382.699219 C 320.3125 381.324219 319.699219 379.933594 319.117188 378.53125 C 318.535156 377.128906 317.988281 375.710938 317.476562 374.277344 C 316.964844 372.847656 316.488281 371.40625 316.046875 369.953125 C 315.605469 368.496094 315.199219 367.035156 314.832031 365.558594 C 314.460938 364.085938 314.128906 362.605469 313.832031 361.113281 C 313.535156 359.621094 313.277344 358.125 313.054688 356.621094 C 312.832031 355.121094 312.644531 353.613281 312.496094 352.101562 C 312.347656 350.585938 312.234375 349.074219 312.160156 347.554688 C 312.085938 346.039062 312.050781 344.519531 312.050781 343 C 312.050781 341.480469 312.085938 339.960938 312.160156 338.441406 C 312.234375 336.925781 312.347656 335.410156 312.496094 333.898438 C 312.644531 332.386719 312.832031 330.878906 313.054688 329.375 C 313.277344 327.871094 313.535156 326.375 313.832031 324.886719 C 314.128906 323.394531 314.460938 321.914062 314.832031 320.4375 C 315.199219 318.964844 315.605469 317.5 316.046875 316.046875 C 316.488281 314.59375 316.964844 313.148438 317.476562 311.71875 C 317.988281 310.289062 318.535156 308.871094 319.117188 307.46875 C 319.699219 306.0625 320.3125 304.675781 320.964844 303.300781 C 321.613281 301.925781 322.296875 300.570312 323.011719 299.230469 C 323.730469 297.890625 324.476562 296.566406 325.257812 295.265625 C 326.039062 293.960938 326.851562 292.679688 327.695312 291.414062 C 328.542969 290.152344 329.414062 288.910156 330.320312 287.6875 C 331.226562 286.46875 332.160156 285.269531 333.125 284.09375 C 334.089844 282.921875 335.082031 281.769531 336.101562 280.644531 C 337.121094 279.519531 338.167969 278.417969 339.246094 277.34375 C 340.320312 276.269531 341.417969 275.222656 342.542969 274.203125 C 343.671875 273.179688 344.820312 272.1875 345.996094 271.226562 C 347.171875 270.261719 348.367188 269.328125 349.589844 268.421875 C 350.808594 267.515625 352.050781 266.640625 353.3125 265.796875 C 354.578125 264.953125 355.859375 264.140625 357.164062 263.359375 C 358.46875 262.578125 359.789062 261.828125 361.128906 261.113281 C 362.46875 260.394531 363.828125 259.714844 365.199219 259.0625 C 366.574219 258.414062 367.964844 257.796875 369.367188 257.21875 C 370.769531 256.636719 372.1875 256.089844 373.617188 255.578125 C 375.050781 255.066406 376.492188 254.589844 377.945312 254.148438 C 379.398438 253.707031 380.863281 253.300781 382.339844 252.933594 C 383.8125 252.5625 385.292969 252.230469 386.785156 251.933594 C 388.273438 251.636719 389.773438 251.378906 391.273438 251.152344 C 392.777344 250.929688 394.285156 250.746094 395.796875 250.597656 C 397.308594 250.445312 398.824219 250.335938 400.34375 250.261719 C 401.859375 250.1875 403.378906 250.148438 404.898438 250.148438 C 406.417969 250.148438 407.9375 250.1875 409.453125 250.261719 C 410.972656 250.335938 412.488281 250.445312 414 250.597656 C 415.511719 250.746094 417.019531 250.929688 418.523438 251.152344 C 420.027344 251.378906 421.523438 251.636719 423.011719 251.933594 C 424.503906 252.230469 425.984375 252.5625 427.460938 252.933594 C 428.933594 253.300781 430.398438 253.707031 431.851562 254.148438 C 433.304688 254.589844 434.75 255.066406 436.179688 255.578125 C 437.609375 256.089844 439.027344 256.636719 440.429688 257.21875 C 441.835938 257.796875 443.222656 258.414062 444.597656 259.0625 C 445.972656 259.714844 447.328125 260.394531 448.667969 261.113281 C 450.007812 261.828125 451.328125 262.578125 452.632812 263.359375 C 453.9375 264.140625 455.21875 264.953125 456.484375 265.796875 C 457.746094 266.640625 458.988281 267.515625 460.210938 268.421875 C 461.429688 269.328125 462.628906 270.261719 463.800781 271.226562 C 464.976562 272.1875 466.128906 273.179688 467.253906 274.203125 C 468.378906 275.222656 469.480469 276.269531 470.554688 277.34375 C 471.628906 278.417969 472.675781 279.519531 473.695312 280.644531 C 474.71875 281.769531 475.710938 282.921875 476.671875 284.09375 C 477.636719 285.269531 478.570312 286.46875 479.476562 287.6875 C 480.382812 288.910156 481.257812 290.152344 482.101562 291.414062 C 482.945312 292.679688 483.757812 293.960938 484.539062 295.265625 C 485.320312 296.566406 486.070312 297.890625 486.785156 299.230469 C 487.5 300.570312 488.183594 301.925781 488.835938 303.300781 C 489.484375 304.675781 490.101562 306.0625 490.679688 307.46875 C 491.261719 308.871094 491.808594 310.289062 492.320312 311.71875 C 492.832031 313.148438 493.308594 314.59375 493.75 316.046875 C 494.191406 317.5 494.597656 318.964844 494.964844 320.4375 C 495.335938 321.914062 495.667969 323.394531 495.964844 324.886719 C 496.261719 326.375 496.519531 327.871094 496.742188 329.375 C 496.96875 330.878906 497.152344 332.386719 497.300781 333.898438 C 497.449219 335.410156 497.5625 336.925781 497.636719 338.441406 C 497.710938 339.960938 497.75 341.480469 497.75 343 Z M 497.75 343 "/><path style=" stroke:none;fill-rule:nonzero;fill:#5a59f1;fill-opacity:1;" d="M 544.175781 544.175781 C 544.175781 545.191406 544.074219 546.195312 543.875 547.191406 C 543.679688 548.191406 543.386719 549.15625 542.996094 550.097656 C 542.605469 551.035156 542.128906 551.925781 541.566406 552.773438 C 541 553.617188 540.359375 554.398438 539.640625 555.117188 C 538.921875 555.835938 538.140625 556.476562 537.296875 557.039062 C 536.453125 557.605469 535.558594 558.082031 534.621094 558.472656 C 533.683594 558.859375 532.714844 559.152344 531.71875 559.351562 C 530.722656 559.550781 529.714844 559.648438 528.699219 559.648438 L 281.097656 559.648438 C 280.082031 559.648438 279.078125 559.550781 278.078125 559.351562 C 277.082031 559.152344 276.117188 558.859375 275.175781 558.472656 C 274.238281 558.082031 273.347656 557.605469 272.5 557.039062 C 271.65625 556.476562 270.875 555.835938 270.15625 555.117188 C 269.4375 554.398438 268.796875 553.617188 268.230469 552.769531 C 267.667969 551.925781 267.191406 551.035156 266.800781 550.097656 C 266.414062 549.15625 266.121094 548.191406 265.921875 547.191406 C 265.722656 546.195312 265.625 545.191406 265.625 544.175781 C 265.625 538.828125 265.933594 533.5 266.546875 528.191406 C 267.164062 522.882812 268.082031 517.625 269.300781 512.421875 C 270.519531 507.214844 272.035156 502.097656 273.84375 497.070312 C 275.652344 492.039062 277.746094 487.128906 280.121094 482.339844 C 282.492188 477.550781 285.136719 472.914062 288.042969 468.429688 C 290.953125 463.945312 294.109375 459.644531 297.511719 455.519531 C 300.914062 451.398438 304.542969 447.488281 308.398438 443.785156 C 312.253906 440.082031 316.304688 436.609375 320.558594 433.375 C 321.972656 434.699219 323.410156 435.992188 324.882812 437.25 C 326.355469 438.507812 327.855469 439.730469 329.382812 440.917969 C 330.914062 442.105469 332.46875 443.257812 334.050781 444.371094 C 335.636719 445.484375 337.246094 446.558594 338.878906 447.597656 C 340.511719 448.636719 342.171875 449.636719 343.851562 450.59375 C 345.53125 451.554688 347.234375 452.476562 348.960938 453.355469 C 350.683594 454.234375 352.429688 455.074219 354.191406 455.871094 C 355.957031 456.667969 357.738281 457.421875 359.539062 458.136719 C 361.339844 458.847656 363.15625 459.519531 364.984375 460.148438 C 366.816406 460.773438 368.664062 461.359375 370.519531 461.898438 C 372.378906 462.441406 374.25 462.9375 376.132812 463.390625 C 378.015625 463.839844 379.90625 464.25 381.808594 464.613281 C 383.710938 464.976562 385.621094 465.292969 387.535156 465.566406 C 389.453125 465.839844 391.375 466.066406 393.300781 466.25 C 395.230469 466.433594 397.160156 466.570312 399.09375 466.660156 C 401.027344 466.75 402.964844 466.796875 404.898438 466.796875 C 406.835938 466.796875 408.769531 466.75 410.703125 466.660156 C 412.636719 466.570312 414.566406 466.433594 416.496094 466.25 C 418.421875 466.066406 420.34375 465.839844 422.261719 465.566406 C 424.179688 465.292969 426.085938 464.976562 427.988281 464.613281 C 429.890625 464.25 431.78125 463.839844 433.664062 463.390625 C 435.546875 462.9375 437.417969 462.441406 439.277344 461.898438 C 441.136719 461.359375 442.980469 460.773438 444.8125 460.148438 C 446.644531 459.519531 448.460938 458.847656 450.257812 458.136719 C 452.058594 457.421875 453.839844 456.667969 455.605469 455.871094 C 457.371094 455.074219 459.113281 454.234375 460.839844 453.355469 C 462.5625 452.476562 464.265625 451.554688 465.945312 450.59375 C 467.628906 449.636719 469.285156 448.636719 470.917969 447.597656 C 472.554688 446.558594 474.164062 445.484375 475.746094 444.371094 C 477.328125 443.257812 478.886719 442.105469 480.414062 440.917969 C 481.945312 439.730469 483.445312 438.507812 484.914062 437.25 C 486.386719 435.992188 487.828125 434.699219 489.238281 433.375 C 493.492188 436.609375 497.546875 440.082031 501.398438 443.785156 C 505.253906 447.488281 508.882812 451.398438 512.285156 455.519531 C 515.691406 459.644531 518.847656 463.945312 521.753906 468.429688 C 524.664062 472.914062 527.304688 477.550781 529.679688 482.339844 C 532.054688 487.128906 534.144531 492.039062 535.953125 497.070312 C 537.761719 502.097656 539.277344 507.214844 540.496094 512.421875 C 541.71875 517.625 542.636719 522.882812 543.25 528.191406 C 543.863281 533.5 544.171875 538.828125 544.175781 544.175781 Z M 544.175781 544.175781 "/></g></svg>