<svg xmlns="http://www.w3.org/2000/svg" xmlns:xlink="http://www.w3.org/1999/xlink" width="1080" zoomAndPan="magnify" viewBox="0 0 810 809.999993" height="1080" preserveAspectRatio="xMidYMid meet" version="1.2"><defs><clipPath id="c08c2f37c1"><path d="M 151 151 L 659 151 L 659 659 L 151 659 Z M 151 151 "/></clipPath><clipPath id="069ea0e27b"><path d="M 658.125 405 C 658.125 409.140625 658.023438 413.28125 657.820312 417.421875 C 657.617188 421.558594 657.3125 425.6875 656.90625 429.8125 C 656.5 433.933594 655.992188 438.042969 655.386719 442.140625 C 654.777344 446.238281 654.070312 450.320312 653.261719 454.382812 C 652.453125 458.445312 651.546875 462.484375 650.539062 466.503906 C 649.53125 470.523438 648.429688 474.515625 647.226562 478.476562 C 646.023438 482.441406 644.722656 486.375 643.328125 490.273438 C 641.933594 494.175781 640.441406 498.039062 638.855469 501.867188 C 637.273438 505.695312 635.59375 509.480469 633.820312 513.226562 C 632.050781 516.96875 630.1875 520.667969 628.234375 524.324219 C 626.285156 527.976562 624.242188 531.578125 622.113281 535.132812 C 619.984375 538.683594 617.765625 542.183594 615.464844 545.628906 C 613.164062 549.074219 610.78125 552.457031 608.3125 555.785156 C 605.84375 559.113281 603.296875 562.378906 600.667969 565.582031 C 598.039062 568.78125 595.335938 571.917969 592.554688 574.988281 C 589.769531 578.058594 586.914062 581.058594 583.984375 583.984375 C 581.058594 586.914062 578.058594 589.769531 574.988281 592.554688 C 571.917969 595.335938 568.78125 598.039062 565.582031 600.667969 C 562.378906 603.296875 559.113281 605.84375 555.785156 608.3125 C 552.457031 610.78125 549.074219 613.164062 545.628906 615.464844 C 542.183594 617.765625 538.683594 619.984375 535.132812 622.113281 C 531.578125 624.242188 527.976562 626.285156 524.320312 628.234375 C 520.667969 630.1875 516.96875 632.050781 513.226562 633.820312 C 509.480469 635.59375 505.695312 637.273438 501.867188 638.855469 C 498.039062 640.441406 494.175781 641.933594 490.273438 643.328125 C 486.375 644.722656 482.441406 646.023438 478.476562 647.226562 C 474.515625 648.429688 470.523438 649.53125 466.503906 650.539062 C 462.484375 651.546875 458.445312 652.453125 454.382812 653.261719 C 450.320312 654.070312 446.238281 654.777344 442.140625 655.386719 C 438.042969 655.992188 433.933594 656.5 429.8125 656.90625 C 425.6875 657.3125 421.558594 657.617188 417.421875 657.820312 C 413.28125 658.023438 409.140625 658.125 405 658.125 C 400.855469 658.125 396.71875 658.023438 392.578125 657.820312 C 388.441406 657.617188 384.3125 657.3125 380.1875 656.90625 C 376.066406 656.5 371.957031 655.992188 367.859375 655.386719 C 363.761719 654.777344 359.679688 654.070312 355.617188 653.261719 C 351.554688 652.453125 347.515625 651.546875 343.496094 650.539062 C 339.476562 649.53125 335.484375 648.429688 331.523438 647.226562 C 327.558594 646.023438 323.625 644.722656 319.726562 643.328125 C 315.824219 641.933594 311.960938 640.441406 308.132812 638.855469 C 304.304688 637.273438 300.519531 635.59375 296.773438 633.820312 C 293.03125 632.050781 289.332031 630.1875 285.675781 628.234375 C 282.023438 626.285156 278.421875 624.242188 274.867188 622.113281 C 271.316406 619.984375 267.816406 617.765625 264.371094 615.464844 C 260.925781 613.164062 257.539062 610.78125 254.214844 608.3125 C 250.886719 605.84375 247.621094 603.296875 244.417969 600.667969 C 241.21875 598.039062 238.082031 595.335938 235.011719 592.554688 C 231.941406 589.769531 228.941406 586.914062 226.011719 583.984375 C 223.085938 581.058594 220.230469 578.058594 217.445312 574.988281 C 214.664062 571.917969 211.960938 568.78125 209.332031 565.582031 C 206.703125 562.378906 204.15625 559.113281 201.6875 555.785156 C 199.21875 552.457031 196.835938 549.074219 194.535156 545.628906 C 192.234375 542.183594 190.015625 538.683594 187.886719 535.132812 C 185.757812 531.578125 183.714844 527.976562 181.761719 524.320312 C 179.8125 520.667969 177.949219 516.96875 176.175781 513.226562 C 174.40625 509.480469 172.726562 505.695312 171.144531 501.867188 C 169.558594 498.039062 168.066406 494.175781 166.671875 490.273438 C 165.277344 486.375 163.976562 482.441406 162.773438 478.476562 C 161.570312 474.515625 160.46875 470.523438 159.460938 466.503906 C 158.453125 462.484375 157.546875 458.445312 156.738281 454.382812 C 155.929688 450.320312 155.222656 446.238281 154.613281 442.140625 C 154.007812 438.042969 153.5 433.933594 153.09375 429.8125 C 152.6875 425.6875 152.382812 421.558594 152.179688 417.421875 C 151.976562 413.28125 151.875 409.140625 151.875 405 C 151.875 400.855469 151.976562 396.71875 152.179688 392.578125 C 152.382812 388.441406 152.6875 384.3125 153.09375 380.1875 C 153.5 376.066406 154.007812 371.957031 154.613281 367.859375 C 155.222656 363.761719 155.929688 359.679688 156.738281 355.617188 C 157.546875 351.554688 158.453125 347.515625 159.460938 343.496094 C 160.46875 339.476562 161.570312 335.484375 162.773438 331.523438 C 163.976562 327.558594 165.277344 323.625 166.671875 319.726562 C 168.066406 315.824219 169.558594 311.960938 171.144531 308.132812 C 172.726562 304.304688 174.40625 300.519531 176.175781 296.773438 C 177.949219 293.03125 179.8125 289.332031 181.761719 285.675781 C 183.714844 282.023438 185.757812 278.421875 187.886719 274.867188 C 190.015625 271.316406 192.234375 267.816406 194.535156 264.371094 C 196.835938 260.925781 199.21875 257.539062 201.6875 254.214844 C 204.15625 250.886719 206.703125 247.621094 209.332031 244.417969 C 211.960938 241.21875 214.664062 238.082031 217.445312 235.011719 C 220.230469 231.941406 223.085938 228.941406 226.011719 226.011719 C 228.941406 223.085938 231.941406 220.230469 235.011719 217.445312 C 238.082031 214.664062 241.21875 211.960938 244.417969 209.332031 C 247.621094 206.703125 250.886719 204.15625 254.214844 201.6875 C 257.539062 199.21875 260.925781 196.835938 264.371094 194.535156 C 267.816406 192.234375 271.316406 190.015625 274.867188 187.886719 C 278.421875 185.757812 282.023438 183.714844 285.675781 181.765625 C 289.332031 179.8125 293.03125 177.949219 296.773438 176.175781 C 300.519531 174.40625 304.304688 172.726562 308.132812 171.144531 C 311.960938 169.558594 315.824219 168.066406 319.726562 166.671875 C 323.625 165.277344 327.558594 163.976562 331.523438 162.773438 C 335.484375 161.570312 339.476562 160.46875 343.496094 159.460938 C 347.515625 158.453125 351.554688 157.546875 355.617188 156.738281 C 359.679688 155.929688 363.761719 155.222656 367.859375 154.613281 C 371.957031 154.007812 376.066406 153.5 380.1875 153.09375 C 384.3125 152.6875 388.441406 152.382812 392.578125 152.179688 C 396.71875 151.976562 400.855469 151.875 405 151.875 C 409.140625 151.875 413.28125 151.976562 417.421875 152.179688 C 421.558594 152.382812 425.6875 152.6875 429.8125 153.09375 C 433.933594 153.5 438.042969 154.007812 442.140625 154.613281 C 446.238281 155.222656 450.320312 155.929688 454.382812 156.738281 C 458.445312 157.546875 462.484375 158.453125 466.503906 159.460938 C 470.523438 160.46875 474.515625 161.570312 478.476562 162.773438 C 482.441406 163.976562 486.375 165.277344 490.273438 166.671875 C 494.175781 168.066406 498.039062 169.558594 501.867188 171.144531 C 505.695312 172.726562 509.480469 174.40625 513.226562 176.175781 C 516.96875 177.949219 520.667969 179.8125 524.320312 181.765625 C 527.976562 183.714844 531.578125 185.757812 535.132812 187.886719 C 538.683594 190.015625 542.183594 192.234375 545.628906 194.535156 C 549.074219 196.835938 552.457031 199.21875 555.785156 201.6875 C 559.113281 204.15625 562.378906 206.703125 565.582031 209.332031 C 568.78125 211.960938 571.917969 214.664062 574.988281 217.445312 C 578.058594 220.230469 581.058594 223.085938 583.984375 226.011719 C 586.914062 228.941406 589.769531 231.941406 592.554688 235.011719 C 595.335938 238.082031 598.039062 241.21875 600.667969 244.417969 C 603.296875 247.621094 605.84375 250.886719 608.3125 254.214844 C 610.78125 257.539062 613.164062 260.925781 615.464844 264.371094 C 617.765625 267.816406 619.984375 271.316406 622.113281 274.867188 C 624.242188 278.421875 626.285156 282.023438 628.234375 285.675781 C 630.1875 289.332031 632.050781 293.03125 633.820312 296.773438 C 635.59375 300.519531 637.273438 304.304688 638.855469 308.132812 C 640.441406 311.960938 641.933594 315.824219 643.328125 319.726562 C 644.722656 323.625 646.023438 327.558594 647.226562 331.523438 C 648.429688 335.484375 649.53125 339.476562 650.539062 343.496094 C 651.546875 347.515625 652.453125 351.554688 653.261719 355.617188 C 654.070312 359.679688 654.777344 363.761719 655.386719 367.859375 C 655.992188 371.957031 656.5 376.066406 656.90625 380.1875 C 657.3125 384.3125 657.617188 388.441406 657.820312 392.578125 C 658.023438 396.71875 658.125 400.855469 658.125 405 Z M 658.125 405 "/></clipPath><linearGradient x1="95.999996" gradientTransform="matrix(1.582031,0,0,1.582031,0.0000035,0.00002)" y1="95.999996" x2="415.999984" gradientUnits="userSpaceOnUse" y2="415.999984" id="51a77d523d"><stop style="stop-color:#4f46e5;stop-opacity:1;" offset="0"/><stop style="stop-color:#4f47e5;stop-opacity:1;" offset="0.0078125"/><stop style="stop-color:#4e47e5;stop-opacity:1;" offset="0.015625"/><stop style="stop-color:#4e48e5;stop-opacity:1;" offset="0.0234375"/><stop style="stop-color:#4d49e5;stop-opacity:1;" offset="0.03125"/><stop style="stop-color:#4c4ae4;stop-opacity:1;" offset="0.0390625"/><stop style="stop-color:#4c4be4;stop-opacity:1;" offset="0.046875"/><stop style="stop-color:#4b4ce4;stop-opacity:1;" offset="0.0546875"/><stop style="stop-color:#4b4de4;stop-opacity:1;" offset="0.0625"/><stop style="stop-color:#4a4ee4;stop-opacity:1;" offset="0.0703125"/><stop style="stop-color:#4a4ee4;stop-opacity:1;" offset="0.078125"/><stop style="stop-color:#494fe4;stop-opacity:1;" offset="0.0859375"/><stop style="stop-color:#4850e3;stop-opacity:1;" offset="0.09375"/><stop style="stop-color:#4851e3;stop-opacity:1;" offset="0.101562"/><stop style="stop-color:#4752e3;stop-opacity:1;" offset="0.109375"/><stop style="stop-color:#4753e3;stop-opacity:1;" offset="0.117188"/><stop style="stop-color:#4654e3;stop-opacity:1;" offset="0.125"/><stop style="stop-color:#4655e3;stop-opacity:1;" offset="0.132812"/><stop style="stop-color:#4555e3;stop-opacity:1;" offset="0.140625"/><stop style="stop-color:#4556e3;stop-opacity:1;" offset="0.148438"/><stop style="stop-color:#4457e2;stop-opacity:1;" offset="0.15625"/><stop style="stop-color:#4358e2;stop-opacity:1;" offset="0.164062"/><stop style="stop-color:#4359e2;stop-opacity:1;" offset="0.171875"/><stop style="stop-color:#425ae2;stop-opacity:1;" offset="0.179688"/><stop style="stop-color:#425be2;stop-opacity:1;" offset="0.1875"/><stop style="stop-color:#415ce2;stop-opacity:1;" offset="0.195312"/><stop style="stop-color:#415ce2;stop-opacity:1;" offset="0.203125"/><stop style="stop-color:#405de1;stop-opacity:1;" offset="0.210938"/><stop style="stop-color:#3f5ee1;stop-opacity:1;" offset="0.21875"/><stop style="stop-color:#3f5fe1;stop-opacity:1;" offset="0.226562"/><stop style="stop-color:#3e60e1;stop-opacity:1;" offset="0.234375"/><stop style="stop-color:#3e61e1;stop-opacity:1;" offset="0.242188"/><stop style="stop-color:#3d62e1;stop-opacity:1;" offset="0.25"/><stop style="stop-color:#3d63e1;stop-opacity:1;" offset="0.257812"/><stop style="stop-color:#3c63e1;stop-opacity:1;" offset="0.265625"/><stop style="stop-color:#3b64e0;stop-opacity:1;" offset="0.273438"/><stop style="stop-color:#3b65e0;stop-opacity:1;" offset="0.28125"/><stop style="stop-color:#3a66e0;stop-opacity:1;" offset="0.289062"/><stop style="stop-color:#3a67e0;stop-opacity:1;" offset="0.296875"/><stop style="stop-color:#3968e0;stop-opacity:1;" offset="0.304688"/><stop style="stop-color:#3969e0;stop-opacity:1;" offset="0.3125"/><stop style="stop-color:#386ae0;stop-opacity:1;" offset="0.320312"/><stop style="stop-color:#376adf;stop-opacity:1;" offset="0.328125"/><stop style="stop-color:#376bdf;stop-opacity:1;" offset="0.335938"/><stop style="stop-color:#366cdf;stop-opacity:1;" offset="0.34375"/><stop style="stop-color:#366ddf;stop-opacity:1;" offset="0.351562"/><stop style="stop-color:#356edf;stop-opacity:1;" offset="0.359375"/><stop style="stop-color:#356fdf;stop-opacity:1;" offset="0.367188"/><stop style="stop-color:#3470df;stop-opacity:1;" offset="0.375"/><stop style="stop-color:#3371df;stop-opacity:1;" offset="0.382812"/><stop style="stop-color:#3371de;stop-opacity:1;" offset="0.390625"/><stop style="stop-color:#3272de;stop-opacity:1;" offset="0.398438"/><stop style="stop-color:#3273de;stop-opacity:1;" offset="0.40625"/><stop style="stop-color:#3174de;stop-opacity:1;" offset="0.414062"/><stop style="stop-color:#3175de;stop-opacity:1;" offset="0.421875"/><stop style="stop-color:#3076de;stop-opacity:1;" offset="0.429688"/><stop style="stop-color:#2f77de;stop-opacity:1;" offset="0.4375"/><stop style="stop-color:#2f78dd;stop-opacity:1;" offset="0.445312"/><stop style="stop-color:#2e78dd;stop-opacity:1;" offset="0.453125"/><stop style="stop-color:#2e79dd;stop-opacity:1;" offset="0.460938"/><stop style="stop-color:#2d7add;stop-opacity:1;" offset="0.46875"/><stop style="stop-color:#2d7bdd;stop-opacity:1;" offset="0.476562"/><stop style="stop-color:#2c7cdd;stop-opacity:1;" offset="0.484375"/><stop style="stop-color:#2b7ddd;stop-opacity:1;" offset="0.492188"/><stop style="stop-color:#2b7edd;stop-opacity:1;" offset="0.5"/><stop style="stop-color:#2a7fdc;stop-opacity:1;" offset="0.507812"/><stop style="stop-color:#2a7fdc;stop-opacity:1;" offset="0.515625"/><stop style="stop-color:#2980dc;stop-opacity:1;" offset="0.523438"/><stop style="stop-color:#2981dc;stop-opacity:1;" offset="0.53125"/><stop style="stop-color:#2882dc;stop-opacity:1;" offset="0.539062"/><stop style="stop-color:#2783dc;stop-opacity:1;" offset="0.546875"/><stop style="stop-color:#2784dc;stop-opacity:1;" offset="0.554688"/><stop style="stop-color:#2685db;stop-opacity:1;" offset="0.5625"/><stop style="stop-color:#2686db;stop-opacity:1;" offset="0.570312"/><stop style="stop-color:#2586db;stop-opacity:1;" offset="0.578125"/><stop style="stop-color:#2587db;stop-opacity:1;" offset="0.585938"/><stop style="stop-color:#2488db;stop-opacity:1;" offset="0.59375"/><stop style="stop-color:#2389db;stop-opacity:1;" offset="0.601562"/><stop style="stop-color:#238adb;stop-opacity:1;" offset="0.609375"/><stop style="stop-color:#228bdb;stop-opacity:1;" offset="0.617188"/><stop style="stop-color:#228cda;stop-opacity:1;" offset="0.625"/><stop style="stop-color:#218dda;stop-opacity:1;" offset="0.632812"/><stop style="stop-color:#218dda;stop-opacity:1;" offset="0.640625"/><stop style="stop-color:#208eda;stop-opacity:1;" offset="0.648438"/><stop style="stop-color:#1f8fda;stop-opacity:1;" offset="0.65625"/><stop style="stop-color:#1f90da;stop-opacity:1;" offset="0.664062"/><stop style="stop-color:#1e91da;stop-opacity:1;" offset="0.671875"/><stop style="stop-color:#1e92d9;stop-opacity:1;" offset="0.679688"/><stop style="stop-color:#1d93d9;stop-opacity:1;" offset="0.6875"/><stop style="stop-color:#1d94d9;stop-opacity:1;" offset="0.695312"/><stop style="stop-color:#1c94d9;stop-opacity:1;" offset="0.703125"/><stop style="stop-color:#1b95d9;stop-opacity:1;" offset="0.710938"/><stop style="stop-color:#1b96d9;stop-opacity:1;" offset="0.71875"/><stop style="stop-color:#1a97d9;stop-opacity:1;" offset="0.726562"/><stop style="stop-color:#1a98d9;stop-opacity:1;" offset="0.734375"/><stop style="stop-color:#1999d8;stop-opacity:1;" offset="0.742188"/><stop style="stop-color:#199ad8;stop-opacity:1;" offset="0.75"/><stop style="stop-color:#189bd8;stop-opacity:1;" offset="0.757812"/><stop style="stop-color:#179bd8;stop-opacity:1;" offset="0.765625"/><stop style="stop-color:#179cd8;stop-opacity:1;" offset="0.773438"/><stop style="stop-color:#169dd8;stop-opacity:1;" offset="0.78125"/><stop style="stop-color:#169ed8;stop-opacity:1;" offset="0.789062"/><stop style="stop-color:#159fd7;stop-opacity:1;" offset="0.796875"/><stop style="stop-color:#15a0d7;stop-opacity:1;" offset="0.804688"/><stop style="stop-color:#14a1d7;stop-opacity:1;" offset="0.8125"/><stop style="stop-color:#14a2d7;stop-opacity:1;" offset="0.820312"/><stop style="stop-color:#13a2d7;stop-opacity:1;" offset="0.828125"/><stop style="stop-color:#12a3d7;stop-opacity:1;" offset="0.835938"/><stop style="stop-color:#12a4d7;stop-opacity:1;" offset="0.84375"/><stop style="stop-color:#11a5d7;stop-opacity:1;" offset="0.851562"/><stop style="stop-color:#11a6d6;stop-opacity:1;" offset="0.859375"/><stop style="stop-color:#10a7d6;stop-opacity:1;" offset="0.867188"/><stop style="stop-color:#10a8d6;stop-opacity:1;" offset="0.875"/><stop style="stop-color:#0fa9d6;stop-opacity:1;" offset="0.882812"/><stop style="stop-color:#0ea9d6;stop-opacity:1;" offset="0.890625"/><stop style="stop-color:#0eaad6;stop-opacity:1;" offset="0.898438"/><stop style="stop-color:#0dabd6;stop-opacity:1;" offset="0.90625"/><stop style="stop-color:#0dacd5;stop-opacity:1;" offset="0.914062"/><stop style="stop-color:#0cadd5;stop-opacity:1;" offset="0.921875"/><stop style="stop-color:#0caed5;stop-opacity:1;" offset="0.929688"/><stop style="stop-color:#0bafd5;stop-opacity:1;" offset="0.9375"/><stop style="stop-color:#0ab0d5;stop-opacity:1;" offset="0.945312"/><stop style="stop-color:#0ab0d5;stop-opacity:1;" offset="0.953125"/><stop style="stop-color:#09b1d5;stop-opacity:1;" offset="0.960938"/><stop style="stop-color:#09b2d5;stop-opacity:1;" offset="0.96875"/><stop style="stop-color:#08b3d4;stop-opacity:1;" offset="0.976562"/><stop style="stop-color:#08b4d4;stop-opacity:1;" offset="0.984375"/><stop style="stop-color:#07b5d4;stop-opacity:1;" offset="0.992188"/><stop style="stop-color:#06b6d4;stop-opacity:1;" offset="1"/></linearGradient><clipPath id="da7999befb"><path d="M 109.929688 109.929688 L 700.070312 109.929688 L 700.070312 700.070312 L 109.929688 700.070312 Z M 109.929688 109.929688 "/></clipPath></defs><g id="edd77d66bf"><path style=" stroke:none;fill-rule:nonzero;fill:#1a1b1e;fill-opacity:1;" d="M 202.5 0 L 607.5 0 C 610.8125 0 614.125 0.0820312 617.4375 0.242188 C 620.746094 0.40625 624.050781 0.648438 627.347656 0.976562 C 630.648438 1.300781 633.933594 1.707031 637.210938 2.191406 C 640.492188 2.679688 643.753906 3.246094 647.003906 3.890625 C 650.257812 4.539062 653.488281 5.261719 656.703125 6.070312 C 659.917969 6.875 663.109375 7.757812 666.28125 8.71875 C 669.453125 9.679688 672.601562 10.722656 675.71875 11.835938 C 678.839844 12.953125 681.929688 14.144531 684.992188 15.414062 C 688.054688 16.683594 691.082031 18.023438 694.078125 19.441406 C 697.074219 20.859375 700.035156 22.347656 702.957031 23.910156 C 705.878906 25.472656 708.761719 27.105469 711.605469 28.808594 C 714.449219 30.515625 717.246094 32.285156 720.003906 34.128906 C 722.757812 35.96875 725.46875 37.875 728.128906 39.851562 C 730.789062 41.824219 733.402344 43.863281 735.964844 45.964844 C 738.527344 48.066406 741.035156 50.230469 743.492188 52.457031 C 745.945312 54.683594 748.34375 56.96875 750.6875 59.3125 C 753.03125 61.652344 755.316406 64.054688 757.542969 66.507812 C 759.769531 68.964844 761.933594 71.472656 764.035156 74.035156 C 766.136719 76.597656 768.175781 79.210938 770.148438 81.871094 C 772.125 84.53125 774.03125 87.242188 775.871094 89.996094 C 777.714844 92.753906 779.484375 95.550781 781.191406 98.394531 C 782.894531 101.238281 784.527344 104.121094 786.089844 107.042969 C 787.652344 109.964844 789.140625 112.925781 790.558594 115.921875 C 791.976562 118.914062 793.316406 121.945312 794.585938 125.007812 C 795.855469 128.070312 797.046875 131.160156 798.164062 134.28125 C 799.277344 137.398438 800.316406 140.546875 801.28125 143.71875 C 802.242188 146.890625 803.125 150.082031 803.929688 153.296875 C 804.738281 156.511719 805.460938 159.742188 806.109375 162.996094 C 806.753906 166.246094 807.320312 169.507812 807.808594 172.785156 C 808.292969 176.066406 808.699219 179.351562 809.023438 182.652344 C 809.351562 185.949219 809.59375 189.253906 809.757812 192.5625 C 809.917969 195.875 810 199.1875 810 202.5 L 810 607.5 C 810 610.8125 809.917969 614.125 809.757812 617.4375 C 809.59375 620.746094 809.351562 624.050781 809.023438 627.347656 C 808.699219 630.648438 808.292969 633.933594 807.808594 637.210938 C 807.320312 640.492188 806.753906 643.753906 806.109375 647.003906 C 805.460938 650.257812 804.738281 653.488281 803.929688 656.703125 C 803.125 659.917969 802.242188 663.109375 801.28125 666.28125 C 800.316406 669.453125 799.277344 672.601562 798.164062 675.71875 C 797.046875 678.839844 795.855469 681.929688 794.585938 684.992188 C 793.316406 688.054688 791.976562 691.082031 790.558594 694.078125 C 789.140625 697.074219 787.652344 700.035156 786.089844 702.957031 C 784.527344 705.878906 782.894531 708.761719 781.191406 711.605469 C 779.484375 714.449219 777.714844 717.246094 775.871094 720.003906 C 774.03125 722.757812 772.125 725.46875 770.148438 728.128906 C 768.175781 730.789062 766.136719 733.402344 764.035156 735.964844 C 761.933594 738.527344 759.769531 741.035156 757.542969 743.492188 C 755.316406 745.945312 753.03125 748.34375 750.6875 750.6875 C 748.34375 753.03125 745.945312 755.316406 743.492188 757.542969 C 741.035156 759.769531 738.527344 761.933594 735.964844 764.035156 C 733.402344 766.136719 730.789062 768.175781 728.128906 770.148438 C 725.46875 772.125 722.757812 774.03125 720.003906 775.871094 C 717.246094 777.714844 714.449219 779.484375 711.605469 781.191406 C 708.761719 782.894531 705.878906 784.527344 702.957031 786.089844 C 700.035156 787.652344 697.074219 789.140625 694.078125 790.558594 C 691.082031 791.976562 688.054688 793.316406 684.992188 794.585938 C 681.929688 795.855469 678.839844 797.046875 675.71875 798.164062 C 672.601562 799.277344 669.453125 800.316406 666.28125 801.28125 C 663.109375 802.242188 659.917969 803.125 656.703125 803.929688 C 653.488281 804.738281 650.257812 805.460938 647.003906 806.109375 C 643.753906 806.753906 640.492188 807.320312 637.210938 807.808594 C 633.933594 808.292969 630.648438 808.699219 627.347656 809.023438 C 624.050781 809.351562 620.746094 809.59375 617.4375 809.757812 C 614.125 809.917969 610.8125 810 607.5 810 L 202.5 810 C 199.1875 810 195.875 809.917969 192.5625 809.757812 C 189.253906 809.59375 185.949219 809.351562 182.652344 809.023438 C 179.351562 808.699219 176.066406 808.292969 172.785156 807.808594 C 169.507812 807.320312 166.246094 806.753906 162.996094 806.109375 C 159.742188 805.460938 156.511719 804.738281 153.296875 803.929688 C 150.082031 803.125 146.890625 802.242188 143.71875 801.28125 C 140.546875 800.316406 137.398438 799.277344 134.28125 798.164062 C 131.160156 797.046875 128.070312 795.855469 125.007812 794.585938 C 121.945312 793.316406 118.914062 791.976562 115.921875 790.558594 C 112.925781 789.140625 109.964844 787.652344 107.042969 786.089844 C 104.121094 784.527344 101.238281 782.894531 98.394531 781.191406 C 95.550781 779.484375 92.753906 777.714844 89.996094 775.871094 C 87.242188 774.03125 84.53125 772.125 81.871094 770.148438 C 79.210938 768.175781 76.597656 766.136719 74.035156 764.035156 C 71.472656 761.933594 68.964844 759.769531 66.507812 757.542969 C 64.054688 755.316406 61.652344 753.03125 59.3125 750.6875 C 56.96875 748.34375 54.683594 745.945312 52.457031 743.492188 C 50.230469 741.035156 48.066406 738.527344 45.964844 735.964844 C 43.863281 733.402344 41.824219 730.789062 39.851562 728.128906 C 37.875 725.46875 35.96875 722.757812 34.128906 720.003906 C 32.285156 717.246094 30.515625 714.449219 28.808594 711.605469 C 27.105469 708.761719 25.472656 705.878906 23.910156 702.957031 C 22.347656 700.035156 20.859375 697.074219 19.441406 694.078125 C 18.023438 691.082031 16.683594 688.054688 15.414062 684.992188 C 14.144531 681.929688 12.953125 678.839844 11.835938 675.71875 C 10.722656 672.601562 9.679688 669.453125 8.71875 666.28125 C 7.757812 663.109375 6.875 659.917969 6.070312 656.703125 C 5.261719 653.488281 4.539062 650.257812 3.890625 647.003906 C 3.246094 643.753906 2.679688 640.492188 2.191406 637.210938 C 1.707031 633.933594 1.300781 630.648438 0.976562 627.347656 C 0.648438 624.050781 0.40625 620.746094 0.242188 617.4375 C 0.0820312 614.125 0 610.8125 0 607.5 L 0 202.5 C 0 199.1875 0.0820312 195.875 0.242188 192.5625 C 0.40625 189.253906 0.648438 185.949219 0.976562 182.652344 C 1.300781 179.351562 1.707031 176.066406 2.191406 172.785156 C 2.679688 169.507812 3.246094 166.246094 3.890625 162.996094 C 4.539062 159.742188 5.261719 156.511719 6.070312 153.296875 C 6.875 150.082031 7.757812 146.890625 8.71875 143.71875 C 9.679688 140.546875 10.722656 137.398438 11.835938 134.28125 C 12.953125 131.160156 14.144531 128.070312 15.414062 125.007812 C 16.683594 121.945312 18.023438 118.914062 19.441406 115.921875 C 20.859375 112.925781 22.347656 109.964844 23.910156 107.042969 C 25.472656 104.121094 27.105469 101.238281 28.808594 98.394531 C 30.515625 95.550781 32.285156 92.753906 34.128906 89.996094 C 35.96875 87.242188 37.875 84.53125 39.851562 81.871094 C 41.824219 79.210938 43.863281 76.597656 45.964844 74.035156 C 48.066406 71.472656 50.230469 68.964844 52.457031 66.507812 C 54.683594 64.054688 56.96875 61.652344 59.3125 59.3125 C 61.652344 56.96875 64.054688 54.683594 66.507812 52.457031 C 68.964844 50.230469 71.472656 48.066406 74.035156 45.964844 C 76.597656 43.863281 79.210938 41.824219 81.871094 39.851562 C 84.53125 37.875 87.242188 35.96875 89.996094 34.128906 C 92.753906 32.285156 95.550781 30.515625 98.394531 28.808594 C 101.238281 27.105469 104.121094 25.472656 107.042969 23.910156 C 109.964844 22.347656 112.925781 20.859375 115.921875 19.441406 C 118.914062 18.023438 121.945312 16.683594 125.007812 15.414062 C 128.070312 14.144531 131.160156 12.953125 134.28125 11.835938 C 137.398438 10.722656 140.546875 9.679688 143.71875 8.71875 C 146.890625 7.757812 150.082031 6.875 153.296875 6.070312 C 156.511719 5.261719 159.742188 4.539062 162.996094 3.890625 C 166.246094 3.246094 169.507812 2.679688 172.785156 2.191406 C 176.066406 1.707031 179.351562 1.300781 182.652344 0.976562 C 185.949219 0.648438 189.253906 0.40625 192.5625 0.242188 C 195.875 0.0820312 199.1875 0 202.5 0 Z M 202.5 0 "/><g clip-rule="nonzero" clip-path="url(#c08c2f37c1)"><g clip-rule="nonzero" clip-path="url(#069ea0e27b)"><path style=" stroke:none;fill-rule:nonzero;fill:url(#linear0);" d="M 151.875 151.875 L 151.875 658.125 L 658.125 658.125 L 658.125 151.875 Z M 151.875 151.875 "/></g></g><path style=" stroke:none;fill-rule:nonzero;fill:#1a1b1e;fill-opacity:1;" d="M 405 246.796875 C 318.351562 246.796875 246.796875 318.351562 246.796875 405 C 246.796875 491.648438 318.351562 563.203125 405 563.203125 C 491.648438 563.203125 563.203125 491.648438 563.203125 405 C 563.203125 318.351562 491.648438 246.796875 405 246.796875 Z M 405 515.742188 C 344.804688 515.742188 294.257812 465.195312 294.257812 405 C 294.257812 344.804688 344.804688 294.257812 405 294.257812 C 465.195312 294.257812 515.742188 344.804688 515.742188 405 C 515.742188 465.195312 465.195312 515.742188 405 515.742188 Z M 405 515.742188 "/><g clip-rule="nonzero" clip-path="url(#da7999befb)"><path style=" stroke:none;fill-rule:nonzero;fill:#1a1b1e;fill-opacity:1;" d="M 109.929688 109.929688 L 700.070312 109.929688 L 700.070312 700.070312 L 109.929688 700.070312 Z M 109.929688 109.929688 "/></g><path style=" stroke:none;fill-rule:evenodd;fill:#5a59f1;fill-opacity:1;" d="M 582.808594 354.167969 L 455.746094 227.109375 L 471.660156 211.3125 L 598.71875 338.375 Z M 582.808594 354.167969 "/><path style=" stroke:none;fill-rule:nonzero;fill:#5a59f1;fill-opacity:1;" d="M 328.101562 560.90625 C 322.015625 545.460938 311.722656 529.550781 296.042969 513.871094 C 280.367188 498.078125 264.453125 487.898438 249.011719 481.8125 C 239.417969 478.070312 231.8125 476.78125 227.015625 476.664062 C 220.8125 476.550781 215.664062 481.347656 215.546875 487.546875 C 215.433594 493.746094 220.34375 499.011719 226.546875 499.128906 C 228.769531 499.128906 233.800781 500.066406 240.9375 502.875 C 253.457031 507.671875 266.675781 516.328125 280.132812 529.78125 C 293.585938 543.238281 302.246094 556.574219 307.160156 569.09375 C 309.847656 576.230469 310.785156 581.261719 310.902344 583.484375 C 311.019531 589.6875 316.167969 594.601562 322.367188 594.367188 C 328.570312 594.132812 333.484375 589.101562 333.367188 582.902344 C 333.25 578.105469 331.84375 570.617188 328.101562 560.90625 Z M 328.101562 560.90625 "/><path style=" stroke:none;fill-rule:nonzero;fill:#5a59f1;fill-opacity:1;" d="M 261.527344 593.898438 C 259.773438 583.367188 254.859375 573.191406 245.851562 564.179688 C 236.84375 555.171875 226.546875 550.140625 216.015625 548.386719 C 209.464844 547.332031 204.199219 547.566406 200.574219 548.386719 C 194.488281 549.671875 190.628906 555.640625 191.914062 561.605469 C 193.320312 567.808594 199.285156 571.667969 205.253906 570.382812 C 206.304688 570.148438 208.878906 570.03125 212.390625 570.617188 C 218.472656 571.550781 224.324219 574.476562 229.941406 579.976562 C 235.4375 585.589844 238.363281 591.558594 239.417969 597.640625 C 240 601.152344 239.882812 603.609375 239.652344 604.664062 C 238.363281 610.746094 242.222656 616.597656 248.308594 617.882812 C 254.273438 619.285156 260.242188 615.308594 261.644531 609.34375 C 262.347656 605.832031 262.699219 600.332031 261.527344 593.898438 Z M 261.527344 593.898438 "/><path style=" stroke:none;fill-rule:nonzero;fill:#5a59f1;fill-opacity:1;" d="M 600.121094 305.144531 L 324.589844 580.675781 L 201.742188 608.289062 L 229.355469 485.324219 L 504.886719 209.792969 C 517.988281 196.6875 539.167969 196.6875 552.503906 210.027344 L 600.003906 257.292969 C 613.226562 270.75 613.34375 291.925781 600.121094 305.144531 Z M 568.417969 194.113281 C 546.304688 172 510.96875 172 488.972656 193.878906 L 211.101562 471.75 C 209.699219 473.273438 208.644531 475.144531 208.179688 477.25 L 176.003906 620.339844 C 174.25 628.414062 181.386719 635.433594 189.457031 633.792969 L 332.78125 601.621094 C 334.886719 601.269531 336.757812 600.332031 338.28125 598.8125 L 616.035156 320.824219 C 638.03125 299.0625 637.796875 263.613281 615.800781 241.617188 Z M 568.417969 194.113281 "/></g></svg>