<svg xmlns="http://www.w3.org/2000/svg" xmlns:xlink="http://www.w3.org/1999/xlink" width="1080" zoomAndPan="magnify" viewBox="0 0 810 809.999993" height="1080" preserveAspectRatio="xMidYMid meet" version="1.2"><defs><clipPath id="039d81d7d8"><path d="M 151 151 L 659 151 L 659 659 L 151 659 Z M 151 151 "/></clipPath><clipPath id="abbfffdaa2"><path d="M 658.125 405 C 658.125 409.140625 658.023438 413.28125 657.820312 417.421875 C 657.617188 421.558594 657.3125 425.6875 656.90625 429.8125 C 656.5 433.933594 655.992188 438.042969 655.386719 442.140625 C 654.777344 446.238281 654.070312 450.320312 653.261719 454.382812 C 652.453125 458.445312 651.546875 462.484375 650.539062 466.503906 C 649.53125 470.523438 648.429688 474.515625 647.226562 478.476562 C 646.023438 482.441406 644.722656 486.375 643.328125 490.273438 C 641.933594 494.175781 640.441406 498.039062 638.855469 501.867188 C 637.273438 505.695312 635.59375 509.480469 633.820312 513.226562 C 632.050781 516.96875 630.1875 520.667969 628.234375 524.324219 C 626.285156 527.976562 624.242188 531.578125 622.113281 535.132812 C 619.984375 538.683594 617.765625 542.183594 615.464844 545.628906 C 613.164062 549.074219 610.78125 552.457031 608.3125 555.785156 C 605.84375 559.113281 603.296875 562.378906 600.667969 565.582031 C 598.039062 568.78125 595.335938 571.917969 592.554688 574.988281 C 589.769531 578.058594 586.914062 581.058594 583.984375 583.984375 C 581.058594 586.914062 578.058594 589.769531 574.988281 592.554688 C 571.917969 595.335938 568.78125 598.039062 565.582031 600.667969 C 562.378906 603.296875 559.113281 605.84375 555.785156 608.3125 C 552.457031 610.78125 549.074219 613.164062 545.628906 615.464844 C 542.183594 617.765625 538.683594 619.984375 535.132812 622.113281 C 531.578125 624.242188 527.976562 626.285156 524.320312 628.234375 C 520.667969 630.1875 516.96875 632.050781 513.226562 633.820312 C 509.480469 635.59375 505.695312 637.273438 501.867188 638.855469 C 498.039062 640.441406 494.175781 641.933594 490.273438 643.328125 C 486.375 644.722656 482.441406 646.023438 478.476562 647.226562 C 474.515625 648.429688 470.523438 649.53125 466.503906 650.539062 C 462.484375 651.546875 458.445312 652.453125 454.382812 653.261719 C 450.320312 654.070312 446.238281 654.777344 442.140625 655.386719 C 438.042969 655.992188 433.933594 656.5 429.8125 656.90625 C 425.6875 657.3125 421.558594 657.617188 417.421875 657.820312 C 413.28125 658.023438 409.140625 658.125 405 658.125 C 400.855469 658.125 396.71875 658.023438 392.578125 657.820312 C 388.441406 657.617188 384.3125 657.3125 380.1875 656.90625 C 376.066406 656.5 371.957031 655.992188 367.859375 655.386719 C 363.761719 654.777344 359.679688 654.070312 355.617188 653.261719 C 351.554688 652.453125 347.515625 651.546875 343.496094 650.539062 C 339.476562 649.53125 335.484375 648.429688 331.523438 647.226562 C 327.558594 646.023438 323.625 644.722656 319.726562 643.328125 C 315.824219 641.933594 311.960938 640.441406 308.132812 638.855469 C 304.304688 637.273438 300.519531 635.59375 296.773438 633.820312 C 293.03125 632.050781 289.332031 630.1875 285.675781 628.234375 C 282.023438 626.285156 278.421875 624.242188 274.867188 622.113281 C 271.316406 619.984375 267.816406 617.765625 264.371094 615.464844 C 260.925781 613.164062 257.539062 610.78125 254.214844 608.3125 C 250.886719 605.84375 247.621094 603.296875 244.417969 600.667969 C 241.21875 598.039062 238.082031 595.335938 235.011719 592.554688 C 231.941406 589.769531 228.941406 586.914062 226.011719 583.984375 C 223.085938 581.058594 220.230469 578.058594 217.445312 574.988281 C 214.664062 571.917969 211.960938 568.78125 209.332031 565.582031 C 206.703125 562.378906 204.15625 559.113281 201.6875 555.785156 C 199.21875 552.457031 196.835938 549.074219 194.535156 545.628906 C 192.234375 542.183594 190.015625 538.683594 187.886719 535.132812 C 185.757812 531.578125 183.714844 527.976562 181.761719 524.320312 C 179.8125 520.667969 177.949219 516.96875 176.175781 513.226562 C 174.40625 509.480469 172.726562 505.695312 171.144531 501.867188 C 169.558594 498.039062 168.066406 494.175781 166.671875 490.273438 C 165.277344 486.375 163.976562 482.441406 162.773438 478.476562 C 161.570312 474.515625 160.46875 470.523438 159.460938 466.503906 C 158.453125 462.484375 157.546875 458.445312 156.738281 454.382812 C 155.929688 450.320312 155.222656 446.238281 154.613281 442.140625 C 154.007812 438.042969 153.5 433.933594 153.09375 429.8125 C 152.6875 425.6875 152.382812 421.558594 152.179688 417.421875 C 151.976562 413.28125 151.875 409.140625 151.875 405 C 151.875 400.855469 151.976562 396.71875 152.179688 392.578125 C 152.382812 388.441406 152.6875 384.3125 153.09375 380.1875 C 153.5 376.066406 154.007812 371.957031 154.613281 367.859375 C 155.222656 363.761719 155.929688 359.679688 156.738281 355.617188 C 157.546875 351.554688 158.453125 347.515625 159.460938 343.496094 C 160.46875 339.476562 161.570312 335.484375 162.773438 331.523438 C 163.976562 327.558594 165.277344 323.625 166.671875 319.726562 C 168.066406 315.824219 169.558594 311.960938 171.144531 308.132812 C 172.726562 304.304688 174.40625 300.519531 176.175781 296.773438 C 177.949219 293.03125 179.8125 289.332031 181.761719 285.675781 C 183.714844 282.023438 185.757812 278.421875 187.886719 274.867188 C 190.015625 271.316406 192.234375 267.816406 194.535156 264.371094 C 196.835938 260.925781 199.21875 257.539062 201.6875 254.214844 C 204.15625 250.886719 206.703125 247.621094 209.332031 244.417969 C 211.960938 241.21875 214.664062 238.082031 217.445312 235.011719 C 220.230469 231.941406 223.085938 228.941406 226.011719 226.011719 C 228.941406 223.085938 231.941406 220.230469 235.011719 217.445312 C 238.082031 214.664062 241.21875 211.960938 244.417969 209.332031 C 247.621094 206.703125 250.886719 204.15625 254.214844 201.6875 C 257.539062 199.21875 260.925781 196.835938 264.371094 194.535156 C 267.816406 192.234375 271.316406 190.015625 274.867188 187.886719 C 278.421875 185.757812 282.023438 183.714844 285.675781 181.765625 C 289.332031 179.8125 293.03125 177.949219 296.773438 176.175781 C 300.519531 174.40625 304.304688 172.726562 308.132812 171.144531 C 311.960938 169.558594 315.824219 168.066406 319.726562 166.671875 C 323.625 165.277344 327.558594 163.976562 331.523438 162.773438 C 335.484375 161.570312 339.476562 160.46875 343.496094 159.460938 C 347.515625 158.453125 351.554688 157.546875 355.617188 156.738281 C 359.679688 155.929688 363.761719 155.222656 367.859375 154.613281 C 371.957031 154.007812 376.066406 153.5 380.1875 153.09375 C 384.3125 152.6875 388.441406 152.382812 392.578125 152.179688 C 396.71875 151.976562 400.855469 151.875 405 151.875 C 409.140625 151.875 413.28125 151.976562 417.421875 152.179688 C 421.558594 152.382812 425.6875 152.6875 429.8125 153.09375 C 433.933594 153.5 438.042969 154.007812 442.140625 154.613281 C 446.238281 155.222656 450.320312 155.929688 454.382812 156.738281 C 458.445312 157.546875 462.484375 158.453125 466.503906 159.460938 C 470.523438 160.46875 474.515625 161.570312 478.476562 162.773438 C 482.441406 163.976562 486.375 165.277344 490.273438 166.671875 C 494.175781 168.066406 498.039062 169.558594 501.867188 171.144531 C 505.695312 172.726562 509.480469 174.40625 513.226562 176.175781 C 516.96875 177.949219 520.667969 179.8125 524.320312 181.765625 C 527.976562 183.714844 531.578125 185.757812 535.132812 187.886719 C 538.683594 190.015625 542.183594 192.234375 545.628906 194.535156 C 549.074219 196.835938 552.457031 199.21875 555.785156 201.6875 C 559.113281 204.15625 562.378906 206.703125 565.582031 209.332031 C 568.78125 211.960938 571.917969 214.664062 574.988281 217.445312 C 578.058594 220.230469 581.058594 223.085938 583.984375 226.011719 C 586.914062 228.941406 589.769531 231.941406 592.554688 235.011719 C 595.335938 238.082031 598.039062 241.21875 600.667969 244.417969 C 603.296875 247.621094 605.84375 250.886719 608.3125 254.214844 C 610.78125 257.539062 613.164062 260.925781 615.464844 264.371094 C 617.765625 267.816406 619.984375 271.316406 622.113281 274.867188 C 624.242188 278.421875 626.285156 282.023438 628.234375 285.675781 C 630.1875 289.332031 632.050781 293.03125 633.820312 296.773438 C 635.59375 300.519531 637.273438 304.304688 638.855469 308.132812 C 640.441406 311.960938 641.933594 315.824219 643.328125 319.726562 C 644.722656 323.625 646.023438 327.558594 647.226562 331.523438 C 648.429688 335.484375 649.53125 339.476562 650.539062 343.496094 C 651.546875 347.515625 652.453125 351.554688 653.261719 355.617188 C 654.070312 359.679688 654.777344 363.761719 655.386719 367.859375 C 655.992188 371.957031 656.5 376.066406 656.90625 380.1875 C 657.3125 384.3125 657.617188 388.441406 657.820312 392.578125 C 658.023438 396.71875 658.125 400.855469 658.125 405 Z M 658.125 405 "/></clipPath><linearGradient x1="95.999996" gradientTransform="matrix(1.582031,0,0,1.582031,0.0000035,0.00002)" y1="95.999996" x2="415.999984" gradientUnits="userSpaceOnUse" y2="415.999984" id="dfea96cf54"><stop style="stop-color:#4f46e5;stop-opacity:1;" offset="0"/><stop style="stop-color:#4f47e5;stop-opacity:1;" offset="0.0078125"/><stop style="stop-color:#4e47e5;stop-opacity:1;" offset="0.015625"/><stop style="stop-color:#4e48e5;stop-opacity:1;" offset="0.0234375"/><stop style="stop-color:#4d49e5;stop-opacity:1;" offset="0.03125"/><stop style="stop-color:#4c4ae4;stop-opacity:1;" offset="0.0390625"/><stop style="stop-color:#4c4be4;stop-opacity:1;" offset="0.046875"/><stop style="stop-color:#4b4ce4;stop-opacity:1;" offset="0.0546875"/><stop style="stop-color:#4b4de4;stop-opacity:1;" offset="0.0625"/><stop style="stop-color:#4a4ee4;stop-opacity:1;" offset="0.0703125"/><stop style="stop-color:#4a4ee4;stop-opacity:1;" offset="0.078125"/><stop style="stop-color:#494fe4;stop-opacity:1;" offset="0.0859375"/><stop style="stop-color:#4850e3;stop-opacity:1;" offset="0.09375"/><stop style="stop-color:#4851e3;stop-opacity:1;" offset="0.101562"/><stop style="stop-color:#4752e3;stop-opacity:1;" offset="0.109375"/><stop style="stop-color:#4753e3;stop-opacity:1;" offset="0.117188"/><stop style="stop-color:#4654e3;stop-opacity:1;" offset="0.125"/><stop style="stop-color:#4655e3;stop-opacity:1;" offset="0.132812"/><stop style="stop-color:#4555e3;stop-opacity:1;" offset="0.140625"/><stop style="stop-color:#4556e3;stop-opacity:1;" offset="0.148438"/><stop style="stop-color:#4457e2;stop-opacity:1;" offset="0.15625"/><stop style="stop-color:#4358e2;stop-opacity:1;" offset="0.164062"/><stop style="stop-color:#4359e2;stop-opacity:1;" offset="0.171875"/><stop style="stop-color:#425ae2;stop-opacity:1;" offset="0.179688"/><stop style="stop-color:#425be2;stop-opacity:1;" offset="0.1875"/><stop style="stop-color:#415ce2;stop-opacity:1;" offset="0.195312"/><stop style="stop-color:#415ce2;stop-opacity:1;" offset="0.203125"/><stop style="stop-color:#405de1;stop-opacity:1;" offset="0.210938"/><stop style="stop-color:#3f5ee1;stop-opacity:1;" offset="0.21875"/><stop style="stop-color:#3f5fe1;stop-opacity:1;" offset="0.226562"/><stop style="stop-color:#3e60e1;stop-opacity:1;" offset="0.234375"/><stop style="stop-color:#3e61e1;stop-opacity:1;" offset="0.242188"/><stop style="stop-color:#3d62e1;stop-opacity:1;" offset="0.25"/><stop style="stop-color:#3d63e1;stop-opacity:1;" offset="0.257812"/><stop style="stop-color:#3c63e1;stop-opacity:1;" offset="0.265625"/><stop style="stop-color:#3b64e0;stop-opacity:1;" offset="0.273438"/><stop style="stop-color:#3b65e0;stop-opacity:1;" offset="0.28125"/><stop style="stop-color:#3a66e0;stop-opacity:1;" offset="0.289062"/><stop style="stop-color:#3a67e0;stop-opacity:1;" offset="0.296875"/><stop style="stop-color:#3968e0;stop-opacity:1;" offset="0.304688"/><stop style="stop-color:#3969e0;stop-opacity:1;" offset="0.3125"/><stop style="stop-color:#386ae0;stop-opacity:1;" offset="0.320312"/><stop style="stop-color:#376adf;stop-opacity:1;" offset="0.328125"/><stop style="stop-color:#376bdf;stop-opacity:1;" offset="0.335938"/><stop style="stop-color:#366cdf;stop-opacity:1;" offset="0.34375"/><stop style="stop-color:#366ddf;stop-opacity:1;" offset="0.351562"/><stop style="stop-color:#356edf;stop-opacity:1;" offset="0.359375"/><stop style="stop-color:#356fdf;stop-opacity:1;" offset="0.367188"/><stop style="stop-color:#3470df;stop-opacity:1;" offset="0.375"/><stop style="stop-color:#3371df;stop-opacity:1;" offset="0.382812"/><stop style="stop-color:#3371de;stop-opacity:1;" offset="0.390625"/><stop style="stop-color:#3272de;stop-opacity:1;" offset="0.398438"/><stop style="stop-color:#3273de;stop-opacity:1;" offset="0.40625"/><stop style="stop-color:#3174de;stop-opacity:1;" offset="0.414062"/><stop style="stop-color:#3175de;stop-opacity:1;" offset="0.421875"/><stop style="stop-color:#3076de;stop-opacity:1;" offset="0.429688"/><stop style="stop-color:#2f77de;stop-opacity:1;" offset="0.4375"/><stop style="stop-color:#2f78dd;stop-opacity:1;" offset="0.445312"/><stop style="stop-color:#2e78dd;stop-opacity:1;" offset="0.453125"/><stop style="stop-color:#2e79dd;stop-opacity:1;" offset="0.460938"/><stop style="stop-color:#2d7add;stop-opacity:1;" offset="0.46875"/><stop style="stop-color:#2d7bdd;stop-opacity:1;" offset="0.476562"/><stop style="stop-color:#2c7cdd;stop-opacity:1;" offset="0.484375"/><stop style="stop-color:#2b7ddd;stop-opacity:1;" offset="0.492188"/><stop style="stop-color:#2b7edd;stop-opacity:1;" offset="0.5"/><stop style="stop-color:#2a7fdc;stop-opacity:1;" offset="0.507812"/><stop style="stop-color:#2a7fdc;stop-opacity:1;" offset="0.515625"/><stop style="stop-color:#2980dc;stop-opacity:1;" offset="0.523438"/><stop style="stop-color:#2981dc;stop-opacity:1;" offset="0.53125"/><stop style="stop-color:#2882dc;stop-opacity:1;" offset="0.539062"/><stop style="stop-color:#2783dc;stop-opacity:1;" offset="0.546875"/><stop style="stop-color:#2784dc;stop-opacity:1;" offset="0.554688"/><stop style="stop-color:#2685db;stop-opacity:1;" offset="0.5625"/><stop style="stop-color:#2686db;stop-opacity:1;" offset="0.570312"/><stop style="stop-color:#2586db;stop-opacity:1;" offset="0.578125"/><stop style="stop-color:#2587db;stop-opacity:1;" offset="0.585938"/><stop style="stop-color:#2488db;stop-opacity:1;" offset="0.59375"/><stop style="stop-color:#2389db;stop-opacity:1;" offset="0.601562"/><stop style="stop-color:#238adb;stop-opacity:1;" offset="0.609375"/><stop style="stop-color:#228bdb;stop-opacity:1;" offset="0.617188"/><stop style="stop-color:#228cda;stop-opacity:1;" offset="0.625"/><stop style="stop-color:#218dda;stop-opacity:1;" offset="0.632812"/><stop style="stop-color:#218dda;stop-opacity:1;" offset="0.640625"/><stop style="stop-color:#208eda;stop-opacity:1;" offset="0.648438"/><stop style="stop-color:#1f8fda;stop-opacity:1;" offset="0.65625"/><stop style="stop-color:#1f90da;stop-opacity:1;" offset="0.664062"/><stop style="stop-color:#1e91da;stop-opacity:1;" offset="0.671875"/><stop style="stop-color:#1e92d9;stop-opacity:1;" offset="0.679688"/><stop style="stop-color:#1d93d9;stop-opacity:1;" offset="0.6875"/><stop style="stop-color:#1d94d9;stop-opacity:1;" offset="0.695312"/><stop style="stop-color:#1c94d9;stop-opacity:1;" offset="0.703125"/><stop style="stop-color:#1b95d9;stop-opacity:1;" offset="0.710938"/><stop style="stop-color:#1b96d9;stop-opacity:1;" offset="0.71875"/><stop style="stop-color:#1a97d9;stop-opacity:1;" offset="0.726562"/><stop style="stop-color:#1a98d9;stop-opacity:1;" offset="0.734375"/><stop style="stop-color:#1999d8;stop-opacity:1;" offset="0.742188"/><stop style="stop-color:#199ad8;stop-opacity:1;" offset="0.75"/><stop style="stop-color:#189bd8;stop-opacity:1;" offset="0.757812"/><stop style="stop-color:#179bd8;stop-opacity:1;" offset="0.765625"/><stop style="stop-color:#179cd8;stop-opacity:1;" offset="0.773438"/><stop style="stop-color:#169dd8;stop-opacity:1;" offset="0.78125"/><stop style="stop-color:#169ed8;stop-opacity:1;" offset="0.789062"/><stop style="stop-color:#159fd7;stop-opacity:1;" offset="0.796875"/><stop style="stop-color:#15a0d7;stop-opacity:1;" offset="0.804688"/><stop style="stop-color:#14a1d7;stop-opacity:1;" offset="0.8125"/><stop style="stop-color:#14a2d7;stop-opacity:1;" offset="0.820312"/><stop style="stop-color:#13a2d7;stop-opacity:1;" offset="0.828125"/><stop style="stop-color:#12a3d7;stop-opacity:1;" offset="0.835938"/><stop style="stop-color:#12a4d7;stop-opacity:1;" offset="0.84375"/><stop style="stop-color:#11a5d7;stop-opacity:1;" offset="0.851562"/><stop style="stop-color:#11a6d6;stop-opacity:1;" offset="0.859375"/><stop style="stop-color:#10a7d6;stop-opacity:1;" offset="0.867188"/><stop style="stop-color:#10a8d6;stop-opacity:1;" offset="0.875"/><stop style="stop-color:#0fa9d6;stop-opacity:1;" offset="0.882812"/><stop style="stop-color:#0ea9d6;stop-opacity:1;" offset="0.890625"/><stop style="stop-color:#0eaad6;stop-opacity:1;" offset="0.898438"/><stop style="stop-color:#0dabd6;stop-opacity:1;" offset="0.90625"/><stop style="stop-color:#0dacd5;stop-opacity:1;" offset="0.914062"/><stop style="stop-color:#0cadd5;stop-opacity:1;" offset="0.921875"/><stop style="stop-color:#0caed5;stop-opacity:1;" offset="0.929688"/><stop style="stop-color:#0bafd5;stop-opacity:1;" offset="0.9375"/><stop style="stop-color:#0ab0d5;stop-opacity:1;" offset="0.945312"/><stop style="stop-color:#0ab0d5;stop-opacity:1;" offset="0.953125"/><stop style="stop-color:#09b1d5;stop-opacity:1;" offset="0.960938"/><stop style="stop-color:#09b2d5;stop-opacity:1;" offset="0.96875"/><stop style="stop-color:#08b3d4;stop-opacity:1;" offset="0.976562"/><stop style="stop-color:#08b4d4;stop-opacity:1;" offset="0.984375"/><stop style="stop-color:#07b5d4;stop-opacity:1;" offset="0.992188"/><stop style="stop-color:#06b6d4;stop-opacity:1;" offset="1"/></linearGradient><clipPath id="72f8ce6387"><path d="M 109.929688 109.929688 L 700.070312 109.929688 L 700.070312 700.070312 L 109.929688 700.070312 Z M 109.929688 109.929688 "/></clipPath><clipPath id="f3711d8fca"><path d="M 177 162.5 L 632.847656 162.5 L 632.847656 647.75 L 177 647.75 Z M 177 162.5 "/></clipPath></defs><g id="50b09c4bc2"><path style=" stroke:none;fill-rule:nonzero;fill:#1a1b1e;fill-opacity:1;" d="M 202.5 0 L 607.5 0 C 610.8125 0 614.125 0.0820312 617.4375 0.242188 C 620.746094 0.40625 624.050781 0.648438 627.347656 0.976562 C 630.648438 1.300781 633.933594 1.707031 637.210938 2.191406 C 640.492188 2.679688 643.753906 3.246094 647.003906 3.890625 C 650.257812 4.539062 653.488281 5.261719 656.703125 6.070312 C 659.917969 6.875 663.109375 7.757812 666.28125 8.71875 C 669.453125 9.679688 672.601562 10.722656 675.71875 11.835938 C 678.839844 12.953125 681.929688 14.144531 684.992188 15.414062 C 688.054688 16.683594 691.082031 18.023438 694.078125 19.441406 C 697.074219 20.859375 700.035156 22.347656 702.957031 23.910156 C 705.878906 25.472656 708.761719 27.105469 711.605469 28.808594 C 714.449219 30.515625 717.246094 32.285156 720.003906 34.128906 C 722.757812 35.96875 725.46875 37.875 728.128906 39.851562 C 730.789062 41.824219 733.402344 43.863281 735.964844 45.964844 C 738.527344 48.066406 741.035156 50.230469 743.492188 52.457031 C 745.945312 54.683594 748.34375 56.96875 750.6875 59.3125 C 753.03125 61.652344 755.316406 64.054688 757.542969 66.507812 C 759.769531 68.964844 761.933594 71.472656 764.035156 74.035156 C 766.136719 76.597656 768.175781 79.210938 770.148438 81.871094 C 772.125 84.53125 774.03125 87.242188 775.871094 89.996094 C 777.714844 92.753906 779.484375 95.550781 781.191406 98.394531 C 782.894531 101.238281 784.527344 104.121094 786.089844 107.042969 C 787.652344 109.964844 789.140625 112.925781 790.558594 115.921875 C 791.976562 118.914062 793.316406 121.945312 794.585938 125.007812 C 795.855469 128.070312 797.046875 131.160156 798.164062 134.28125 C 799.277344 137.398438 800.316406 140.546875 801.28125 143.71875 C 802.242188 146.890625 803.125 150.082031 803.929688 153.296875 C 804.738281 156.511719 805.460938 159.742188 806.109375 162.996094 C 806.753906 166.246094 807.320312 169.507812 807.808594 172.785156 C 808.292969 176.066406 808.699219 179.351562 809.023438 182.652344 C 809.351562 185.949219 809.59375 189.253906 809.757812 192.5625 C 809.917969 195.875 810 199.1875 810 202.5 L 810 607.5 C 810 610.8125 809.917969 614.125 809.757812 617.4375 C 809.59375 620.746094 809.351562 624.050781 809.023438 627.347656 C 808.699219 630.648438 808.292969 633.933594 807.808594 637.210938 C 807.320312 640.492188 806.753906 643.753906 806.109375 647.003906 C 805.460938 650.257812 804.738281 653.488281 803.929688 656.703125 C 803.125 659.917969 802.242188 663.109375 801.28125 666.28125 C 800.316406 669.453125 799.277344 672.601562 798.164062 675.71875 C 797.046875 678.839844 795.855469 681.929688 794.585938 684.992188 C 793.316406 688.054688 791.976562 691.082031 790.558594 694.078125 C 789.140625 697.074219 787.652344 700.035156 786.089844 702.957031 C 784.527344 705.878906 782.894531 708.761719 781.191406 711.605469 C 779.484375 714.449219 777.714844 717.246094 775.871094 720.003906 C 774.03125 722.757812 772.125 725.46875 770.148438 728.128906 C 768.175781 730.789062 766.136719 733.402344 764.035156 735.964844 C 761.933594 738.527344 759.769531 741.035156 757.542969 743.492188 C 755.316406 745.945312 753.03125 748.34375 750.6875 750.6875 C 748.34375 753.03125 745.945312 755.316406 743.492188 757.542969 C 741.035156 759.769531 738.527344 761.933594 735.964844 764.035156 C 733.402344 766.136719 730.789062 768.175781 728.128906 770.148438 C 725.46875 772.125 722.757812 774.03125 720.003906 775.871094 C 717.246094 777.714844 714.449219 779.484375 711.605469 781.191406 C 708.761719 782.894531 705.878906 784.527344 702.957031 786.089844 C 700.035156 787.652344 697.074219 789.140625 694.078125 790.558594 C 691.082031 791.976562 688.054688 793.316406 684.992188 794.585938 C 681.929688 795.855469 678.839844 797.046875 675.71875 798.164062 C 672.601562 799.277344 669.453125 800.316406 666.28125 801.28125 C 663.109375 802.242188 659.917969 803.125 656.703125 803.929688 C 653.488281 804.738281 650.257812 805.460938 647.003906 806.109375 C 643.753906 806.753906 640.492188 807.320312 637.210938 807.808594 C 633.933594 808.292969 630.648438 808.699219 627.347656 809.023438 C 624.050781 809.351562 620.746094 809.59375 617.4375 809.757812 C 614.125 809.917969 610.8125 810 607.5 810 L 202.5 810 C 199.1875 810 195.875 809.917969 192.5625 809.757812 C 189.253906 809.59375 185.949219 809.351562 182.652344 809.023438 C 179.351562 808.699219 176.066406 808.292969 172.785156 807.808594 C 169.507812 807.320312 166.246094 806.753906 162.996094 806.109375 C 159.742188 805.460938 156.511719 804.738281 153.296875 803.929688 C 150.082031 803.125 146.890625 802.242188 143.71875 801.28125 C 140.546875 800.316406 137.398438 799.277344 134.28125 798.164062 C 131.160156 797.046875 128.070312 795.855469 125.007812 794.585938 C 121.945312 793.316406 118.914062 791.976562 115.921875 790.558594 C 112.925781 789.140625 109.964844 787.652344 107.042969 786.089844 C 104.121094 784.527344 101.238281 782.894531 98.394531 781.191406 C 95.550781 779.484375 92.753906 777.714844 89.996094 775.871094 C 87.242188 774.03125 84.53125 772.125 81.871094 770.148438 C 79.210938 768.175781 76.597656 766.136719 74.035156 764.035156 C 71.472656 761.933594 68.964844 759.769531 66.507812 757.542969 C 64.054688 755.316406 61.652344 753.03125 59.3125 750.6875 C 56.96875 748.34375 54.683594 745.945312 52.457031 743.492188 C 50.230469 741.035156 48.066406 738.527344 45.964844 735.964844 C 43.863281 733.402344 41.824219 730.789062 39.851562 728.128906 C 37.875 725.46875 35.96875 722.757812 34.128906 720.003906 C 32.285156 717.246094 30.515625 714.449219 28.808594 711.605469 C 27.105469 708.761719 25.472656 705.878906 23.910156 702.957031 C 22.347656 700.035156 20.859375 697.074219 19.441406 694.078125 C 18.023438 691.082031 16.683594 688.054688 15.414062 684.992188 C 14.144531 681.929688 12.953125 678.839844 11.835938 675.71875 C 10.722656 672.601562 9.679688 669.453125 8.71875 666.28125 C 7.757812 663.109375 6.875 659.917969 6.070312 656.703125 C 5.261719 653.488281 4.539062 650.257812 3.890625 647.003906 C 3.246094 643.753906 2.679688 640.492188 2.191406 637.210938 C 1.707031 633.933594 1.300781 630.648438 0.976562 627.347656 C 0.648438 624.050781 0.40625 620.746094 0.242188 617.4375 C 0.0820312 614.125 0 610.8125 0 607.5 L 0 202.5 C 0 199.1875 0.0820312 195.875 0.242188 192.5625 C 0.40625 189.253906 0.648438 185.949219 0.976562 182.652344 C 1.300781 179.351562 1.707031 176.066406 2.191406 172.785156 C 2.679688 169.507812 3.246094 166.246094 3.890625 162.996094 C 4.539062 159.742188 5.261719 156.511719 6.070312 153.296875 C 6.875 150.082031 7.757812 146.890625 8.71875 143.71875 C 9.679688 140.546875 10.722656 137.398438 11.835938 134.28125 C 12.953125 131.160156 14.144531 128.070312 15.414062 125.007812 C 16.683594 121.945312 18.023438 118.914062 19.441406 115.921875 C 20.859375 112.925781 22.347656 109.964844 23.910156 107.042969 C 25.472656 104.121094 27.105469 101.238281 28.808594 98.394531 C 30.515625 95.550781 32.285156 92.753906 34.128906 89.996094 C 35.96875 87.242188 37.875 84.53125 39.851562 81.871094 C 41.824219 79.210938 43.863281 76.597656 45.964844 74.035156 C 48.066406 71.472656 50.230469 68.964844 52.457031 66.507812 C 54.683594 64.054688 56.96875 61.652344 59.3125 59.3125 C 61.652344 56.96875 64.054688 54.683594 66.507812 52.457031 C 68.964844 50.230469 71.472656 48.066406 74.035156 45.964844 C 76.597656 43.863281 79.210938 41.824219 81.871094 39.851562 C 84.53125 37.875 87.242188 35.96875 89.996094 34.128906 C 92.753906 32.285156 95.550781 30.515625 98.394531 28.808594 C 101.238281 27.105469 104.121094 25.472656 107.042969 23.910156 C 109.964844 22.347656 112.925781 20.859375 115.921875 19.441406 C 118.914062 18.023438 121.945312 16.683594 125.007812 15.414062 C 128.070312 14.144531 131.160156 12.953125 134.28125 11.835938 C 137.398438 10.722656 140.546875 9.679688 143.71875 8.71875 C 146.890625 7.757812 150.082031 6.875 153.296875 6.070312 C 156.511719 5.261719 159.742188 4.539062 162.996094 3.890625 C 166.246094 3.246094 169.507812 2.679688 172.785156 2.191406 C 176.066406 1.707031 179.351562 1.300781 182.652344 0.976562 C 185.949219 0.648438 189.253906 0.40625 192.5625 0.242188 C 195.875 0.0820312 199.1875 0 202.5 0 Z M 202.5 0 "/><g clip-rule="nonzero" clip-path="url(#039d81d7d8)"><g clip-rule="nonzero" clip-path="url(#abbfffdaa2)"><path style=" stroke:none;fill-rule:nonzero;fill:url(#linear0);" d="M 151.875 151.875 L 151.875 658.125 L 658.125 658.125 L 658.125 151.875 Z M 151.875 151.875 "/></g></g><path style=" stroke:none;fill-rule:nonzero;fill:#1a1b1e;fill-opacity:1;" d="M 405 246.796875 C 318.351562 246.796875 246.796875 318.351562 246.796875 405 C 246.796875 491.648438 318.351562 563.203125 405 563.203125 C 491.648438 563.203125 563.203125 491.648438 563.203125 405 C 563.203125 318.351562 491.648438 246.796875 405 246.796875 Z M 405 515.742188 C 344.804688 515.742188 294.257812 465.195312 294.257812 405 C 294.257812 344.804688 344.804688 294.257812 405 294.257812 C 465.195312 294.257812 515.742188 344.804688 515.742188 405 C 515.742188 465.195312 465.195312 515.742188 405 515.742188 Z M 405 515.742188 "/><g clip-rule="nonzero" clip-path="url(#72f8ce6387)"><path style=" stroke:none;fill-rule:nonzero;fill:#1a1b1e;fill-opacity:1;" d="M 109.929688 109.929688 L 700.070312 109.929688 L 700.070312 700.070312 L 109.929688 700.070312 Z M 109.929688 109.929688 "/></g><g clip-rule="nonzero" clip-path="url(#f3711d8fca)"><path style=" stroke:none;fill-rule:evenodd;fill:#5a59f1;fill-opacity:1;" d="M 514.046875 484.242188 C 512.808594 486.285156 512.621094 488.757812 513.550781 490.984375 L 574.117188 632.539062 L 219.0625 632.539062 L 284.332031 600.675781 C 288.601562 600.179688 293.304688 598.449219 296.953125 594.117188 C 297.574219 593.5 298.066406 592.816406 298.5 592.015625 C 299.429688 590.53125 300.292969 588.796875 300.976562 586.753906 L 329.992188 525.445312 L 344.53125 525.445312 C 345.394531 525.628906 346.261719 525.816406 347.191406 525.878906 L 350.40625 526.1875 C 351.027344 526.1875 351.582031 526.25 352.203125 526.25 C 354.121094 526.25 355.976562 525.941406 357.707031 525.445312 L 400.644531 525.445312 C 403.984375 525.445312 406.894531 523.21875 407.757812 520 L 424.03125 458.9375 L 527.472656 347.144531 L 609.320312 327.65625 Z M 195.429688 617.875 C 203.535156 617.875 205.144531 614.410156 205.824219 612.863281 L 230.753906 558.421875 L 236.570312 534.042969 C 229.644531 532.992188 222.652344 531.878906 217.023438 528.722656 L 215.597656 555.140625 C 215.597656 555.945312 215.414062 556.8125 215.042969 557.554688 L 192.894531 610.945312 C 192.214844 612.492188 192.585938 614.90625 193.699219 616.578125 C 193.945312 616.886719 194.6875 617.875 195.429688 617.875 Z M 215.722656 403.503906 C 216.09375 407.773438 217.886719 411.671875 220.855469 414.394531 C 223.640625 416.929688 227.105469 418.167969 230.570312 417.859375 C 231.3125 417.796875 232.054688 417.671875 232.734375 417.425781 C 233.355469 417.238281 233.910156 416.992188 234.53125 416.804688 C 236.449219 415.941406 238.179688 414.578125 239.542969 412.722656 C 242.015625 409.503906 243.128906 405.421875 242.757812 401.152344 C 242.386719 396.886719 240.53125 392.988281 237.5625 390.265625 C 235.085938 387.976562 232.054688 386.738281 228.902344 386.738281 C 228.53125 386.738281 228.21875 386.738281 227.847656 386.800781 C 224.386719 387.113281 221.167969 388.90625 218.941406 391.9375 C 216.464844 395.152344 215.351562 399.238281 215.722656 403.503906 Z M 266.328125 593.128906 C 265.648438 592.136719 265.089844 591.023438 264.597656 589.847656 C 262.308594 584.40625 261.875 577.785156 261.378906 570.792969 L 259.773438 546.605469 C 259.398438 541.53125 256.988281 538.871094 250.988281 536.953125 L 244.863281 562.503906 C 244.738281 563 244.550781 563.429688 244.367188 563.863281 L 220.859375 615.339844 Z M 244.921875 430.171875 C 243.128906 429.984375 241.332031 430.109375 239.664062 430.605469 C 239.046875 430.851562 238.363281 431.097656 237.683594 431.347656 C 233.601562 433.140625 230.445312 436.789062 229.457031 441.429688 L 227.539062 450.089844 C 224.816406 462.773438 222.464844 473.664062 220.796875 482.386719 L 220.609375 483.25 C 219.25 490.117188 215.722656 508.308594 222.835938 514.925781 C 225.621094 517.585938 233.042969 518.703125 239.601562 519.628906 C 241.765625 519.9375 244.058594 520.308594 246.40625 520.742188 C 246.714844 520.804688 246.964844 520.804688 247.273438 520.867188 C 247.335938 520.929688 247.335938 520.929688 247.398438 520.929688 C 259.585938 523.34375 273.257812 528.414062 274.433594 545.613281 L 276.039062 569.804688 C 276.410156 575.308594 276.78125 581 278.082031 584.15625 C 278.636719 585.332031 278.886719 586.074219 280.554688 586.195312 L 286.371094 583.351562 L 287.300781 581.308594 C 287.484375 580.691406 287.671875 580.011719 287.796875 579.207031 C 288.597656 574.9375 291.941406 531.136719 291.753906 525.382812 C 291.570312 518.761719 289.898438 517.523438 270.101562 508.738281 C 266.824219 507.316406 263.171875 505.707031 259.152344 503.851562 C 256.242188 502.554688 254.511719 499.523438 254.882812 496.367188 L 259.460938 454.976562 C 259.832031 451.699219 262.304688 449.101562 265.523438 448.542969 L 286.1875 445.078125 L 291.074219 411.609375 C 288.660156 412.722656 286.25 413.21875 283.835938 413.21875 C 283.710938 413.21875 283.589844 413.21875 283.402344 413.21875 L 280.246094 427.136719 C 279.378906 430.726562 276.039062 433.140625 272.328125 432.832031 Z M 280.371094 390.636719 C 279.507812 391.441406 279.320312 392.554688 279.878906 393.667969 C 280.0625 394.039062 280.25 394.472656 280.496094 394.90625 C 281.421875 396.824219 281.855469 397.628906 282.230469 398 C 282.351562 398.0625 282.414062 398.125 282.539062 398.183594 C 282.722656 398.308594 282.972656 398.371094 283.21875 398.492188 C 283.589844 398.554688 284.269531 398.742188 285.753906 397.875 L 293.738281 393.234375 L 293.921875 392.183594 C 292.128906 389.460938 290.023438 386.183594 287.984375 383.027344 Z M 299.921875 452.441406 C 299.488281 455.597656 297.015625 458.132812 293.921875 458.628906 L 273.445312 462.09375 L 270.042969 492.65625 C 272.207031 493.644531 274.1875 494.511719 276.042969 495.316406 C 295.902344 504.101562 305.863281 508.492188 306.417969 524.886719 C 306.542969 527.238281 306.171875 534.289062 305.617188 542.703125 L 318.730469 514.988281 C 319.90625 512.390625 322.503906 510.78125 325.351562 510.78125 L 329.3125 510.78125 C 328.507812 507.875 328.445312 504.71875 329.0625 501.6875 L 344.097656 426.703125 C 342.367188 420.890625 337.726562 402.636719 337.539062 377.148438 C 329.683594 384.140625 319.597656 392.925781 311.183594 399.730469 C 310.75 400.226562 310.257812 400.597656 309.699219 400.96875 C 309.636719 401.03125 309.515625 401.09375 309.453125 401.152344 C 308.773438 401.648438 308.089844 402.082031 307.347656 402.328125 L 307.226562 402.390625 Z M 321.390625 348.195312 C 314.027344 356.546875 306.542969 365.085938 298.746094 372.574219 C 301.285156 376.65625 304.191406 381.046875 306.480469 384.574219 C 321.640625 371.953125 340.199219 354.878906 340.445312 354.691406 C 341.808594 353.394531 343.601562 352.773438 345.394531 352.773438 C 346.507812 352.773438 347.558594 353.023438 348.613281 353.515625 C 351.273438 354.816406 352.945312 357.601562 352.695312 360.632812 C 351.210938 382.160156 353.375 400.042969 355.539062 411.238281 C 361.914062 403.628906 363.582031 399.421875 364.015625 398.246094 C 363.957031 397.691406 364.078125 397.816406 364.265625 397.070312 C 374.347656 355.496094 375.523438 325.367188 367.726562 307.304688 C 351.457031 314.046875 336.175781 331.367188 321.390625 348.195312 Z M 381.898438 249.953125 C 392.597656 249.953125 401.324219 258.613281 401.324219 269.378906 C 401.324219 280.082031 392.597656 288.804688 381.898438 288.804688 C 371.195312 288.804688 362.46875 280.082031 362.46875 269.378906 C 362.46875 258.613281 371.195312 249.953125 381.898438 249.953125 Z M 410.109375 454.050781 C 409.984375 452.75 410.171875 451.390625 410.726562 450.089844 C 410.789062 449.90625 417.59375 434.933594 421.492188 415.011719 C 413.820312 418.785156 404.167969 423.613281 396.621094 427.632812 C 394.640625 435.058594 388.457031 457.082031 371.875 510.78125 L 395.015625 510.78125 Z M 405.777344 381.417969 C 404.355469 381.417969 402.992188 380.984375 401.757812 380.183594 C 399.53125 378.757812 398.230469 376.160156 398.414062 373.5 L 401.324219 334.957031 L 398.289062 299.320312 C 393.464844 301.917969 387.898438 303.464844 382.019531 303.464844 C 390.308594 324.75 389.195312 356.546875 378.617188 400.039062 C 378.0625 404 374.71875 413.21875 358.386719 429.921875 L 343.414062 504.59375 C 343.105469 506.203125 343.476562 507.75 344.40625 509.050781 C 345.023438 509.792969 345.765625 510.410156 346.570312 510.78125 L 354.984375 510.78125 C 356.160156 510.101562 357.027344 508.988281 357.460938 507.628906 C 378.804688 438.398438 383.195312 421.074219 383.257812 420.890625 C 383.753906 418.910156 385.054688 417.242188 386.847656 416.25 C 401.324219 408.332031 426.503906 396.207031 427.617188 395.710938 C 429.96875 394.535156 432.8125 394.78125 434.980469 396.328125 C 437.144531 397.875 438.320312 400.410156 438.074219 403.070312 C 437.207031 411.488281 435.722656 419.46875 433.988281 426.519531 L 446.546875 412.972656 L 454.40625 369.539062 C 454.964844 366.695312 453.726562 364.097656 451.1875 362.671875 L 449.890625 361.929688 C 447.722656 360.695312 445.496094 360.695312 443.394531 361.929688 L 433.617188 367.5 C 433.554688 367.5 433.554688 367.5625 433.496094 367.5625 L 433.433594 367.621094 L 409.242188 380.550781 C 408.128906 381.109375 406.953125 381.417969 405.777344 381.417969 Z M 475.996094 258.859375 L 412.582031 294.125 L 415.984375 334.339844 C 416.046875 334.710938 416.046875 335.082031 415.984375 335.453125 L 414.066406 361.3125 L 423.410156 356.300781 L 433.121094 306.808594 C 433.496094 304.765625 434.792969 303.035156 436.523438 301.921875 L 476.800781 277.605469 Z M 510.828125 239.125 C 511.261719 239.308594 511.695312 239.683594 512.003906 240.117188 C 512.4375 240.734375 512.808594 242.402344 512.929688 243.765625 C 511.941406 244.570312 510.765625 245.371094 509.589844 246.117188 C 504.578125 249.582031 496.96875 254.714844 499.132812 263.316406 C 499.691406 265.605469 498.332031 267.769531 497.527344 268.820312 C 496.226562 270.429688 494.125 272.039062 491.339844 273.152344 L 490.289062 250.816406 Z M 623.054688 309.28125 L 521.902344 333.347656 C 520.480469 333.71875 519.179688 334.460938 518.1875 335.511719 L 465.105469 392.925781 L 468.882812 372.199219 C 470.550781 363.167969 466.40625 354.382812 458.425781 349.867188 L 457.125 349.125 C 451.742188 346.09375 445.742188 345.535156 440.113281 347.390625 L 446.917969 312.808594 L 486.449219 288.925781 C 495.542969 288.492188 503.835938 284.472656 509.03125 277.914062 C 512.929688 272.964844 514.597656 267.027344 513.671875 261.332031 C 514.660156 260.46875 516.515625 259.167969 517.878906 258.300781 C 520.292969 256.628906 523.074219 254.710938 525.300781 252.425781 C 526.167969 251.496094 526.785156 250.382812 527.097656 249.207031 C 528.582031 243.640625 527.035156 235.597656 523.695312 231.265625 C 520.351562 226.75 515.15625 224.148438 509.589844 224.089844 C 508.289062 224.089844 506.929688 224.398438 505.8125 225.015625 L 479.148438 240.234375 L 415.425781 275.683594 C 415.796875 273.644531 416.042969 271.539062 416.042969 269.375 C 416.042969 250.566406 400.703125 235.226562 381.894531 235.226562 C 363.085938 235.226562 347.804688 250.566406 347.804688 269.375 C 347.804688 279.519531 352.261719 288.675781 359.375 294.925781 C 341.125 303.527344 325.535156 321.28125 310.316406 338.480469 C 301.902344 348.070312 293.175781 358.03125 284.390625 365.824219 C 284.332031 365.886719 284.269531 365.949219 284.207031 366.011719 C 284.144531 366.074219 284.144531 366.074219 284.082031 366.132812 L 269.976562 380.238281 C 264.65625 385.5625 263.359375 393.417969 266.699219 400.160156 C 266.882812 400.53125 267.070312 400.902344 267.257812 401.273438 C 268 402.761719 268.800781 404.492188 269.976562 406.164062 L 267.378906 417.546875 L 254.449219 416.308594 C 256.863281 411.296875 257.914062 405.605469 257.355469 399.851562 C 256.675781 391.933594 253.152344 384.695312 247.519531 379.496094 C 241.644531 374.113281 234.21875 371.515625 226.546875 372.132812 C 218.9375 372.816406 212.070312 376.710938 207.246094 383.023438 C 202.542969 389.148438 200.378906 396.882812 201.058594 404.800781 C 201.738281 412.71875 205.265625 419.957031 210.957031 425.15625 C 213.183594 427.257812 215.597656 428.867188 218.257812 430.105469 C 216.773438 432.578125 215.722656 435.363281 215.101562 438.332031 L 213.183594 446.996094 C 210.460938 459.738281 208.050781 470.75 206.378906 479.597656 L 206.195312 480.464844 C 205.265625 485.164062 203.78125 492.835938 203.84375 500.941406 L 203.84375 501.003906 L 200.996094 553.09375 L 179.34375 605.3125 C 176.808594 611.375 177.671875 618.984375 181.507812 624.738281 C 183.425781 627.582031 185.839844 629.75 188.625 631.046875 L 184.046875 633.273438 C 181.015625 634.757812 179.34375 638.222656 180.148438 641.5625 C 180.890625 644.84375 183.859375 647.195312 187.261719 647.195312 L 585.253906 647.195312 C 587.730469 647.195312 590.019531 645.957031 591.378906 643.914062 C 592.738281 641.875 592.988281 639.277344 591.996094 636.988281 L 528.585938 488.628906 L 631.035156 320.226562 C 632.582031 317.753906 632.457031 314.535156 630.726562 312.125 C 628.992188 309.714844 625.960938 308.601562 623.054688 309.28125 Z M 562.300781 214.128906 C 565.457031 214.128906 568.300781 212.089844 569.292969 209.054688 L 574.179688 193.835938 L 579.066406 209.054688 C 580.058594 212.089844 582.902344 214.128906 586.058594 214.128906 L 602.019531 214.066406 L 589.089844 223.410156 C 586.550781 225.328125 585.4375 228.605469 586.429688 231.640625 L 591.378906 246.859375 L 578.507812 237.453125 C 577.210938 236.464844 575.726562 236.03125 574.179688 236.03125 C 572.632812 236.03125 571.144531 236.464844 569.847656 237.453125 L 556.980469 246.859375 L 561.929688 231.640625 C 562.917969 228.605469 561.804688 225.328125 559.269531 223.410156 L 546.339844 214.066406 Z M 519.304688 212.644531 C 516.703125 210.789062 515.589844 207.449219 516.582031 204.417969 C 517.570312 201.386719 520.417969 199.34375 523.570312 199.34375 C 523.570312 199.34375 523.570312 199.34375 523.632812 199.34375 L 556.917969 199.40625 L 567.1875 167.667969 C 568.175781 164.636719 570.960938 162.59375 574.179688 162.59375 C 577.332031 162.59375 580.179688 164.636719 581.171875 167.667969 L 591.4375 199.40625 L 624.785156 199.34375 C 627.941406 199.34375 630.785156 201.386719 631.777344 204.417969 C 632.765625 207.449219 631.652344 210.789062 629.054688 212.644531 L 602.082031 232.195312 L 612.414062 263.871094 C 613.402344 266.902344 612.351562 270.242188 609.753906 272.097656 C 608.453125 273.027344 606.96875 273.523438 605.421875 273.523438 C 603.9375 273.523438 602.390625 273.027344 601.089844 272.097656 L 574.179688 252.425781 L 547.269531 272.097656 C 544.667969 273.957031 541.144531 273.957031 538.605469 272.097656 C 536.007812 270.242188 534.957031 266.902344 535.945312 263.871094 L 546.277344 232.195312 Z M 519.304688 212.644531 "/></g></g></svg>